<svg xmlns="http://www.w3.org/2000/svg" xmlns:xlink="http://www.w3.org/1999/xlink" contentStyleType="text/css" data-diagram-type="DESCRIPTION" height="584px" preserveAspectRatio="none" style="width:382px;height:584px;background:#FFFFFF;" version="1.1" viewBox="0 0 382 584" width="382px" zoomAndPan="magnify"><defs/><g><!--cluster GoCamplySystem--><g class="cluster" data-entity="GoCamplySystem" data-source-line="3" data-uid="ent0003" id="cluster_GoCamplySystem"><rect fill="none" height="571" rx="2.5" ry="2.5" style="stroke:#181818;stroke-width:1;" width="206.42" x="80.37" y="7"/><text fill="#000000" font-family="sans-serif" font-size="14" font-weight="bold" lengthAdjust="spacing" textLength="129.2949" x="118.9325" y="22.5352">GoCamply System</text></g><!--entity register--><g class="entity" data-entity="register" data-source-line="4" data-uid="ent0004" id="entity_register"><ellipse cx="183.5843" cy="546.999" fill="#F1F1F1" rx="42.1243" ry="14.659" style="stroke:#181818;stroke-width:0.5;"/><text fill="#000000" font-family="sans-serif" font-size="14" lengthAdjust="spacing" textLength="55.3301" x="155.9192" y="551.7431">Register</text></g><!--entity login--><g class="entity" data-entity="login" data-source-line="5" data-uid="ent0005" id="entity_login"><ellipse cx="183.5772" cy="482.999" fill="#F1F1F1" rx="29.5372" ry="14.659" style="stroke:#181818;stroke-width:0.5;"/><text fill="#000000" font-family="sans-serif" font-size="14" lengthAdjust="spacing" textLength="37.5293" x="164.8126" y="487.7431">Login</text></g><!--entity logout--><g class="entity" data-entity="logout" data-source-line="6" data-uid="ent0006" id="entity_logout"><ellipse cx="183.5791" cy="418.999" fill="#F1F1F1" rx="36.4591" ry="14.659" style="stroke:#181818;stroke-width:0.5;"/><text fill="#000000" font-family="sans-serif" font-size="14" lengthAdjust="spacing" textLength="47.3184" x="159.92" y="423.7431">Logout</text></g><!--entity viewCampgrounds--><g class="entity" data-entity="viewCampgrounds" data-source-line="7" data-uid="ent0007" id="entity_viewCampgrounds"><ellipse cx="183.5822" cy="351.0044" fill="#F1F1F1" rx="80.7722" ry="18.5544" style="stroke:#181818;stroke-width:0.5;"/><text fill="#000000" font-family="sans-serif" font-size="14" lengthAdjust="spacing" textLength="131.8994" x="117.6325" y="355.7486">View Campgrounds</text></g><!--entity manageAppt--><g class="entity" data-entity="manageAppt" data-source-line="8" data-uid="ent0008" id="entity_manageAppt"><ellipse cx="183.5845" cy="278.0009" fill="#F1F1F1" rx="86.7545" ry="19.7509" style="stroke:#181818;stroke-width:0.5;"/><text fill="#000000" font-family="sans-serif" font-size="14" lengthAdjust="spacing" textLength="145.8174" x="110.6759" y="282.745">Manage Appointment</text></g><!--entity manageCampground--><g class="entity" data-entity="manageCampground" data-source-line="9" data-uid="ent0009" id="entity_manageCampground"><ellipse cx="183.5799" cy="204.002" fill="#F1F1F1" rx="86.7099" ry="19.742" style="stroke:#181818;stroke-width:0.5;"/><text fill="#000000" font-family="sans-serif" font-size="14" lengthAdjust="spacing" textLength="145.7148" x="110.7225" y="208.7461">Manage Campground</text></g><!--entity favoriteCampground--><g class="entity" data-entity="favoriteCampground" data-source-line="10" data-uid="ent0010" id="entity_favoriteCampground"><ellipse cx="183.5831" cy="129.0026" fill="#F1F1F1" rx="87.2131" ry="19.8426" style="stroke:#181818;stroke-width:0.5;"/><text fill="#000000" font-family="sans-serif" font-size="14" lengthAdjust="spacing" textLength="146.8701" x="110.1481" y="133.7468">Favorite Campground</text></g><!--entity getAvailability--><g class="entity" data-entity="getAvailability" data-source-line="11" data-uid="ent0011" id="entity_getAvailability"><ellipse cx="183.5798" cy="58" fill="#F1F1F1" rx="68.3998" ry="16.08" style="stroke:#181818;stroke-width:0.5;"/><text fill="#000000" font-family="sans-serif" font-size="14" lengthAdjust="spacing" textLength="101.5479" x="132.8059" y="62.7441">Get Availability</text></g><!--entity user--><g class="entity" data-entity="user" data-source-line="2" data-uid="ent0002" id="entity_user"><ellipse cx="21.1826" cy="321.26" fill="#F1F1F1" rx="8" ry="8" style="stroke:#181818;stroke-width:0.5;"/><path d="M21.1826,329.26 L21.1826,356.26 M8.1826,337.26 L34.1826,337.26 M21.1826,356.26 L8.1826,371.26 M21.1826,356.26 L34.1826,371.26" fill="none" style="stroke:#181818;stroke-width:0.5;"/><text fill="#000000" font-family="sans-serif" font-size="14" lengthAdjust="spacing" textLength="30.3652" x="6" y="386.2952">User</text></g><!--entity admin--><g class="entity" data-entity="admin" data-source-line="22" data-uid="ent0019" id="entity_admin"><ellipse cx="352.9282" cy="389.26" fill="#F1F1F1" rx="8" ry="8" style="stroke:#181818;stroke-width:0.5;"/><path d="M352.9282,397.26 L352.9282,424.26 M339.9282,405.26 L365.9282,405.26 M352.9282,424.26 L339.9282,439.26 M352.9282,424.26 L365.9282,439.26" fill="none" style="stroke:#181818;stroke-width:0.5;"/><text fill="#000000" font-family="sans-serif" font-size="14" lengthAdjust="spacing" textLength="44.2764" x="330.79" y="454.2952">Admin</text></g><!--link user to register--><g class="link" data-entity-1="user" data-entity-2="register" data-source-line="14" data-uid="lnk12" id="link_user_register"><path d="M23.82,389.48 C27.46,426.55 38.65,481.76 72.37,515 C90.67,533.04 118.51,541.03 141.63,544.51" fill="none" id="user-register" style="stroke:#181818;stroke-width:1;"/></g><!--link user to viewCampgrounds--><g class="link" data-entity-1="user" data-entity-2="viewCampgrounds" data-source-line="15" data-uid="lnk13" id="link_user_viewCampgrounds"><path d="M36.7,351 C51.97,351 77.24,351 102.5,351" fill="none" id="user-viewCampgrounds" style="stroke:#181818;stroke-width:1;"/></g><!--link user to manageAppt--><g class="link" data-entity-1="user" data-entity-2="manageAppt" data-source-line="16" data-uid="lnk14" id="link_user_manageAppt"><path d="M36.8,338.73 C46.43,331.1 59.58,321.55 72.37,315 C89.34,306.31 108.81,298.99 126.6,293.22" fill="none" id="user-manageAppt" style="stroke:#181818;stroke-width:1;"/></g><!--link user to favoriteCampground--><g class="link" data-entity-1="user" data-entity-2="favoriteCampground" data-source-line="17" data-uid="lnk15" id="link_user_favoriteCampground"><path d="M22.56,312.52 C25.03,271.4 35.14,206.76 72.37,167 C83.5,155.11 98.53,146.94 113.91,141.32" fill="none" id="user-favoriteCampground" style="stroke:#181818;stroke-width:1;"/></g><!--link user to login--><g class="link" data-entity-1="user" data-entity-2="login" data-source-line="18" data-uid="lnk16" id="link_user_login"><path d="M33.12,389.56 C40.91,410.48 53.4,435.22 72.37,451 C95.49,470.25 129.68,477.92 153.84,480.98" fill="none" id="user-login" style="stroke:#181818;stroke-width:1;"/></g><!--link user to logout--><g class="link" data-entity-1="user" data-entity-2="logout" data-source-line="19" data-uid="lnk17" id="link_user_logout"><path d="M36.71,363.46 C46.3,371.15 59.44,380.72 72.37,387 C97.27,399.11 127.63,407.5 150.17,412.64" fill="none" id="user-logout" style="stroke:#181818;stroke-width:1;"/></g><!--link user to getAvailability--><g class="link" data-entity-1="user" data-entity-2="getAvailability" data-source-line="20" data-uid="lnk18" id="link_user_getAvailability"><path d="M24.86,312.41 C30.06,248.37 43.65,124 72.37,92 C84.94,77.99 103.14,69.69 121.14,64.79" fill="none" id="user-getAvailability" style="stroke:#181818;stroke-width:1;"/></g><!--link register to admin--><g class="link" data-entity-1="register" data-entity-2="admin" data-source-line="23" data-uid="lnk20" id="link_register_admin"><path d="M224.29,542.75 C246.85,538.66 274.54,530.66 294.79,515 C313.82,500.29 327.82,477.3 337.2,457.51" fill="none" id="register-admin" style="stroke:#181818;stroke-width:1;"/></g><!--link login to admin--><g class="link" data-entity-1="login" data-entity-2="admin" data-source-line="24" data-uid="lnk21" id="link_login_admin"><path d="M210.99,477.13 C233.68,471.67 267.04,462.62 294.79,451 C307.06,445.86 320.05,438.74 330.54,432.51" fill="none" id="login-admin" style="stroke:#181818;stroke-width:1;"/></g><!--link logout to admin--><g class="link" data-entity-1="logout" data-entity-2="admin" data-source-line="25" data-uid="lnk22" id="link_logout_admin"><path d="M220.48,419 C253.9,419 302.62,419 330.4,419" fill="none" id="logout-admin" style="stroke:#181818;stroke-width:1;"/></g><!--link manageCampground to admin--><g class="link" data-entity-1="manageCampground" data-entity-2="admin" data-source-line="26" data-uid="lnk23" id="link_manageCampground_admin"><path d="M253.15,216.12 C268.43,221.58 283.45,229.51 294.79,241 C331.95,278.66 344.95,340.52 349.5,380.5" fill="none" id="manageCampground-admin" style="stroke:#181818;stroke-width:1;"/></g><!--link manageAppt to admin--><g class="link" data-entity-1="manageAppt" data-entity-2="admin" data-source-line="27" data-uid="lnk24" id="link_manageAppt_admin"><path d="M249.94,291.14 C265.83,296.59 281.94,304.26 294.79,315 C315.26,332.11 329.64,358.52 338.86,380.45" fill="none" id="manageAppt-admin" style="stroke:#181818;stroke-width:1;"/></g><!--SRC=[TPB1ReCm38RlUGgBUny2JLelssNJTdV1pIo510N3XAQ-UvD0HA0TXyZ-Vl-Mus3eAY0EFEiVWPOzDSBEAcp4UQY-1l8Lu01Z25GKqMf3K9tT2tQzcU5p7eIwL9FPWk0FmgVY4SmD3i7rGPg3jhJqQx8lUNEQRT9DZ1v4DqfMGxYNlvb-8SwWlHjjEwJ2AS22xHtlQ54Jr7tls4f7TcdU9HoeF2tVsXNL6znxNd5odkN1TLtvVxup2TGJii4B6vOvcJH9oTHDgVWoS3fjwypWUF7CYyjbz6IMB2slK6HnwpazZfD_cxhjraV46AayM_Gi9BNTfQ7lbXzNUbJYz1kx0m00]--></g></svg>