<svg xmlns="http://www.w3.org/2000/svg" xmlns:xlink="http://www.w3.org/1999/xlink" contentStyleType="text/css" data-diagram-type="DESCRIPTION" height="720px" preserveAspectRatio="none" style="width:675px;height:720px;background:#FFFFFF;" version="1.1" viewBox="0 0 675 720" width="675px" zoomAndPan="magnify"><defs/><g><!--cluster GoCamplySystem--><g class="cluster" data-entity="GoCamplySystem" data-source-line="3" data-uid="ent0003" id="cluster_GoCamplySystem"><rect fill="none" height="707" rx="2.5" ry="2.5" style="stroke:#181818;stroke-width:1;" width="499.6" x="80.37" y="7"/><text fill="#000000" font-family="sans-serif" font-size="14" font-weight="bold" lengthAdjust="spacing" textLength="129.2949" x="265.5225" y="22.5352">GoCamply System</text></g><!--entity register--><g class="entity" data-entity="register" data-source-line="4" data-uid="ent0004" id="entity_register"><ellipse cx="330.1743" cy="682.999" fill="#F1F1F1" rx="42.1243" ry="14.659" style="stroke:#181818;stroke-width:0.5;"/><text fill="#000000" font-family="sans-serif" font-size="14" lengthAdjust="spacing" textLength="55.3301" x="302.5092" y="687.7431">Register</text></g><!--entity login--><g class="entity" data-entity="login" data-source-line="5" data-uid="ent0005" id="entity_login"><ellipse cx="330.1672" cy="618.999" fill="#F1F1F1" rx="29.5372" ry="14.659" style="stroke:#181818;stroke-width:0.5;"/><text fill="#000000" font-family="sans-serif" font-size="14" lengthAdjust="spacing" textLength="37.5293" x="311.4026" y="623.7431">Login</text></g><!--entity logout--><g class="entity" data-entity="logout" data-source-line="6" data-uid="ent0006" id="entity_logout"><ellipse cx="330.1691" cy="554.999" fill="#F1F1F1" rx="36.4591" ry="14.659" style="stroke:#181818;stroke-width:0.5;"/><text fill="#000000" font-family="sans-serif" font-size="14" lengthAdjust="spacing" textLength="47.3184" x="306.51" y="559.7431">Logout</text></g><!--entity viewCampgrounds--><g class="entity" data-entity="viewCampgrounds" data-source-line="7" data-uid="ent0007" id="entity_viewCampgrounds"><ellipse cx="330.1722" cy="487.0044" fill="#F1F1F1" rx="80.7722" ry="18.5544" style="stroke:#181818;stroke-width:0.5;"/><text fill="#000000" font-family="sans-serif" font-size="14" lengthAdjust="spacing" textLength="131.8994" x="264.2225" y="491.7486">View Campgrounds</text></g><!--entity manageAppt--><g class="entity" data-entity="manageAppt" data-source-line="8" data-uid="ent0008" id="entity_manageAppt"><ellipse cx="330.1712" cy="394.0002" fill="#F1F1F1" rx="183.5012" ry="39.1002" style="stroke:#181818;stroke-width:0.5;"/><text fill="#000000" font-family="sans-serif" font-size="14" lengthAdjust="spacing" textLength="351.4629" x="154.4398" y="398.7444">Manage Appointments (Get, Create, Update, Delete)</text></g><!--entity manageCampground--><g class="entity" data-entity="manageCampground" data-source-line="9" data-uid="ent0009" id="entity_manageCampground"><ellipse cx="330.1713" cy="281.0003" fill="#F1F1F1" rx="183.4513" ry="39.0903" style="stroke:#181818;stroke-width:0.5;"/><text fill="#000000" font-family="sans-serif" font-size="14" lengthAdjust="spacing" textLength="351.3604" x="154.4911" y="285.7444">Manage Campgrounds (Get, Create, Update, Delete)</text></g><!--entity favoriteCampground--><g class="entity" data-entity="favoriteCampground" data-source-line="10" data-uid="ent0010" id="entity_favoriteCampground"><ellipse cx="330.1707" cy="158.0001" fill="#F1F1F1" rx="233.8007" ry="49.1601" style="stroke:#181818;stroke-width:0.5;"/><text fill="#000000" font-family="sans-serif" font-size="14" lengthAdjust="spacing" textLength="454.1797" x="103.0808" y="162.7443">Manage Favorite Campgrounds (Favorite, Unfavorite, Get favorited)</text></g><!--entity getAvailability--><g class="entity" data-entity="getAvailability" data-source-line="11" data-uid="ent0011" id="entity_getAvailability"><ellipse cx="330.1698" cy="58" fill="#F1F1F1" rx="68.3998" ry="16.08" style="stroke:#181818;stroke-width:0.5;"/><text fill="#000000" font-family="sans-serif" font-size="14" lengthAdjust="spacing" textLength="101.5479" x="279.3959" y="62.7441">Get Availability</text></g><!--entity user--><g class="entity" data-entity="user" data-source-line="2" data-uid="ent0002" id="entity_user"><ellipse cx="21.1826" cy="457.26" fill="#F1F1F1" rx="8" ry="8" style="stroke:#181818;stroke-width:0.5;"/><path d="M21.1826,465.26 L21.1826,492.26 M8.1826,473.26 L34.1826,473.26 M21.1826,492.26 L8.1826,507.26 M21.1826,492.26 L34.1826,507.26" fill="none" style="stroke:#181818;stroke-width:0.5;"/><text fill="#000000" font-family="sans-serif" font-size="14" lengthAdjust="spacing" textLength="30.3652" x="6" y="522.2952">User</text></g><!--entity admin--><g class="entity" data-entity="admin" data-source-line="22" data-uid="ent0019" id="entity_admin"><ellipse cx="646.1082" cy="525.26" fill="#F1F1F1" rx="8" ry="8" style="stroke:#181818;stroke-width:0.5;"/><path d="M646.1082,533.26 L646.1082,560.26 M633.1082,541.26 L659.1082,541.26 M646.1082,560.26 L633.1082,575.26 M646.1082,560.26 L659.1082,575.26" fill="none" style="stroke:#181818;stroke-width:0.5;"/><text fill="#000000" font-family="sans-serif" font-size="14" lengthAdjust="spacing" textLength="44.2764" x="623.97" y="590.2952">Admin</text></g><!--link user to register--><g class="link" data-entity-1="user" data-entity-2="register" data-source-line="14" data-uid="lnk12" id="link_user_register"><path d="M22.65,525.6 C25.34,563.6 35.78,620.25 72.37,651 C134.79,703.46 237.78,697.62 292.44,689.78" fill="none" id="user-register" style="stroke:#181818;stroke-width:1;"/></g><!--link user to viewCampgrounds--><g class="link" data-entity-1="user" data-entity-2="viewCampgrounds" data-source-line="15" data-uid="lnk13" id="link_user_viewCampgrounds"><path d="M36.58,487 C73.92,487 176.06,487 249.13,487" fill="none" id="user-viewCampgrounds" style="stroke:#181818;stroke-width:1;"/></g><!--link user to manageAppt--><g class="link" data-entity-1="user" data-entity-2="manageAppt" data-source-line="16" data-uid="lnk14" id="link_user_manageAppt"><path d="M36.57,474.26 C46.11,466.45 59.25,456.86 72.37,451 C105.72,436.09 143.31,424.93 179.22,416.64" fill="none" id="user-manageAppt" style="stroke:#181818;stroke-width:1;"/></g><!--link user to favoriteCampground--><g class="link" data-entity-1="user" data-entity-2="favoriteCampground" data-source-line="17" data-uid="lnk15" id="link_user_favoriteCampground"><path d="M24.55,448.45 C29.34,383.44 42.38,255.94 72.37,224 C88.67,206.63 108.88,193.59 130.74,183.83" fill="none" id="user-favoriteCampground" style="stroke:#181818;stroke-width:1;"/></g><!--link user to login--><g class="link" data-entity-1="user" data-entity-2="login" data-source-line="18" data-uid="lnk16" id="link_user_login"><path d="M31.87,525.74 C39.31,547.27 51.9,572.55 72.37,587 C142.46,636.5 250.91,629.95 301.46,623.43" fill="none" id="user-login" style="stroke:#181818;stroke-width:1;"/></g><!--link user to logout--><g class="link" data-entity-1="user" data-entity-2="logout" data-source-line="19" data-uid="lnk17" id="link_user_logout"><path d="M36.82,500.53 C46.26,508.43 59.19,517.84 72.37,523 C147.04,552.23 242.43,556.26 293.34,556.02" fill="none" id="user-logout" style="stroke:#181818;stroke-width:1;"/></g><!--link user to getAvailability--><g class="link" data-entity-1="user" data-entity-2="getAvailability" data-source-line="20" data-uid="lnk18" id="link_user_getAvailability"><path d="M24.42,448.41 C30.27,353.79 47.33,116.07 72.37,91 C125.16,38.11 217.69,40 276.07,47.82" fill="none" id="user-getAvailability" style="stroke:#181818;stroke-width:1;"/></g><!--link register to admin--><g class="link" data-entity-1="register" data-entity-2="admin" data-source-line="23" data-uid="lnk20" id="link_register_admin"><path d="M369.97,688.13 C423.57,693.14 521.21,694.63 587.97,651 C608.58,637.52 622.81,613.79 631.91,593.3" fill="none" id="register-admin" style="stroke:#181818;stroke-width:1;"/></g><!--link login to admin--><g class="link" data-entity-1="login" data-entity-2="admin" data-source-line="24" data-uid="lnk21" id="link_login_admin"><path d="M360.07,618.98 C408.45,618.18 508.36,613.14 587.97,587 C600.39,582.92 613.18,576.05 623.5,569.72" fill="none" id="login-admin" style="stroke:#181818;stroke-width:1;"/></g><!--link logout to admin--><g class="link" data-entity-1="logout" data-entity-2="admin" data-source-line="25" data-uid="lnk22" id="link_logout_admin"><path d="M366.87,555 C432.6,555 570.87,555 623.84,555" fill="none" id="logout-admin" style="stroke:#181818;stroke-width:1;"/></g><!--link manageCampground to admin--><g class="link" data-entity-1="manageCampground" data-entity-2="admin" data-source-line="26" data-uid="lnk23" id="link_manageCampground_admin"><path d="M506.34,292.3 C536.54,301.29 565.41,315.36 587.97,337 C613.59,361.58 631.6,460.89 639.91,516.6" fill="none" id="manageCampground-admin" style="stroke:#181818;stroke-width:1;"/></g><!--link manageAppt to admin--><g class="link" data-entity-1="manageAppt" data-entity-2="admin" data-source-line="27" data-uid="lnk24" id="link_manageAppt_admin"><path d="M498.69,409.71 C530.5,418.41 561.93,431.48 587.97,451 C609.56,467.19 624.01,494.04 632.98,516.41" fill="none" id="manageAppt-admin" style="stroke:#181818;stroke-width:1;"/></g><!--SRC=[ZLBBJiCm4BpxArOzWTH-H5H4Bt2XAlSbsHfBZXqvcw08yU_OJfSy218v93ipdjbLrfQk3EmX6FtEK9b09Hll59Ri0-mkBOKTO0jTB5GIqMbBi3lv8zQD7U0yj4nrFYFSIC4dn4UbLpINs4RN2saJjJ4otC3oo9FNncNTfkgNw3iMDPPB-TNG1wGPTF2Tgzfyi8_aZ5iwdj6X9YYQnXl7DJbkuUv4l8TZ86JQmwMfylU1B37TvyWwkwA9DzDctVuTDdas8n-nzy7mAblO6EokFtNi28AgiOV0lxeaIz6ZiVXchE4XcpJnd5DVIgLR08V3j3eXrZzP-DcV4cfZ5f76ZSzGsh30zJXoHOkglbqOJ9MIsP9dP7Bi0iRS2QyNi5RIz1Ft3G00]--></g></svg>