<svg xmlns="http://www.w3.org/2000/svg" xmlns:xlink="http://www.w3.org/1999/xlink" contentStyleType="text/css" data-diagram-type="DESCRIPTION" height="713px" preserveAspectRatio="none" style="width:675px;height:713px;background:#FFFFFF;" version="1.1" viewBox="0 0 675 713" width="675px" zoomAndPan="magnify"><defs/><g><!--cluster GoCamplySystem--><g class="cluster" data-entity="GoCamplySystem" data-source-line="3" data-uid="ent0003" id="cluster_GoCamplySystem"><rect fill="none" height="700" rx="2.5" ry="2.5" style="stroke:#181818;stroke-width:1;" width="499.6" x="80.37" y="7"/><text fill="#000000" font-family="sans-serif" font-size="14" font-weight="bold" lengthAdjust="spacing" textLength="129.2949" x="265.5225" y="22.5352">GoCamply System</text></g><!--entity register--><g class="entity" data-entity="register" data-source-line="4" data-uid="ent0004" id="entity_register"><ellipse cx="330.1743" cy="675.999" fill="#F1F1F1" rx="42.1243" ry="14.659" style="stroke:#181818;stroke-width:0.5;"/><text fill="#000000" font-family="sans-serif" font-size="14" lengthAdjust="spacing" textLength="55.3301" x="302.5092" y="680.7431">Register</text></g><!--entity login--><g class="entity" data-entity="login" data-source-line="5" data-uid="ent0005" id="entity_login"><ellipse cx="330.1672" cy="611.999" fill="#F1F1F1" rx="29.5372" ry="14.659" style="stroke:#181818;stroke-width:0.5;"/><text fill="#000000" font-family="sans-serif" font-size="14" lengthAdjust="spacing" textLength="37.5293" x="311.4026" y="616.7431">Login</text></g><!--entity logout--><g class="entity" data-entity="logout" data-source-line="6" data-uid="ent0006" id="entity_logout"><ellipse cx="330.1691" cy="547.999" fill="#F1F1F1" rx="36.4591" ry="14.659" style="stroke:#181818;stroke-width:0.5;"/><text fill="#000000" font-family="sans-serif" font-size="14" lengthAdjust="spacing" textLength="47.3184" x="306.51" y="552.7431">Logout</text></g><!--entity viewCampgrounds--><g class="entity" data-entity="viewCampgrounds" data-source-line="7" data-uid="ent0007" id="entity_viewCampgrounds"><ellipse cx="330.1722" cy="480.0044" fill="#F1F1F1" rx="80.7722" ry="18.5544" style="stroke:#181818;stroke-width:0.5;"/><text fill="#000000" font-family="sans-serif" font-size="14" lengthAdjust="spacing" textLength="131.8994" x="264.2225" y="484.7486">View Campgrounds</text></g><!--entity manageAppt--><g class="entity" data-entity="manageAppt" data-source-line="8" data-uid="ent0008" id="entity_manageAppt"><ellipse cx="330.1679" cy="391.0036" fill="#F1F1F1" rx="167.1179" ry="35.8236" style="stroke:#181818;stroke-width:0.5;"/><text fill="#000000" font-family="sans-serif" font-size="14" lengthAdjust="spacing" textLength="317.7139" x="171.3109" y="395.7477">Manage Bookings (Get, Create, Update, Delete)</text></g><!--entity manageCampground--><g class="entity" data-entity="manageCampground" data-source-line="9" data-uid="ent0009" id="entity_manageCampground"><ellipse cx="330.1713" cy="281.0003" fill="#F1F1F1" rx="183.4513" ry="39.0903" style="stroke:#181818;stroke-width:0.5;"/><text fill="#000000" font-family="sans-serif" font-size="14" lengthAdjust="spacing" textLength="351.3604" x="154.4911" y="285.7444">Manage Campgrounds (Get, Create, Update, Delete)</text></g><!--entity favoriteCampground--><g class="entity" data-entity="favoriteCampground" data-source-line="10" data-uid="ent0010" id="entity_favoriteCampground"><ellipse cx="330.1707" cy="158.0001" fill="#F1F1F1" rx="233.8007" ry="49.1601" style="stroke:#181818;stroke-width:0.5;"/><text fill="#000000" font-family="sans-serif" font-size="14" lengthAdjust="spacing" textLength="454.1797" x="103.0808" y="162.7443">Manage Favorite Campgrounds (Favorite, Unfavorite, Get favorited)</text></g><!--entity getAvailability--><g class="entity" data-entity="getAvailability" data-source-line="11" data-uid="ent0011" id="entity_getAvailability"><ellipse cx="330.1698" cy="58" fill="#F1F1F1" rx="68.3998" ry="16.08" style="stroke:#181818;stroke-width:0.5;"/><text fill="#000000" font-family="sans-serif" font-size="14" lengthAdjust="spacing" textLength="101.5479" x="279.3959" y="62.7441">Get Availability</text></g><!--entity user--><g class="entity" data-entity="user" data-source-line="2" data-uid="ent0002" id="entity_user"><ellipse cx="21.1826" cy="450.26" fill="#F1F1F1" rx="8" ry="8" style="stroke:#181818;stroke-width:0.5;"/><path d="M21.1826,458.26 L21.1826,485.26 M8.1826,466.26 L34.1826,466.26 M21.1826,485.26 L8.1826,500.26 M21.1826,485.26 L34.1826,500.26" fill="none" style="stroke:#181818;stroke-width:0.5;"/><text fill="#000000" font-family="sans-serif" font-size="14" lengthAdjust="spacing" textLength="30.3652" x="6" y="515.2952">User</text></g><!--entity admin--><g class="entity" data-entity="admin" data-source-line="22" data-uid="ent0019" id="entity_admin"><ellipse cx="646.1082" cy="518.26" fill="#F1F1F1" rx="8" ry="8" style="stroke:#181818;stroke-width:0.5;"/><path d="M646.1082,526.26 L646.1082,553.26 M633.1082,534.26 L659.1082,534.26 M646.1082,553.26 L633.1082,568.26 M646.1082,553.26 L659.1082,568.26" fill="none" style="stroke:#181818;stroke-width:0.5;"/><text fill="#000000" font-family="sans-serif" font-size="14" lengthAdjust="spacing" textLength="44.2764" x="623.97" y="583.2952">Admin</text></g><!--link user to register--><g class="link" data-entity-1="user" data-entity-2="register" data-source-line="14" data-uid="lnk12" id="link_user_register"><path d="M22.65,518.6 C25.34,556.6 35.78,613.25 72.37,644 C134.79,696.46 237.78,690.62 292.44,682.78" fill="none" id="user-register" style="stroke:#181818;stroke-width:1;"/></g><!--link user to viewCampgrounds--><g class="link" data-entity-1="user" data-entity-2="viewCampgrounds" data-source-line="15" data-uid="lnk13" id="link_user_viewCampgrounds"><path d="M36.58,480 C73.92,480 176.06,480 249.13,480" fill="none" id="user-viewCampgrounds" style="stroke:#181818;stroke-width:1;"/></g><!--link user to manageAppt--><g class="link" data-entity-1="user" data-entity-2="manageAppt" data-source-line="16" data-uid="lnk14" id="link_user_manageAppt"><path d="M36.54,467.19 C46.07,459.36 59.2,449.77 72.37,444 C107.91,428.43 148.26,417.35 186.27,409.5" fill="none" id="user-manageAppt" style="stroke:#181818;stroke-width:1;"/></g><!--link user to favoriteCampground--><g class="link" data-entity-1="user" data-entity-2="favoriteCampground" data-source-line="17" data-uid="lnk15" id="link_user_favoriteCampground"><path d="M24.78,441.45 C29.85,377.86 43.22,254.88 72.37,224 C88.71,206.67 108.95,193.66 130.83,183.91" fill="none" id="user-favoriteCampground" style="stroke:#181818;stroke-width:1;"/></g><!--link user to login--><g class="link" data-entity-1="user" data-entity-2="login" data-source-line="18" data-uid="lnk16" id="link_user_login"><path d="M31.87,518.74 C39.31,540.27 51.9,565.55 72.37,580 C142.46,629.5 250.91,622.95 301.46,616.43" fill="none" id="user-login" style="stroke:#181818;stroke-width:1;"/></g><!--link user to logout--><g class="link" data-entity-1="user" data-entity-2="logout" data-source-line="19" data-uid="lnk17" id="link_user_logout"><path d="M36.82,493.53 C46.26,501.43 59.19,510.84 72.37,516 C147.04,545.23 242.43,549.26 293.34,549.02" fill="none" id="user-logout" style="stroke:#181818;stroke-width:1;"/></g><!--link user to getAvailability--><g class="link" data-entity-1="user" data-entity-2="getAvailability" data-source-line="20" data-uid="lnk18" id="link_user_getAvailability"><path d="M21.44,441.54 C20.61,353.18 23.78,139.56 72.37,91 C125.14,38.25 217.45,40.04 275.83,47.81" fill="none" id="user-getAvailability" style="stroke:#181818;stroke-width:1;"/></g><!--link register to admin--><g class="link" data-entity-1="register" data-entity-2="admin" data-source-line="23" data-uid="lnk20" id="link_register_admin"><path d="M369.97,681.13 C423.57,686.14 521.21,687.63 587.97,644 C608.58,630.52 622.81,606.79 631.91,586.3" fill="none" id="register-admin" style="stroke:#181818;stroke-width:1;"/></g><!--link login to admin--><g class="link" data-entity-1="login" data-entity-2="admin" data-source-line="24" data-uid="lnk21" id="link_login_admin"><path d="M360.07,611.98 C408.45,611.18 508.36,606.14 587.97,580 C600.39,575.92 613.18,569.05 623.5,562.72" fill="none" id="login-admin" style="stroke:#181818;stroke-width:1;"/></g><!--link logout to admin--><g class="link" data-entity-1="logout" data-entity-2="admin" data-source-line="25" data-uid="lnk22" id="link_logout_admin"><path d="M366.87,548 C432.6,548 570.87,548 623.84,548" fill="none" id="logout-admin" style="stroke:#181818;stroke-width:1;"/></g><!--link manageCampground to admin--><g class="link" data-entity-1="manageCampground" data-entity-2="admin" data-source-line="26" data-uid="lnk23" id="link_manageCampground_admin"><path d="M505.22,292.9 C535.79,301.98 565.08,316.17 587.97,338 C634.99,382.86 644.62,462.23 645.88,509.5" fill="none" id="manageCampground-admin" style="stroke:#181818;stroke-width:1;"/></g><!--link manageAppt to admin--><g class="link" data-entity-1="manageAppt" data-entity-2="admin" data-source-line="27" data-uid="lnk24" id="link_manageAppt_admin"><path d="M489.88,401.73 C524.63,409.84 559.49,422.98 587.97,444 C609.68,460.03 624.13,486.89 633.07,509.29" fill="none" id="manageAppt-admin" style="stroke:#181818;stroke-width:1;"/></g><!--SRC=[ZLBBJiCm4BpxArOvWTH-H2YY5xWKbRj9jiR2iIDx4nGX_XtRwP87GIA7P6V6CxlAsk25W1nuhTu8Qksn8ksia1Kv3yKve2z01kXY8P8ehJ88nT4TPDEQ0Pw7GDZaCyoD57n2V4HwHNCbGtITKEceZP7-2fP77ftIDkicLRz4rn6hiLpABne_8CsWlEji7VB1Ff8pRkbuabOgX3ldthLL0MwEI3iuU9I4EpYtTVxUeq72snpNP4VPjhIPDElqxx39indv87ldDQsocOt1zl9Jnux0g1vxCFohIxAKlTH6lcgZQSWcXJJdn9SGwGR0VZ-jZOdr3sP-zgUOsfY5fN7RCvIsot0z3b_FicwkbqMcIl1ioJCoENO1O-w4rmjOAsdwYVi6]--></g></svg>