<svg xmlns="http://www.w3.org/2000/svg" xmlns:xlink="http://www.w3.org/1999/xlink" contentStyleType="text/css" data-diagram-type="SEQUENCE" height="630px" preserveAspectRatio="none" style="width:471px;height:630px;background:#FFFFFF;" version="1.1" viewBox="0 0 471 630" width="471px" zoomAndPan="magnify"><title>Registration, Login, and Logout Flow</title><defs/><g><text fill="#000000" font-family="sans-serif" font-size="14" font-weight="bold" lengthAdjust="spacing" textLength="264.0791" x="102.9514" y="28.5352">Registration, Login, and Logout Flow</text><g><title>User</title><rect fill="#000000" fill-opacity="0.00000" height="430.3477" width="8" x="19.1826" y="118.9766"/><line style="stroke:#181818;stroke-width:0.5;stroke-dasharray:5,5;" x1="23" x2="23" y1="118.9766" y2="549.3242"/></g><g><title>Web App</title><rect fill="#000000" fill-opacity="0.00000" height="430.3477" width="8" x="210.1133" y="118.9766"/><line style="stroke:#181818;stroke-width:0.5;stroke-dasharray:5,5;" x1="213.9634" x2="213.9634" y1="118.9766" y2="549.3242"/></g><g><title>Auth Service</title><rect fill="#000000" fill-opacity="0.00000" height="430.3477" width="8" x="412.9648" y="118.9766"/><line style="stroke:#181818;stroke-width:0.5;stroke-dasharray:5,5;" x1="416.9478" x2="416.9478" y1="118.9766" y2="549.3242"/></g><g class="participant participant-head" data-participant="User"><text fill="#000000" font-family="sans-serif" font-size="14" lengthAdjust="spacing" textLength="30.3652" x="5" y="116.0234">User</text><ellipse cx="23.1826" cy="50.9883" fill="#E2E2F0" rx="8" ry="8" style="stroke:#181818;stroke-width:0.5;"/><path d="M23.1826,58.9883 L23.1826,85.9883 M10.1826,66.9883 L36.1826,66.9883 M23.1826,85.9883 L10.1826,100.9883 M23.1826,85.9883 L36.1826,100.9883" fill="none" style="stroke:#181818;stroke-width:0.5;"/></g><g class="participant participant-tail" data-participant="User"><text fill="#000000" font-family="sans-serif" font-size="14" lengthAdjust="spacing" textLength="30.3652" x="5" y="561.8594">User</text><ellipse cx="23.1826" cy="573.3125" fill="#E2E2F0" rx="8" ry="8" style="stroke:#181818;stroke-width:0.5;"/><path d="M23.1826,581.3125 L23.1826,608.3125 M10.1826,589.3125 L36.1826,589.3125 M23.1826,608.3125 L10.1826,623.3125 M23.1826,608.3125 L36.1826,623.3125" fill="none" style="stroke:#181818;stroke-width:0.5;"/></g><g class="participant participant-head" data-participant="App"><rect fill="#E2E2F0" height="30.4883" rx="2.5" ry="2.5" style="stroke:#181818;stroke-width:0.5;" width="74.2998" x="176.9634" y="87.4883"/><text fill="#000000" font-family="sans-serif" font-size="14" lengthAdjust="spacing" textLength="60.2998" x="183.9634" y="108.0234">Web App</text></g><g class="participant participant-tail" data-participant="App"><rect fill="#E2E2F0" height="30.4883" rx="2.5" ry="2.5" style="stroke:#181818;stroke-width:0.5;" width="74.2998" x="176.9634" y="548.3242"/><text fill="#000000" font-family="sans-serif" font-size="14" lengthAdjust="spacing" textLength="60.2998" x="183.9634" y="568.8594">Web App</text></g><g class="participant participant-head" data-participant="Auth"><rect fill="#E2E2F0" height="30.4883" rx="2.5" ry="2.5" style="stroke:#181818;stroke-width:0.5;" width="98.0342" x="367.9478" y="87.4883"/><text fill="#000000" font-family="sans-serif" font-size="14" lengthAdjust="spacing" textLength="84.0342" x="374.9478" y="108.0234">Auth Service</text></g><g class="participant participant-tail" data-participant="Auth"><rect fill="#E2E2F0" height="30.4883" rx="2.5" ry="2.5" style="stroke:#181818;stroke-width:0.5;" width="98.0342" x="367.9478" y="548.3242"/><text fill="#000000" font-family="sans-serif" font-size="14" lengthAdjust="spacing" textLength="84.0342" x="374.9478" y="568.8594">Auth Service</text></g><g class="message" data-participant-1="User" data-participant-2="App"><polygon fill="#181818" points="202.1133,146.2871,212.1133,150.2871,202.1133,154.2871,206.1133,150.2871" style="stroke:#181818;stroke-width:1;"/><line style="stroke:#181818;stroke-width:1;" x1="23.1826" x2="208.1133" y1="150.2871" y2="150.2871"/><text fill="#000000" font-family="sans-serif" font-size="13" lengthAdjust="spacing" textLength="145.6152" x="30.1826" y="145.5449">Open registration page</text></g><g class="message" data-participant-1="User" data-participant-2="App"><polygon fill="#181818" points="202.1133,175.5977,212.1133,179.5977,202.1133,183.5977,206.1133,179.5977" style="stroke:#181818;stroke-width:1;"/><line style="stroke:#181818;stroke-width:1;" x1="23.1826" x2="208.1133" y1="179.5977" y2="179.5977"/><text fill="#000000" font-family="sans-serif" font-size="13" lengthAdjust="spacing" textLength="166.9307" x="30.1826" y="174.8555">Submit registration details</text></g><g class="message" data-participant-1="App" data-participant-2="Auth"><polygon fill="#181818" points="404.9648,204.9082,414.9648,208.9082,404.9648,212.9082,408.9648,208.9082" style="stroke:#181818;stroke-width:1;"/><line style="stroke:#181818;stroke-width:1;" x1="214.1133" x2="410.9648" y1="208.9082" y2="208.9082"/><text fill="#000000" font-family="sans-serif" font-size="13" lengthAdjust="spacing" textLength="125.8042" x="221.1133" y="204.166">Create user account</text></g><g class="message" data-participant-1="Auth" data-participant-2="App"><polygon fill="#181818" points="225.1133,234.2188,215.1133,238.2188,225.1133,242.2188,221.1133,238.2188" style="stroke:#181818;stroke-width:1;"/><line style="stroke:#181818;stroke-width:1;stroke-dasharray:2,2;" x1="219.1133" x2="415.9648" y1="238.2188" y2="238.2188"/><text fill="#000000" font-family="sans-serif" font-size="13" lengthAdjust="spacing" textLength="102.0703" x="231.1133" y="233.4766">Account created</text></g><g class="message" data-participant-1="App" data-participant-2="User"><polygon fill="#181818" points="34.1826,263.5293,24.1826,267.5293,34.1826,271.5293,30.1826,267.5293" style="stroke:#181818;stroke-width:1;"/><line style="stroke:#181818;stroke-width:1;stroke-dasharray:2,2;" x1="28.1826" x2="213.1133" y1="267.5293" y2="267.5293"/><text fill="#000000" font-family="sans-serif" font-size="13" lengthAdjust="spacing" textLength="145.2153" x="40.1826" y="262.7871">Registration successful</text></g><g class="message" data-participant-1="User" data-participant-2="App"><polygon fill="#181818" points="202.1133,292.8398,212.1133,296.8398,202.1133,300.8398,206.1133,296.8398" style="stroke:#181818;stroke-width:1;"/><line style="stroke:#181818;stroke-width:1;" x1="23.1826" x2="208.1133" y1="296.8398" y2="296.8398"/><text fill="#000000" font-family="sans-serif" font-size="13" lengthAdjust="spacing" textLength="104.2031" x="30.1826" y="292.0977">Open login page</text></g><g class="message" data-participant-1="User" data-participant-2="App"><polygon fill="#181818" points="202.1133,322.1504,212.1133,326.1504,202.1133,330.1504,206.1133,326.1504" style="stroke:#181818;stroke-width:1;"/><line style="stroke:#181818;stroke-width:1;" x1="23.1826" x2="208.1133" y1="326.1504" y2="326.1504"/><text fill="#000000" font-family="sans-serif" font-size="13" lengthAdjust="spacing" textLength="117.019" x="30.1826" y="321.4082">Submit credentials</text></g><g class="message" data-participant-1="App" data-participant-2="Auth"><polygon fill="#181818" points="404.9648,351.4609,414.9648,355.4609,404.9648,359.4609,408.9648,355.4609" style="stroke:#181818;stroke-width:1;"/><line style="stroke:#181818;stroke-width:1;" x1="214.1133" x2="410.9648" y1="355.4609" y2="355.4609"/><text fill="#000000" font-family="sans-serif" font-size="13" lengthAdjust="spacing" textLength="109.4019" x="221.1133" y="350.7188">Verify credentials</text></g><g class="message" data-participant-1="Auth" data-participant-2="App"><polygon fill="#181818" points="225.1133,380.7715,215.1133,384.7715,225.1133,388.7715,221.1133,384.7715" style="stroke:#181818;stroke-width:1;"/><line style="stroke:#181818;stroke-width:1;stroke-dasharray:2,2;" x1="219.1133" x2="415.9648" y1="384.7715" y2="384.7715"/><text fill="#000000" font-family="sans-serif" font-size="13" lengthAdjust="spacing" textLength="178.8516" x="231.1133" y="380.0293">Return authentication status</text></g><g class="message" data-participant-1="App" data-participant-2="User"><polygon fill="#181818" points="34.1826,410.082,24.1826,414.082,34.1826,418.082,30.1826,414.082" style="stroke:#181818;stroke-width:1;"/><line style="stroke:#181818;stroke-width:1;stroke-dasharray:2,2;" x1="28.1826" x2="213.1133" y1="414.082" y2="414.082"/><text fill="#000000" font-family="sans-serif" font-size="13" lengthAdjust="spacing" textLength="104.0762" x="40.1826" y="409.3398">Login successful</text></g><g class="message" data-participant-1="User" data-participant-2="App"><polygon fill="#181818" points="202.1133,439.3926,212.1133,443.3926,202.1133,447.3926,206.1133,443.3926" style="stroke:#181818;stroke-width:1;"/><line style="stroke:#181818;stroke-width:1;" x1="23.1826" x2="208.1133" y1="443.3926" y2="443.3926"/><text fill="#000000" font-family="sans-serif" font-size="13" lengthAdjust="spacing" textLength="75.645" x="30.1826" y="438.6504">Click logout</text></g><g class="message" data-participant-1="App" data-participant-2="Auth"><polygon fill="#181818" points="404.9648,468.7031,414.9648,472.7031,404.9648,476.7031,408.9648,472.7031" style="stroke:#181818;stroke-width:1;"/><line style="stroke:#181818;stroke-width:1;" x1="214.1133" x2="410.9648" y1="472.7031" y2="472.7031"/><text fill="#000000" font-family="sans-serif" font-size="13" lengthAdjust="spacing" textLength="111.7505" x="221.1133" y="467.9609">Invalidate session</text></g><g class="message" data-participant-1="Auth" data-participant-2="App"><polygon fill="#181818" points="225.1133,498.0137,215.1133,502.0137,225.1133,506.0137,221.1133,502.0137" style="stroke:#181818;stroke-width:1;"/><line style="stroke:#181818;stroke-width:1;stroke-dasharray:2,2;" x1="219.1133" x2="415.9648" y1="502.0137" y2="502.0137"/><text fill="#000000" font-family="sans-serif" font-size="13" lengthAdjust="spacing" textLength="120.3198" x="231.1133" y="497.2715">Session invalidated</text></g><g class="message" data-participant-1="App" data-participant-2="User"><polygon fill="#181818" points="34.1826,527.3242,24.1826,531.3242,34.1826,535.3242,30.1826,531.3242" style="stroke:#181818;stroke-width:1;"/><line style="stroke:#181818;stroke-width:1;stroke-dasharray:2,2;" x1="28.1826" x2="213.1133" y1="531.3242" y2="531.3242"/><text fill="#000000" font-family="sans-serif" font-size="13" lengthAdjust="spacing" textLength="113.166" x="40.1826" y="526.582">Logout successful</text></g><!--SRC=[TPB1IWGn343l_OgmP_S7vY0C2u8W2BkevsoR7OErBMswuj_RpAXiH_VKahmaZxJ2uWdsD76HZC8ntC13dBWT69nUOnMuy_736BGICpmLoYPX5hQSC0XiNkW8OqeRmA9ddnohlCA1yfajBKGB6ADTO7kh_02FYGBa2mT8E57F7EhndQMd70coBwO1CzSw3x3BX49GjHYjZJM8cIMsFwt69Gfs9jrItf8wR-Xs0QLQIwMSglzFsUkYhhks_ew2CAuLdodpwRFFTuPxafe3O0igOBzb1AMMbUxyMDSzTvxjcugsP-mbxiCPFJlTLMcbRS1Auh14WNz1ztUs_ewBuLy0]--></g></svg>