<svg xmlns="http://www.w3.org/2000/svg" xmlns:xlink="http://www.w3.org/1999/xlink" contentStyleType="text/css" data-diagram-type="SEQUENCE" height="571px" preserveAspectRatio="none" style="width:624px;height:571px;background:#FFFFFF;" version="1.1" viewBox="0 0 624 571" width="624px" zoomAndPan="magnify"><title>Campground Features Flow</title><defs/><g><text fill="#000000" font-family="sans-serif" font-size="14" font-weight="bold" lengthAdjust="spacing" textLength="197.9277" x="212.3845" y="28.5352">Campground Features Flow</text><g><title>User</title><rect fill="#000000" fill-opacity="0.00000" height="371.7266" width="8" x="19.1826" y="118.9766"/><line style="stroke:#181818;stroke-width:0.5;stroke-dasharray:5,5;" x1="23" x2="23" y1="118.9766" y2="490.7031"/></g><g><title>Web App</title><rect fill="#000000" fill-opacity="0.00000" height="371.7266" width="8" x="228.3628" y="118.9766"/><line style="stroke:#181818;stroke-width:0.5;stroke-dasharray:5,5;" x1="232.2129" x2="232.2129" y1="118.9766" y2="490.7031"/></g><g><title>Campground Service</title><rect fill="#000000" fill-opacity="0.00000" height="371.7266" width="8" x="407.8867" y="118.9766"/><line style="stroke:#181818;stroke-width:0.5;stroke-dasharray:5,5;" x1="411.7329" x2="411.7329" y1="118.9766" y2="490.7031"/></g><g><title>Favorite Service</title><rect fill="#000000" fill-opacity="0.00000" height="371.7266" width="8" x="554.8687" y="118.9766"/><line style="stroke:#181818;stroke-width:0.5;stroke-dasharray:5,5;" x1="558.0405" x2="558.0405" y1="118.9766" y2="490.7031"/></g><g class="participant participant-head" data-participant="User"><text fill="#000000" font-family="sans-serif" font-size="14" lengthAdjust="spacing" textLength="30.3652" x="5" y="116.0234">User</text><ellipse cx="23.1826" cy="50.9883" fill="#E2E2F0" rx="8" ry="8" style="stroke:#181818;stroke-width:0.5;"/><path d="M23.1826,58.9883 L23.1826,85.9883 M10.1826,66.9883 L36.1826,66.9883 M23.1826,85.9883 L10.1826,100.9883 M23.1826,85.9883 L36.1826,100.9883" fill="none" style="stroke:#181818;stroke-width:0.5;"/></g><g class="participant participant-tail" data-participant="User"><text fill="#000000" font-family="sans-serif" font-size="14" lengthAdjust="spacing" textLength="30.3652" x="5" y="503.2383">User</text><ellipse cx="23.1826" cy="514.6914" fill="#E2E2F0" rx="8" ry="8" style="stroke:#181818;stroke-width:0.5;"/><path d="M23.1826,522.6914 L23.1826,549.6914 M10.1826,530.6914 L36.1826,530.6914 M23.1826,549.6914 L10.1826,564.6914 M23.1826,549.6914 L36.1826,564.6914" fill="none" style="stroke:#181818;stroke-width:0.5;"/></g><g class="participant participant-head" data-participant="App"><rect fill="#E2E2F0" height="30.4883" rx="2.5" ry="2.5" style="stroke:#181818;stroke-width:0.5;" width="74.2998" x="195.2129" y="87.4883"/><text fill="#000000" font-family="sans-serif" font-size="14" lengthAdjust="spacing" textLength="60.2998" x="202.2129" y="108.0234">Web App</text></g><g class="participant participant-tail" data-participant="App"><rect fill="#E2E2F0" height="30.4883" rx="2.5" ry="2.5" style="stroke:#181818;stroke-width:0.5;" width="74.2998" x="195.2129" y="489.7031"/><text fill="#000000" font-family="sans-serif" font-size="14" lengthAdjust="spacing" textLength="60.2998" x="202.2129" y="510.2383">Web App</text></g><g class="participant participant-head" data-participant="Camp"><rect fill="#E2E2F0" height="30.4883" rx="2.5" ry="2.5" style="stroke:#181818;stroke-width:0.5;" width="154.3076" x="334.7329" y="87.4883"/><text fill="#000000" font-family="sans-serif" font-size="14" lengthAdjust="spacing" textLength="140.3076" x="341.7329" y="108.0234">Campground Service</text></g><g class="participant participant-tail" data-participant="Camp"><rect fill="#E2E2F0" height="30.4883" rx="2.5" ry="2.5" style="stroke:#181818;stroke-width:0.5;" width="154.3076" x="334.7329" y="489.7031"/><text fill="#000000" font-family="sans-serif" font-size="14" lengthAdjust="spacing" textLength="140.3076" x="341.7329" y="510.2383">Campground Service</text></g><g class="participant participant-head" data-participant="Fav"><rect fill="#E2E2F0" height="30.4883" rx="2.5" ry="2.5" style="stroke:#181818;stroke-width:0.5;" width="119.6563" x="499.0405" y="87.4883"/><text fill="#000000" font-family="sans-serif" font-size="14" lengthAdjust="spacing" textLength="105.6563" x="506.0405" y="108.0234">Favorite Service</text></g><g class="participant participant-tail" data-participant="Fav"><rect fill="#E2E2F0" height="30.4883" rx="2.5" ry="2.5" style="stroke:#181818;stroke-width:0.5;" width="119.6563" x="499.0405" y="489.7031"/><text fill="#000000" font-family="sans-serif" font-size="14" lengthAdjust="spacing" textLength="105.6563" x="506.0405" y="510.2383">Favorite Service</text></g><g class="message" data-participant-1="User" data-participant-2="App"><polygon fill="#181818" points="220.3628,146.2871,230.3628,150.2871,220.3628,154.2871,224.3628,150.2871" style="stroke:#181818;stroke-width:1;"/><line style="stroke:#181818;stroke-width:1;" x1="23.1826" x2="226.3628" y1="150.2871" y2="150.2871"/><text fill="#000000" font-family="sans-serif" font-size="13" lengthAdjust="spacing" textLength="159.0405" x="30.1826" y="145.5449">Open campgrounds page</text></g><g class="message" data-participant-1="App" data-participant-2="Camp"><polygon fill="#181818" points="399.8867,175.5977,409.8867,179.5977,399.8867,183.5977,403.8867,179.5977" style="stroke:#181818;stroke-width:1;"/><line style="stroke:#181818;stroke-width:1;" x1="232.3628" x2="405.8867" y1="179.5977" y2="179.5977"/><text fill="#000000" font-family="sans-serif" font-size="13" lengthAdjust="spacing" textLength="147.5449" x="239.3628" y="174.8555">Fetch campgrounds list</text></g><g class="message" data-participant-1="Camp" data-participant-2="App"><polygon fill="#181818" points="243.3628,204.9082,233.3628,208.9082,243.3628,212.9082,239.3628,208.9082" style="stroke:#181818;stroke-width:1;"/><line style="stroke:#181818;stroke-width:1;stroke-dasharray:2,2;" x1="237.3628" x2="410.8867" y1="208.9082" y2="208.9082"/><text fill="#000000" font-family="sans-serif" font-size="13" lengthAdjust="spacing" textLength="155.5239" x="249.3628" y="204.166">Return campgrounds list</text></g><g class="message" data-participant-1="App" data-participant-2="User"><polygon fill="#181818" points="34.1826,234.2188,24.1826,238.2188,34.1826,242.2188,30.1826,238.2188" style="stroke:#181818;stroke-width:1;"/><line style="stroke:#181818;stroke-width:1;stroke-dasharray:2,2;" x1="28.1826" x2="231.3628" y1="238.2188" y2="238.2188"/><text fill="#000000" font-family="sans-serif" font-size="13" lengthAdjust="spacing" textLength="136.6587" x="40.1826" y="233.4766">Display campgrounds</text></g><g class="message" data-participant-1="User" data-participant-2="App"><polygon fill="#181818" points="220.3628,263.5293,230.3628,267.5293,220.3628,271.5293,224.3628,267.5293" style="stroke:#181818;stroke-width:1;"/><line style="stroke:#181818;stroke-width:1;" x1="23.1826" x2="226.3628" y1="267.5293" y2="267.5293"/><text fill="#000000" font-family="sans-serif" font-size="13" lengthAdjust="spacing" textLength="185.1802" x="30.1826" y="262.7871">Mark campground as favorite</text></g><g class="message" data-participant-1="App" data-participant-2="Fav"><polygon fill="#181818" points="546.8687,292.8398,556.8687,296.8398,546.8687,300.8398,550.8687,296.8398" style="stroke:#181818;stroke-width:1;"/><line style="stroke:#181818;stroke-width:1;" x1="232.3628" x2="552.8687" y1="296.8398" y2="296.8398"/><text fill="#000000" font-family="sans-serif" font-size="13" lengthAdjust="spacing" textLength="100.8896" x="239.3628" y="292.0977">Add to favorites</text></g><g class="message" data-participant-1="Fav" data-participant-2="App"><polygon fill="#181818" points="243.3628,322.1504,233.3628,326.1504,243.3628,330.1504,239.3628,326.1504" style="stroke:#181818;stroke-width:1;"/><line style="stroke:#181818;stroke-width:1;stroke-dasharray:2,2;" x1="237.3628" x2="557.8687" y1="326.1504" y2="326.1504"/><text fill="#000000" font-family="sans-serif" font-size="13" lengthAdjust="spacing" textLength="93.1265" x="249.3628" y="321.4082">Favorite added</text></g><g class="message" data-participant-1="App" data-participant-2="User"><polygon fill="#181818" points="34.1826,351.4609,24.1826,355.4609,34.1826,359.4609,30.1826,355.4609" style="stroke:#181818;stroke-width:1;"/><line style="stroke:#181818;stroke-width:1;stroke-dasharray:2,2;" x1="28.1826" x2="231.3628" y1="355.4609" y2="355.4609"/><text fill="#000000" font-family="sans-serif" font-size="13" lengthAdjust="spacing" textLength="82.894" x="40.1826" y="350.7188">Confirmation</text></g><g class="message" data-participant-1="User" data-participant-2="App"><polygon fill="#181818" points="220.3628,380.7715,230.3628,384.7715,220.3628,388.7715,224.3628,384.7715" style="stroke:#181818;stroke-width:1;"/><line style="stroke:#181818;stroke-width:1;" x1="23.1826" x2="226.3628" y1="384.7715" y2="384.7715"/><text fill="#000000" font-family="sans-serif" font-size="13" lengthAdjust="spacing" textLength="109.5669" x="30.1826" y="380.0293">Check availability</text></g><g class="message" data-participant-1="App" data-participant-2="Camp"><polygon fill="#181818" points="399.8867,410.082,409.8867,414.082,399.8867,418.082,403.8867,414.082" style="stroke:#181818;stroke-width:1;"/><line style="stroke:#181818;stroke-width:1;" x1="232.3628" x2="405.8867" y1="414.082" y2="414.082"/><text fill="#000000" font-family="sans-serif" font-size="13" lengthAdjust="spacing" textLength="138.2266" x="239.3628" y="409.3398">Get availability details</text></g><g class="message" data-participant-1="Camp" data-participant-2="App"><polygon fill="#181818" points="243.3628,439.3926,233.3628,443.3926,243.3628,447.3926,239.3628,443.3926" style="stroke:#181818;stroke-width:1;"/><line style="stroke:#181818;stroke-width:1;stroke-dasharray:2,2;" x1="237.3628" x2="410.8867" y1="443.3926" y2="443.3926"/><text fill="#000000" font-family="sans-serif" font-size="13" lengthAdjust="spacing" textLength="112.7852" x="249.3628" y="438.6504">Return availability</text></g><g class="message" data-participant-1="App" data-participant-2="User"><polygon fill="#181818" points="34.1826,468.7031,24.1826,472.7031,34.1826,476.7031,30.1826,472.7031" style="stroke:#181818;stroke-width:1;"/><line style="stroke:#181818;stroke-width:1;stroke-dasharray:2,2;" x1="28.1826" x2="231.3628" y1="472.7031" y2="472.7031"/><text fill="#000000" font-family="sans-serif" font-size="13" lengthAdjust="spacing" textLength="117.0381" x="40.1826" y="467.9609">Display availability</text></g><!--SRC=[RP31QWCn34Jl_WgHUtvW3uMmPNigXPRIis8hYOXZ6rdPah-l7PhjUhSdOyrZD2DbzGGzNj9HuZKu60ZrAfHXyF7R6BGQ1JupYKaeofOJ1eND5-rXbz86CDUt5MTs7oGZMxfpTTo20uvHMAd1oj2OkX6sJzMxWxT40UnacY7XaKoHAb5Tkn9RxQbXF6SrLOJjm-UTIhMmfkvE1QfBEtZcd3pUvjWYpolAUIRNq8VV9ezKfKG7E-T0uwHbKwP_QQRow1ovHOW-XWFB1PLZM6plJsJFW2EonprxrbjxYXVIHWL7Mdxv_sEiVLQ7Q90V]--></g></svg>