<svg xmlns="http://www.w3.org/2000/svg" xmlns:xlink="http://www.w3.org/1999/xlink" contentStyleType="text/css" data-diagram-type="SEQUENCE" height="890px" preserveAspectRatio="none" style="width:1590px;height:890px;background:#FFFFFF;" version="1.1" viewBox="0 0 1590 890" width="1590px" zoomAndPan="magnify"><title>Delete Booking (DELETE)</title><defs/><g><text fill="#000000" font-family="sans-serif" font-size="14" font-weight="bold" lengthAdjust="spacing" textLength="178.2129" x="702.0691" y="41.3125">Delete Booking (DELETE)</text><g><title>..javaScript..</title><rect fill="#FFFFFF" height="616.9004" style="stroke:#181818;stroke-width:1;" width="10" x="268.5913" y="165.5527"/></g><g><title>..router..</title><rect fill="#FFFFFF" height="587.5898" style="stroke:#181818;stroke-width:1;" width="10" x="540.9604" y="194.8633"/></g><g><title>..middleware..</title><rect fill="#FFFFFF" height="35.3105" style="stroke:#181818;stroke-width:1;" width="10" x="645.2246" y="224.1738"/></g><g><title>..middleware..</title><rect fill="#FFFFFF" height="35.3105" style="stroke:#181818;stroke-width:1;" width="10" x="843.7178" y="325.1055"/></g><g><title>..controllers..</title><rect fill="#FFFFFF" height="356.416" style="stroke:#181818;stroke-width:1;" width="10" x="998.5898" y="426.0371"/></g><g><title>..controllers..</title><rect fill="#FFFFFF" height="122.2422" style="stroke:#181818;stroke-width:1;" width="10" x="1003.5898" y="580.5898"/></g><g><title>..model..</title><rect fill="#FFFFFF" height="87.9316" style="stroke:#181818;stroke-width:1;" width="10" x="1407.0825" y="455.3477"/></g><g><title>..model..</title><rect fill="#FFFFFF" height="167.5527" style="stroke:#181818;stroke-width:1;" width="10" x="1407.0825" y="614.9004"/></g><g><title>..MongoDB..</title><rect fill="#FFFFFF" height="29.3105" style="stroke:#181818;stroke-width:1;" width="10" x="1530.4087" y="484.6582"/></g><g><title>..MongoDB..</title><rect fill="#FFFFFF" height="29.3105" style="stroke:#181818;stroke-width:1;" width="10" x="1530.4087" y="644.2109"/></g><g><title>Client</title><rect fill="#000000" fill-opacity="0.00000" height="657.2109" width="8" x="27.7524" y="134.2422"/><line style="stroke:#181818;stroke-width:0.5;stroke-dasharray:5,5;" x1="31" x2="31" y1="134.2422" y2="791.4531"/></g><g><title>..javaScript..</title><rect fill="#000000" fill-opacity="0.00000" height="657.2109" width="8" x="269.5913" y="134.2422"/><line style="stroke:#181818;stroke-width:0.5;stroke-dasharray:5,5;" x1="273.5054" x2="273.5054" y1="134.2422" y2="791.4531"/></g><g><title>..router..</title><rect fill="#000000" fill-opacity="0.00000" height="657.2109" width="8" x="541.9604" y="134.2422"/><line style="stroke:#181818;stroke-width:0.5;stroke-dasharray:5,5;" x1="545.3481" x2="545.3481" y1="134.2422" y2="791.4531"/></g><g><title>..middleware..</title><rect fill="#000000" fill-opacity="0.00000" height="657.2109" width="8" x="646.2246" y="134.2422"/><line style="stroke:#181818;stroke-width:0.5;stroke-dasharray:5,5;" x1="649.5728" x2="649.5728" y1="134.2422" y2="791.4531"/></g><g><title>..middleware..</title><rect fill="#000000" fill-opacity="0.00000" height="657.2109" width="8" x="844.7178" y="134.2422"/><line style="stroke:#181818;stroke-width:0.5;stroke-dasharray:5,5;" x1="848.1997" x2="848.1997" y1="134.2422" y2="791.4531"/></g><g><title>..controllers..</title><rect fill="#000000" fill-opacity="0.00000" height="657.2109" width="8" x="999.5898" y="134.2422"/><line style="stroke:#181818;stroke-width:0.5;stroke-dasharray:5,5;" x1="1002.8638" x2="1002.8638" y1="134.2422" y2="791.4531"/></g><g><title>..model..</title><rect fill="#000000" fill-opacity="0.00000" height="657.2109" width="8" x="1408.0825" y="134.2422"/><line style="stroke:#181818;stroke-width:0.5;stroke-dasharray:5,5;" x1="1411.418" x2="1411.418" y1="134.2422" y2="791.4531"/></g><g><title>..MongoDB..</title><rect fill="#000000" fill-opacity="0.00000" height="657.2109" width="8" x="1531.4087" y="134.2422"/><line style="stroke:#181818;stroke-width:0.5;stroke-dasharray:5,5;" x1="1534.4663" x2="1534.4663" y1="134.2422" y2="791.4531"/></g><g class="participant participant-head" data-participant="client"><rect fill="#E2E2F0" height="30.4883" rx="2.5" ry="2.5" style="stroke:#181818;stroke-width:0.5;" width="53.5049" x="5" y="102.7539"/><text fill="#000000" font-family="sans-serif" font-size="14" lengthAdjust="spacing" textLength="39.5049" x="12" y="123.2891">Client</text></g><g class="participant participant-tail" data-participant="client"><rect fill="#E2E2F0" height="30.4883" rx="2.5" ry="2.5" style="stroke:#181818;stroke-width:0.5;" width="53.5049" x="5" y="790.4531"/><text fill="#000000" font-family="sans-serif" font-size="14" lengthAdjust="spacing" textLength="39.5049" x="12" y="810.9883">Client</text></g><g class="participant participant-head" data-participant="server"><rect fill="#E2E2F0" height="46.9766" rx="2.5" ry="2.5" style="stroke:#181818;stroke-width:0.5;" width="94.1719" x="226.5054" y="86.2656"/><text fill="#000000" font-family="sans-serif" font-size="14" lengthAdjust="spacing" textLength="80.1719" x="233.5054" y="106.8008">&#171;javaScript&#187;</text><text fill="#000000" font-family="sans-serif" font-size="14" lengthAdjust="spacing" textLength="45.8691" x="250.6567" y="123.2891">:server</text></g><g class="participant participant-tail" data-participant="server"><rect fill="#E2E2F0" height="46.9766" rx="2.5" ry="2.5" style="stroke:#181818;stroke-width:0.5;" width="94.1719" x="226.5054" y="790.4531"/><text fill="#000000" font-family="sans-serif" font-size="14" lengthAdjust="spacing" textLength="80.1719" x="233.5054" y="810.9883">&#171;javaScript&#187;</text><text fill="#000000" font-family="sans-serif" font-size="14" lengthAdjust="spacing" textLength="45.8691" x="250.6567" y="827.4766">:server</text></g><g class="participant participant-head" data-participant="routerBookings"><rect fill="#E2E2F0" height="46.9766" rx="2.5" ry="2.5" style="stroke:#181818;stroke-width:0.5;" width="81.2246" x="505.3481" y="86.2656"/><text fill="#000000" font-family="sans-serif" font-size="14" lengthAdjust="spacing" textLength="56.4512" x="517.7349" y="106.8008">&#171;router&#187;</text><text fill="#000000" font-family="sans-serif" font-size="14" lengthAdjust="spacing" textLength="67.2246" x="512.3481" y="123.2891">:bookings</text></g><g class="participant participant-tail" data-participant="routerBookings"><rect fill="#E2E2F0" height="46.9766" rx="2.5" ry="2.5" style="stroke:#181818;stroke-width:0.5;" width="81.2246" x="505.3481" y="790.4531"/><text fill="#000000" font-family="sans-serif" font-size="14" lengthAdjust="spacing" textLength="56.4512" x="517.7349" y="810.9883">&#171;router&#187;</text><text fill="#000000" font-family="sans-serif" font-size="14" lengthAdjust="spacing" textLength="67.2246" x="512.3481" y="827.4766">:bookings</text></g><g class="participant participant-head" data-participant="mwProtect"><rect fill="#E2E2F0" height="46.9766" rx="2.5" ry="2.5" style="stroke:#181818;stroke-width:0.5;" width="107.3037" x="596.5728" y="86.2656"/><text fill="#000000" font-family="sans-serif" font-size="14" lengthAdjust="spacing" textLength="93.3037" x="603.5728" y="106.8008">&#171;middleware&#187;</text><text fill="#000000" font-family="sans-serif" font-size="14" lengthAdjust="spacing" textLength="53.0127" x="623.7183" y="123.2891">:protect</text></g><g class="participant participant-tail" data-participant="mwProtect"><rect fill="#E2E2F0" height="46.9766" rx="2.5" ry="2.5" style="stroke:#181818;stroke-width:0.5;" width="107.3037" x="596.5728" y="790.4531"/><text fill="#000000" font-family="sans-serif" font-size="14" lengthAdjust="spacing" textLength="93.3037" x="603.5728" y="810.9883">&#171;middleware&#187;</text><text fill="#000000" font-family="sans-serif" font-size="14" lengthAdjust="spacing" textLength="53.0127" x="623.7183" y="827.4766">:protect</text></g><g class="participant participant-head" data-participant="mwAuthorize"><rect fill="#E2E2F0" height="46.9766" rx="2.5" ry="2.5" style="stroke:#181818;stroke-width:0.5;" width="181.0361" x="758.1997" y="86.2656"/><text fill="#000000" font-family="sans-serif" font-size="14" lengthAdjust="spacing" textLength="93.3037" x="802.0659" y="106.8008">&#171;middleware&#187;</text><text fill="#000000" font-family="sans-serif" font-size="14" lengthAdjust="spacing" textLength="167.0361" x="765.1997" y="123.2891">:authorize('admin','user')</text></g><g class="participant participant-tail" data-participant="mwAuthorize"><rect fill="#E2E2F0" height="46.9766" rx="2.5" ry="2.5" style="stroke:#181818;stroke-width:0.5;" width="181.0361" x="758.1997" y="790.4531"/><text fill="#000000" font-family="sans-serif" font-size="14" lengthAdjust="spacing" textLength="93.3037" x="802.0659" y="810.9883">&#171;middleware&#187;</text><text fill="#000000" font-family="sans-serif" font-size="14" lengthAdjust="spacing" textLength="167.0361" x="765.1997" y="827.4766">:authorize('admin','user')</text></g><g class="participant participant-head" data-participant="controllersBookings"><rect fill="#E2E2F0" height="46.9766" rx="2.5" ry="2.5" style="stroke:#181818;stroke-width:0.5;" width="101.4521" x="952.8638" y="86.2656"/><text fill="#000000" font-family="sans-serif" font-size="14" lengthAdjust="spacing" textLength="87.4521" x="959.8638" y="106.8008">&#171;controllers&#187;</text><text fill="#000000" font-family="sans-serif" font-size="14" lengthAdjust="spacing" textLength="67.2246" x="969.9775" y="123.2891">:bookings</text></g><g class="participant participant-tail" data-participant="controllersBookings"><rect fill="#E2E2F0" height="46.9766" rx="2.5" ry="2.5" style="stroke:#181818;stroke-width:0.5;" width="101.4521" x="952.8638" y="790.4531"/><text fill="#000000" font-family="sans-serif" font-size="14" lengthAdjust="spacing" textLength="87.4521" x="959.8638" y="810.9883">&#171;controllers&#187;</text><text fill="#000000" font-family="sans-serif" font-size="14" lengthAdjust="spacing" textLength="67.2246" x="969.9775" y="827.4766">:bookings</text></g><g class="participant participant-head" data-participant="modelBooking"><rect fill="#E2E2F0" height="46.9766" rx="2.5" ry="2.5" style="stroke:#181818;stroke-width:0.5;" width="73.3291" x="1375.418" y="86.2656"/><text fill="#000000" font-family="sans-serif" font-size="14" lengthAdjust="spacing" textLength="56.998" x="1383.5835" y="106.8008">&#171;model&#187;</text><text fill="#000000" font-family="sans-serif" font-size="14" lengthAdjust="spacing" textLength="59.3291" x="1382.418" y="123.2891">:Booking</text></g><g class="participant participant-tail" data-participant="modelBooking"><rect fill="#E2E2F0" height="46.9766" rx="2.5" ry="2.5" style="stroke:#181818;stroke-width:0.5;" width="73.3291" x="1375.418" y="790.4531"/><text fill="#000000" font-family="sans-serif" font-size="14" lengthAdjust="spacing" textLength="56.998" x="1383.5835" y="810.9883">&#171;model&#187;</text><text fill="#000000" font-family="sans-serif" font-size="14" lengthAdjust="spacing" textLength="59.3291" x="1382.418" y="827.4766">:Booking</text></g><g class="participant participant-head" data-participant="BookingsDatabase"><text fill="#000000" font-family="sans-serif" font-size="14" lengthAdjust="spacing" textLength="79.8848" x="1492.4663" y="114.8008">&#171;MongoDB&#187;</text><text fill="#000000" font-family="sans-serif" font-size="14" lengthAdjust="spacing" textLength="67.2246" x="1498.7964" y="131.2891">:bookings</text><path d="M1517.4087,65.2656 C1517.4087,55.2656 1535.4087,55.2656 1535.4087,55.2656 C1535.4087,55.2656 1553.4087,55.2656 1553.4087,65.2656 L1553.4087,91.2656 C1553.4087,101.2656 1535.4087,101.2656 1535.4087,101.2656 C1535.4087,101.2656 1517.4087,101.2656 1517.4087,91.2656 L1517.4087,65.2656" fill="#E2E2F0" style="stroke:#181818;stroke-width:0.5;"/><path d="M1517.4087,65.2656 C1517.4087,75.2656 1535.4087,75.2656 1535.4087,75.2656 C1535.4087,75.2656 1553.4087,75.2656 1553.4087,65.2656" fill="none" style="stroke:#181818;stroke-width:0.5;"/></g><g class="participant participant-tail" data-participant="BookingsDatabase"><text fill="#000000" font-family="sans-serif" font-size="14" lengthAdjust="spacing" textLength="79.8848" x="1492.4663" y="803.9883">&#171;MongoDB&#187;</text><text fill="#000000" font-family="sans-serif" font-size="14" lengthAdjust="spacing" textLength="67.2246" x="1498.7964" y="820.4766">:bookings</text><path d="M1517.4087,833.4297 C1517.4087,823.4297 1535.4087,823.4297 1535.4087,823.4297 C1535.4087,823.4297 1553.4087,823.4297 1553.4087,833.4297 L1553.4087,859.4297 C1553.4087,869.4297 1535.4087,869.4297 1535.4087,869.4297 C1535.4087,869.4297 1517.4087,869.4297 1517.4087,859.4297 L1517.4087,833.4297" fill="#E2E2F0" style="stroke:#181818;stroke-width:0.5;"/><path d="M1517.4087,833.4297 C1517.4087,843.4297 1535.4087,843.4297 1535.4087,843.4297 C1535.4087,843.4297 1553.4087,843.4297 1553.4087,833.4297" fill="none" style="stroke:#181818;stroke-width:0.5;"/></g><g><title>..javaScript..</title><rect fill="#FFFFFF" height="616.9004" style="stroke:#181818;stroke-width:1;" width="10" x="268.5913" y="165.5527"/></g><g><title>..router..</title><rect fill="#FFFFFF" height="587.5898" style="stroke:#181818;stroke-width:1;" width="10" x="540.9604" y="194.8633"/></g><g><title>..middleware..</title><rect fill="#FFFFFF" height="35.3105" style="stroke:#181818;stroke-width:1;" width="10" x="645.2246" y="224.1738"/></g><g><title>..middleware..</title><rect fill="#FFFFFF" height="35.3105" style="stroke:#181818;stroke-width:1;" width="10" x="843.7178" y="325.1055"/></g><g><title>..controllers..</title><rect fill="#FFFFFF" height="356.416" style="stroke:#181818;stroke-width:1;" width="10" x="998.5898" y="426.0371"/></g><g><title>..controllers..</title><rect fill="#FFFFFF" height="122.2422" style="stroke:#181818;stroke-width:1;" width="10" x="1003.5898" y="580.5898"/></g><g><title>..model..</title><rect fill="#FFFFFF" height="87.9316" style="stroke:#181818;stroke-width:1;" width="10" x="1407.0825" y="455.3477"/></g><g><title>..model..</title><rect fill="#FFFFFF" height="167.5527" style="stroke:#181818;stroke-width:1;" width="10" x="1407.0825" y="614.9004"/></g><g><title>..MongoDB..</title><rect fill="#FFFFFF" height="29.3105" style="stroke:#181818;stroke-width:1;" width="10" x="1530.4087" y="484.6582"/></g><g><title>..MongoDB..</title><rect fill="#FFFFFF" height="29.3105" style="stroke:#181818;stroke-width:1;" width="10" x="1530.4087" y="644.2109"/></g><g class="message" data-participant-1="client" data-participant-2="server"><polygon fill="#181818" points="256.5913,161.5527,266.5913,165.5527,256.5913,169.5527,260.5913,165.5527" style="stroke:#181818;stroke-width:1;"/><line style="stroke:#181818;stroke-width:1;" x1="31.7524" x2="262.5913" y1="165.5527" y2="165.5527"/><text fill="#000000" font-family="sans-serif" font-size="13" lengthAdjust="spacing" textLength="217.8389" x="38.7524" y="160.8105">req.delete('/api/v1/bookings/{id}')</text></g><g class="message" data-participant-1="server" data-participant-2="routerBookings"><polygon fill="#181818" points="528.9604,190.8633,538.9604,194.8633,528.9604,198.8633,532.9604,194.8633" style="stroke:#181818;stroke-width:1;"/><line style="stroke:#181818;stroke-width:1;" x1="278.5913" x2="534.9604" y1="194.8633" y2="194.8633"/><text fill="#000000" font-family="sans-serif" font-size="13" lengthAdjust="spacing" textLength="243.3691" x="285.5913" y="190.1211">app.use('/api/v1/bookings', bookings)</text></g><g class="message" data-participant-1="routerBookings" data-participant-2="mwProtect"><polygon fill="#181818" points="633.2246,220.1738,643.2246,224.1738,633.2246,228.1738,637.2246,224.1738" style="stroke:#181818;stroke-width:1;"/><line style="stroke:#181818;stroke-width:1;" x1="550.9604" x2="639.2246" y1="224.1738" y2="224.1738"/><text fill="#000000" font-family="sans-serif" font-size="13" lengthAdjust="spacing" textLength="74.312" x="557.9604" y="219.4316">protect(req)</text></g><g class="message" data-participant-1="mwProtect" data-participant-2="mwProtect"><line style="stroke:#181818;stroke-width:1;" x1="655.2246" x2="697.2246" y1="258.4844" y2="258.4844"/><line style="stroke:#181818;stroke-width:1;" x1="697.2246" x2="697.2246" y1="258.4844" y2="271.4844"/><line style="stroke:#181818;stroke-width:1;" x1="650.2246" x2="697.2246" y1="271.4844" y2="271.4844"/><polygon fill="#181818" points="660.2246,267.4844,650.2246,271.4844,660.2246,275.4844,656.2246,271.4844" style="stroke:#181818;stroke-width:1;"/><text fill="#000000" font-family="sans-serif" font-size="13" lengthAdjust="spacing" textLength="164.4932" x="662.2246" y="253.7422">verify token / set req.user</text></g><g class="message" data-participant-1="mwProtect" data-participant-2="routerBookings"><polygon fill="#181818" points="561.9604,291.7949,551.9604,295.7949,561.9604,299.7949,557.9604,295.7949" style="stroke:#181818;stroke-width:1;"/><line style="stroke:#181818;stroke-width:1;stroke-dasharray:2,2;" x1="555.9604" x2="649.2246" y1="295.7949" y2="295.7949"/><text fill="#000000" font-family="sans-serif" font-size="13" lengthAdjust="spacing" textLength="36.6006" x="567.9604" y="291.0527">next()</text></g><g class="message" data-participant-1="routerBookings" data-participant-2="mwAuthorize"><polygon fill="#181818" points="831.7178,321.1055,841.7178,325.1055,831.7178,329.1055,835.7178,325.1055" style="stroke:#181818;stroke-width:1;"/><line style="stroke:#181818;stroke-width:1;" x1="550.9604" x2="837.7178" y1="325.1055" y2="325.1055"/><text fill="#000000" font-family="sans-serif" font-size="13" lengthAdjust="spacing" textLength="180.1909" x="557.9604" y="320.3633">authorize('admin','user')(req)</text></g><g class="message" data-participant-1="mwAuthorize" data-participant-2="mwAuthorize"><line style="stroke:#181818;stroke-width:1;" x1="853.7178" x2="895.7178" y1="359.416" y2="359.416"/><line style="stroke:#181818;stroke-width:1;" x1="895.7178" x2="895.7178" y1="359.416" y2="372.416"/><line style="stroke:#181818;stroke-width:1;" x1="848.7178" x2="895.7178" y1="372.416" y2="372.416"/><polygon fill="#181818" points="858.7178,368.416,848.7178,372.416,858.7178,376.416,854.7178,372.416" style="stroke:#181818;stroke-width:1;"/><text fill="#000000" font-family="sans-serif" font-size="13" lengthAdjust="spacing" textLength="120.8721" x="860.7178" y="354.6738">check req.user.role</text></g><g class="message" data-participant-1="mwAuthorize" data-participant-2="routerBookings"><polygon fill="#181818" points="561.9604,392.7266,551.9604,396.7266,561.9604,400.7266,557.9604,396.7266" style="stroke:#181818;stroke-width:1;"/><line style="stroke:#181818;stroke-width:1;stroke-dasharray:2,2;" x1="555.9604" x2="847.7178" y1="396.7266" y2="396.7266"/><text fill="#000000" font-family="sans-serif" font-size="13" lengthAdjust="spacing" textLength="109.9414" x="567.9604" y="391.9844">next() (if allowed)</text></g><g class="message" data-participant-1="routerBookings" data-participant-2="controllersBookings"><polygon fill="#181818" points="986.5898,422.0371,996.5898,426.0371,986.5898,430.0371,990.5898,426.0371" style="stroke:#181818;stroke-width:1;"/><line style="stroke:#181818;stroke-width:1;" x1="550.9604" x2="992.5898" y1="426.0371" y2="426.0371"/><text fill="#000000" font-family="sans-serif" font-size="13" lengthAdjust="spacing" textLength="118.7075" x="557.9604" y="421.2949">deleteBooking(req)</text></g><g class="message" data-participant-1="controllersBookings" data-participant-2="modelBooking"><polygon fill="#181818" points="1395.0825,451.3477,1405.0825,455.3477,1395.0825,459.3477,1399.0825,455.3477" style="stroke:#181818;stroke-width:1;"/><line style="stroke:#181818;stroke-width:1;" x1="1008.5898" x2="1401.0825" y1="455.3477" y2="455.3477"/><text fill="#000000" font-family="sans-serif" font-size="13" lengthAdjust="spacing" textLength="146.9736" x="1015.5898" y="450.6055">findById(req.params.id)</text></g><g class="message" data-participant-1="modelBooking" data-participant-2="BookingsDatabase"><polygon fill="#181818" points="1518.4087,480.6582,1528.4087,484.6582,1518.4087,488.6582,1522.4087,484.6582" style="stroke:#181818;stroke-width:1;"/><line style="stroke:#181818;stroke-width:1;" x1="1417.0825" x2="1524.4087" y1="484.6582" y2="484.6582"/><text fill="#000000" font-family="sans-serif" font-size="13" lengthAdjust="spacing" textLength="80.5835" x="1424.0825" y="479.916">find booking</text></g><g class="message" data-participant-1="BookingsDatabase" data-participant-2="modelBooking"><polygon fill="#181818" points="1428.0825,509.9688,1418.0825,513.9688,1428.0825,517.9688,1424.0825,513.9688" style="stroke:#181818;stroke-width:1;"/><line style="stroke:#181818;stroke-width:1;stroke-dasharray:2,2;" x1="1422.0825" x2="1534.4087" y1="513.9688" y2="513.9688"/><text fill="#000000" font-family="sans-serif" font-size="13" lengthAdjust="spacing" textLength="51.6826" x="1434.0825" y="509.2266">booking</text></g><g class="message" data-participant-1="modelBooking" data-participant-2="controllersBookings"><polygon fill="#181818" points="1019.5898,539.2793,1009.5898,543.2793,1019.5898,547.2793,1015.5898,543.2793" style="stroke:#181818;stroke-width:1;"/><line style="stroke:#181818;stroke-width:1;stroke-dasharray:2,2;" x1="1013.5898" x2="1411.0825" y1="543.2793" y2="543.2793"/><text fill="#000000" font-family="sans-serif" font-size="13" lengthAdjust="spacing" textLength="51.6826" x="1025.5898" y="538.5371">booking</text></g><g class="message" data-participant-1="controllersBookings" data-participant-2="controllersBookings"><line style="stroke:#181818;stroke-width:1;" x1="1008.5898" x2="1055.5898" y1="567.5898" y2="567.5898"/><line style="stroke:#181818;stroke-width:1;" x1="1055.5898" x2="1055.5898" y1="567.5898" y2="580.5898"/><line style="stroke:#181818;stroke-width:1;" x1="1014.5898" x2="1055.5898" y1="580.5898" y2="580.5898"/><polygon fill="#181818" points="1024.5898,576.5898,1014.5898,580.5898,1024.5898,584.5898,1020.5898,580.5898" style="stroke:#181818;stroke-width:1;"/><text fill="#000000" font-family="sans-serif" font-size="13" lengthAdjust="spacing" textLength="374.4927" x="1020.5898" y="562.8477">check ownership (booking.user === req.user.id) OR admin</text></g><g class="message" data-participant-1="controllersBookings" data-participant-2="modelBooking"><polygon fill="#181818" points="1395.0825,610.9004,1405.0825,614.9004,1395.0825,618.9004,1399.0825,614.9004" style="stroke:#181818;stroke-width:1;"/><line style="stroke:#181818;stroke-width:1;" x1="1013.5898" x2="1401.0825" y1="614.9004" y2="614.9004"/><text fill="#000000" font-family="sans-serif" font-size="13" lengthAdjust="spacing" textLength="203.2773" x="1020.5898" y="610.1582">deleteOne({ _id: req.params.id })</text></g><g class="message" data-participant-1="modelBooking" data-participant-2="BookingsDatabase"><polygon fill="#181818" points="1518.4087,640.2109,1528.4087,644.2109,1518.4087,648.2109,1522.4087,644.2109" style="stroke:#181818;stroke-width:1;"/><line style="stroke:#181818;stroke-width:1;" x1="1417.0825" x2="1524.4087" y1="644.2109" y2="644.2109"/><text fill="#000000" font-family="sans-serif" font-size="13" lengthAdjust="spacing" textLength="94.3262" x="1424.0825" y="639.4688">delete booking</text></g><g class="message" data-participant-1="BookingsDatabase" data-participant-2="modelBooking"><polygon fill="#181818" points="1428.0825,669.5215,1418.0825,673.5215,1428.0825,677.5215,1424.0825,673.5215" style="stroke:#181818;stroke-width:1;"/><line style="stroke:#181818;stroke-width:1;stroke-dasharray:2,2;" x1="1422.0825" x2="1534.4087" y1="673.5215" y2="673.5215"/><text fill="#000000" font-family="sans-serif" font-size="13" lengthAdjust="spacing" textLength="78.5205" x="1434.0825" y="668.7793">delete result</text></g><g class="message" data-participant-1="controllersBookings" data-participant-2="client"><polygon fill="#181818" points="42.7524,698.832,32.7524,702.832,42.7524,706.832,38.7524,702.832" style="stroke:#181818;stroke-width:1;"/><line style="stroke:#181818;stroke-width:1;" x1="36.7524" x2="997.5898" y1="702.832" y2="702.832"/><text fill="#000000" font-family="sans-serif" font-size="13" lengthAdjust="spacing" textLength="241.4014" x="48.7524" y="698.0898">response 200 { success: true, data: {} }</text></g><path d="M837,715.832 L837,740.832 L1169,740.832 L1169,725.832 L1159,715.832 L837,715.832" fill="#FEFFDD" style="stroke:#181818;stroke-width:0.5;"/><path d="M1159,715.832 L1159,725.832 L1169,725.832 L1159,715.832" fill="#FEFFDD" style="stroke:#181818;stroke-width:0.5;"/><text fill="#000000" font-family="sans-serif" font-size="13" lengthAdjust="spacing" textLength="311.416" x="843" y="733.4004">If not owner and not admin -&gt; 401 unauthorized</text><path d="M869,751.1426 L869,776.1426 L1137,776.1426 L1137,761.1426 L1127,751.1426 L869,751.1426" fill="#FEFFDD" style="stroke:#181818;stroke-width:0.5;"/><path d="M1127,751.1426 L1127,761.1426 L1137,761.1426 L1127,751.1426" fill="#FEFFDD" style="stroke:#181818;stroke-width:0.5;"/><text fill="#000000" font-family="sans-serif" font-size="13" lengthAdjust="spacing" textLength="247.5142" x="875" y="768.7109">If booking not found -&gt; 404 not found</text><text fill="#888888" font-family="sans-serif" font-size="10" lengthAdjust="spacing" textLength="142.9004" x="1439.4507" y="14.668">GoCamply Sequence Diagram</text><text fill="#888888" font-family="sans-serif" font-size="10" lengthAdjust="spacing" textLength="54.8145" x="763.7683" y="880.0977">Page 1 of 1</text><!--SRC=[bLHTRzem57tthxX2GWag0JhrAGAaKT1KQLEhTO-J9ZU-0OzWfuu3wn3_VOwTy152HryYVvnpxl4zTXP86Ihu8k_fAatUu1bVSnGHmfJJkQ8h4akf3U29pX7QgVcsGSRGJcYcxOnehXE4rXGJr0WJAPTSpC6VphxEVimwBK9IgZIFU4g5XjPzmb7e5j0C8ZiytHuEVzCrVOuKJ_Lu_5E46QerAejtmpfUoTpuizWNLpkpQBTUsidgh1LdBC4DLMYPgJA7Z9ojrUR9pVx3eRbUICN_ekzHjkB2wtgviUXrIfNFrNvT9v92AvaagB9psqUR5xrBXebbbWXNi5Wj5mYZchxG30luDodcSZevBrNfJqim8IwHOEmw3JSt8IXyxJ4RhU_rQShxwzj-fTBVShRpEiJ1W_5foosTfcdFTEMSwtMX6dP8ZHYC3o5ObJ8UtvZfaCFM2Iu8GZ0kUFm6MYvHGDzS66tz5x4SqmolNj6G1VxHVhENVPJkJ9U2h_mTu3LsKIPQOBJSs-gPhF6Kyfuxy7aCD4da1bcJrORROosx1CibPxC9MjWzkaQM6dF19cyFh63rp4sagwp7JV4Je27MRzEUNELCpX11lLvnq0hTv6yO11yZlDCIbuFS2BEnu2dufOwD1KQZqI4ZSrnu_0usxAlxvbh-AD3VmY_Et4lQzmzsLtRGoNomXoL9OPOd-c9Zx6EtU0DCfJ1gdmO3s4AMHn5cMGXQvTY5ucSImdO7EqA4UK8WYvz3Wse83p4OXEigK9DzCRDzAohU3MuX5_ldmwvGAyzjTMAP6qMhStTO8Fy0]--></g></svg>