<svg xmlns="http://www.w3.org/2000/svg" xmlns:xlink="http://www.w3.org/1999/xlink" contentStyleType="text/css" data-diagram-type="SEQUENCE" height="607px" preserveAspectRatio="none" style="width:1646px;height:607px;background:#FFFFFF;" version="1.1" viewBox="0 0 1646 607" width="1646px" zoomAndPan="magnify"><title>Get Campgrounds (GET)</title><defs/><g><text fill="#000000" font-family="sans-serif" font-size="14" font-weight="bold" lengthAdjust="spacing" textLength="173.6055" x="732.6089" y="41.3125">Get Campgrounds (GET)</text><g><title>..javaScript..</title><rect fill="#FFFFFF" height="334.1055" style="stroke:#181818;stroke-width:1;" width="10" x="503.1943" y="165.5527"/></g><g><title>..router..</title><rect fill="#FFFFFF" height="304.7949" style="stroke:#181818;stroke-width:1;" width="10" x="831.9688" y="194.8633"/></g><g><title>..controllers..</title><rect fill="#FFFFFF" height="275.4844" style="stroke:#181818;stroke-width:1;" width="10" x="999.2271" y="224.1738"/></g><g><title>..controllers..</title><rect fill="#FFFFFF" height="238.1738" style="stroke:#181818;stroke-width:1;" width="10" x="1004.2271" y="261.4844"/></g><g><title>..controllers..</title><rect fill="#FFFFFF" height="34.3105" style="stroke:#181818;stroke-width:1;" width="10" x="1009.2271" y="421.0371"/></g><g><title>..model..</title><rect fill="#FFFFFF" height="87.9316" style="stroke:#181818;stroke-width:1;" width="10" x="1360.2202" y="295.7949"/></g><g><title>..MongoDB..</title><rect fill="#FFFFFF" height="29.3105" style="stroke:#181818;stroke-width:1;" width="10" x="1578.0249" y="325.1055"/></g><g><title>Client</title><rect fill="#000000" fill-opacity="0.00000" height="374.416" width="8" x="27.7524" y="134.2422"/><line style="stroke:#181818;stroke-width:0.5;stroke-dasharray:5,5;" x1="31" x2="31" y1="134.2422" y2="508.6582"/></g><g><title>..javaScript..</title><rect fill="#000000" fill-opacity="0.00000" height="374.416" width="8" x="504.1943" y="134.2422"/><line style="stroke:#181818;stroke-width:0.5;stroke-dasharray:5,5;" x1="508.1084" x2="508.1084" y1="134.2422" y2="508.6582"/></g><g><title>..router..</title><rect fill="#000000" fill-opacity="0.00000" height="374.416" width="8" x="832.9688" y="134.2422"/><line style="stroke:#181818;stroke-width:0.5;stroke-dasharray:5,5;" x1="836.1704" x2="836.1704" y1="134.2422" y2="508.6582"/></g><g><title>..controllers..</title><rect fill="#000000" fill-opacity="0.00000" height="374.416" width="8" x="1000.2271" y="134.2422"/><line style="stroke:#181818;stroke-width:0.5;stroke-dasharray:5,5;" x1="1003.4287" x2="1003.4287" y1="134.2422" y2="508.6582"/></g><g><title>..model..</title><rect fill="#000000" fill-opacity="0.00000" height="374.416" width="8" x="1361.2202" y="134.2422"/><line style="stroke:#181818;stroke-width:0.5;stroke-dasharray:5,5;" x1="1364.7324" x2="1364.7324" y1="134.2422" y2="508.6582"/></g><g><title>..MongoDB..</title><rect fill="#000000" fill-opacity="0.00000" height="374.416" width="8" x="1579.0249" y="134.2422"/><line style="stroke:#181818;stroke-width:0.5;stroke-dasharray:5,5;" x1="1582.2266" x2="1582.2266" y1="134.2422" y2="508.6582"/></g><g class="participant participant-head" data-participant="client"><rect fill="#E2E2F0" height="30.4883" rx="2.5" ry="2.5" style="stroke:#181818;stroke-width:0.5;" width="53.5049" x="5" y="102.7539"/><text fill="#000000" font-family="sans-serif" font-size="14" lengthAdjust="spacing" textLength="39.5049" x="12" y="123.2891">Client</text></g><g class="participant participant-tail" data-participant="client"><rect fill="#E2E2F0" height="30.4883" rx="2.5" ry="2.5" style="stroke:#181818;stroke-width:0.5;" width="53.5049" x="5" y="507.6582"/><text fill="#000000" font-family="sans-serif" font-size="14" lengthAdjust="spacing" textLength="39.5049" x="12" y="528.1934">Client</text></g><g class="participant participant-head" data-participant="server"><rect fill="#E2E2F0" height="46.9766" rx="2.5" ry="2.5" style="stroke:#181818;stroke-width:0.5;" width="94.1719" x="461.1084" y="86.2656"/><text fill="#000000" font-family="sans-serif" font-size="14" lengthAdjust="spacing" textLength="80.1719" x="468.1084" y="106.8008">&#171;javaScript&#187;</text><text fill="#000000" font-family="sans-serif" font-size="14" lengthAdjust="spacing" textLength="45.8691" x="485.2598" y="123.2891">:server</text></g><g class="participant participant-tail" data-participant="server"><rect fill="#E2E2F0" height="46.9766" rx="2.5" ry="2.5" style="stroke:#181818;stroke-width:0.5;" width="94.1719" x="461.1084" y="507.6582"/><text fill="#000000" font-family="sans-serif" font-size="14" lengthAdjust="spacing" textLength="80.1719" x="468.1084" y="528.1934">&#171;javaScript&#187;</text><text fill="#000000" font-family="sans-serif" font-size="14" lengthAdjust="spacing" textLength="45.8691" x="485.2598" y="544.6816">:server</text></g><g class="participant participant-head" data-participant="routerCampgrounds"><rect fill="#E2E2F0" height="46.9766" rx="2.5" ry="2.5" style="stroke:#181818;stroke-width:0.5;" width="111.5967" x="781.1704" y="86.2656"/><text fill="#000000" font-family="sans-serif" font-size="14" lengthAdjust="spacing" textLength="56.4512" x="808.7432" y="106.8008">&#171;router&#187;</text><text fill="#000000" font-family="sans-serif" font-size="14" lengthAdjust="spacing" textLength="97.5967" x="788.1704" y="123.2891">:campgrounds</text></g><g class="participant participant-tail" data-participant="routerCampgrounds"><rect fill="#E2E2F0" height="46.9766" rx="2.5" ry="2.5" style="stroke:#181818;stroke-width:0.5;" width="111.5967" x="781.1704" y="507.6582"/><text fill="#000000" font-family="sans-serif" font-size="14" lengthAdjust="spacing" textLength="56.4512" x="808.7432" y="528.1934">&#171;router&#187;</text><text fill="#000000" font-family="sans-serif" font-size="14" lengthAdjust="spacing" textLength="97.5967" x="788.1704" y="544.6816">:campgrounds</text></g><g class="participant participant-head" data-participant="controllersCampgrounds"><rect fill="#E2E2F0" height="46.9766" rx="2.5" ry="2.5" style="stroke:#181818;stroke-width:0.5;" width="111.5967" x="948.4287" y="86.2656"/><text fill="#000000" font-family="sans-serif" font-size="14" lengthAdjust="spacing" textLength="87.4521" x="960.501" y="106.8008">&#171;controllers&#187;</text><text fill="#000000" font-family="sans-serif" font-size="14" lengthAdjust="spacing" textLength="97.5967" x="955.4287" y="123.2891">:campgrounds</text></g><g class="participant participant-tail" data-participant="controllersCampgrounds"><rect fill="#E2E2F0" height="46.9766" rx="2.5" ry="2.5" style="stroke:#181818;stroke-width:0.5;" width="111.5967" x="948.4287" y="507.6582"/><text fill="#000000" font-family="sans-serif" font-size="14" lengthAdjust="spacing" textLength="87.4521" x="960.501" y="528.1934">&#171;controllers&#187;</text><text fill="#000000" font-family="sans-serif" font-size="14" lengthAdjust="spacing" textLength="97.5967" x="955.4287" y="544.6816">:campgrounds</text></g><g class="participant participant-head" data-participant="modelCampground"><rect fill="#E2E2F0" height="46.9766" rx="2.5" ry="2.5" style="stroke:#181818;stroke-width:0.5;" width="106.9756" x="1311.7324" y="86.2656"/><text fill="#000000" font-family="sans-serif" font-size="14" lengthAdjust="spacing" textLength="56.998" x="1336.7212" y="106.8008">&#171;model&#187;</text><text fill="#000000" font-family="sans-serif" font-size="14" lengthAdjust="spacing" textLength="92.9756" x="1318.7324" y="123.2891">:Campground</text></g><g class="participant participant-tail" data-participant="modelCampground"><rect fill="#E2E2F0" height="46.9766" rx="2.5" ry="2.5" style="stroke:#181818;stroke-width:0.5;" width="106.9756" x="1311.7324" y="507.6582"/><text fill="#000000" font-family="sans-serif" font-size="14" lengthAdjust="spacing" textLength="56.998" x="1336.7212" y="528.1934">&#171;model&#187;</text><text fill="#000000" font-family="sans-serif" font-size="14" lengthAdjust="spacing" textLength="92.9756" x="1318.7324" y="544.6816">:Campground</text></g><g class="participant participant-head" data-participant="CampgroundsDatabase"><text fill="#000000" font-family="sans-serif" font-size="14" lengthAdjust="spacing" textLength="79.8848" x="1540.0825" y="114.8008">&#171;MongoDB&#187;</text><text fill="#000000" font-family="sans-serif" font-size="14" lengthAdjust="spacing" textLength="97.5967" x="1531.2266" y="131.2891">:campgrounds</text><path d="M1565.0249,65.2656 C1565.0249,55.2656 1583.0249,55.2656 1583.0249,55.2656 C1583.0249,55.2656 1601.0249,55.2656 1601.0249,65.2656 L1601.0249,91.2656 C1601.0249,101.2656 1583.0249,101.2656 1583.0249,101.2656 C1583.0249,101.2656 1565.0249,101.2656 1565.0249,91.2656 L1565.0249,65.2656" fill="#E2E2F0" style="stroke:#181818;stroke-width:0.5;"/><path d="M1565.0249,65.2656 C1565.0249,75.2656 1583.0249,75.2656 1583.0249,75.2656 C1583.0249,75.2656 1601.0249,75.2656 1601.0249,65.2656" fill="none" style="stroke:#181818;stroke-width:0.5;"/></g><g class="participant participant-tail" data-participant="CampgroundsDatabase"><text fill="#000000" font-family="sans-serif" font-size="14" lengthAdjust="spacing" textLength="79.8848" x="1540.0825" y="521.1934">&#171;MongoDB&#187;</text><text fill="#000000" font-family="sans-serif" font-size="14" lengthAdjust="spacing" textLength="97.5967" x="1531.2266" y="537.6816">:campgrounds</text><path d="M1565.0249,550.6348 C1565.0249,540.6348 1583.0249,540.6348 1583.0249,540.6348 C1583.0249,540.6348 1601.0249,540.6348 1601.0249,550.6348 L1601.0249,576.6348 C1601.0249,586.6348 1583.0249,586.6348 1583.0249,586.6348 C1583.0249,586.6348 1565.0249,586.6348 1565.0249,576.6348 L1565.0249,550.6348" fill="#E2E2F0" style="stroke:#181818;stroke-width:0.5;"/><path d="M1565.0249,550.6348 C1565.0249,560.6348 1583.0249,560.6348 1583.0249,560.6348 C1583.0249,560.6348 1601.0249,560.6348 1601.0249,550.6348" fill="none" style="stroke:#181818;stroke-width:0.5;"/></g><g><title>..javaScript..</title><rect fill="#FFFFFF" height="334.1055" style="stroke:#181818;stroke-width:1;" width="10" x="503.1943" y="165.5527"/></g><g><title>..router..</title><rect fill="#FFFFFF" height="304.7949" style="stroke:#181818;stroke-width:1;" width="10" x="831.9688" y="194.8633"/></g><g><title>..controllers..</title><rect fill="#FFFFFF" height="275.4844" style="stroke:#181818;stroke-width:1;" width="10" x="999.2271" y="224.1738"/></g><g><title>..controllers..</title><rect fill="#FFFFFF" height="238.1738" style="stroke:#181818;stroke-width:1;" width="10" x="1004.2271" y="261.4844"/></g><g><title>..controllers..</title><rect fill="#FFFFFF" height="34.3105" style="stroke:#181818;stroke-width:1;" width="10" x="1009.2271" y="421.0371"/></g><g><title>..model..</title><rect fill="#FFFFFF" height="87.9316" style="stroke:#181818;stroke-width:1;" width="10" x="1360.2202" y="295.7949"/></g><g><title>..MongoDB..</title><rect fill="#FFFFFF" height="29.3105" style="stroke:#181818;stroke-width:1;" width="10" x="1578.0249" y="325.1055"/></g><g class="message" data-participant-1="client" data-participant-2="server"><polygon fill="#181818" points="491.1943,161.5527,501.1943,165.5527,491.1943,169.5527,495.1943,165.5527" style="stroke:#181818;stroke-width:1;"/><line style="stroke:#181818;stroke-width:1;" x1="31.7524" x2="497.1943" y1="165.5527" y2="165.5527"/><text fill="#000000" font-family="sans-serif" font-size="13" lengthAdjust="spacing" textLength="452.4419" x="38.7524" y="160.8105">req.get('/api/v1/campgrounds?select=&amp;sort=&amp;page=&amp;limit=&amp;filters...')</text></g><g class="message" data-participant-1="server" data-participant-2="routerCampgrounds"><polygon fill="#181818" points="819.9688,190.8633,829.9688,194.8633,819.9688,198.8633,823.9688,194.8633" style="stroke:#181818;stroke-width:1;"/><line style="stroke:#181818;stroke-width:1;" x1="513.1943" x2="825.9688" y1="194.8633" y2="194.8633"/><text fill="#000000" font-family="sans-serif" font-size="13" lengthAdjust="spacing" textLength="299.7744" x="520.1943" y="190.1211">app.use('/api/v1/campgrounds', campgrounds)</text></g><g class="message" data-participant-1="routerCampgrounds" data-participant-2="controllersCampgrounds"><polygon fill="#181818" points="987.2271,220.1738,997.2271,224.1738,987.2271,228.1738,991.2271,224.1738" style="stroke:#181818;stroke-width:1;"/><line style="stroke:#181818;stroke-width:1;" x1="841.9688" x2="993.2271" y1="224.1738" y2="224.1738"/><text fill="#000000" font-family="sans-serif" font-size="13" lengthAdjust="spacing" textLength="138.2583" x="848.9688" y="219.4316">getCampgrounds(req)</text></g><g class="message" data-participant-1="controllersCampgrounds" data-participant-2="controllersCampgrounds"><line style="stroke:#181818;stroke-width:1;" x1="1009.2271" x2="1056.2271" y1="248.4844" y2="248.4844"/><line style="stroke:#181818;stroke-width:1;" x1="1056.2271" x2="1056.2271" y1="248.4844" y2="261.4844"/><line style="stroke:#181818;stroke-width:1;" x1="1015.2271" x2="1056.2271" y1="261.4844" y2="261.4844"/><polygon fill="#181818" points="1025.2271,257.4844,1015.2271,261.4844,1025.2271,265.4844,1021.2271,261.4844" style="stroke:#181818;stroke-width:1;"/><text fill="#000000" font-family="sans-serif" font-size="13" lengthAdjust="spacing" textLength="326.9932" x="1021.2271" y="243.7422">parse query params (select, sort, page, limit, filters)</text></g><g class="message" data-participant-1="controllersCampgrounds" data-participant-2="modelCampground"><polygon fill="#181818" points="1348.2202,291.7949,1358.2202,295.7949,1348.2202,299.7949,1352.2202,295.7949" style="stroke:#181818;stroke-width:1;"/><line style="stroke:#181818;stroke-width:1;" x1="1014.2271" x2="1354.2202" y1="295.7949" y2="295.7949"/><text fill="#000000" font-family="sans-serif" font-size="13" lengthAdjust="spacing" textLength="274.6313" x="1021.2271" y="291.0527">find(parsedQuery).populate('appointments')</text></g><g class="message" data-participant-1="modelCampground" data-participant-2="CampgroundsDatabase"><polygon fill="#181818" points="1566.0249,321.1055,1576.0249,325.1055,1566.0249,329.1055,1570.0249,325.1055" style="stroke:#181818;stroke-width:1;"/><line style="stroke:#181818;stroke-width:1;" x1="1370.2202" x2="1572.0249" y1="325.1055" y2="325.1055"/><text fill="#000000" font-family="sans-serif" font-size="13" lengthAdjust="spacing" textLength="188.8047" x="1377.2202" y="320.3633">find &amp; populate appointments</text></g><g class="message" data-participant-1="CampgroundsDatabase" data-participant-2="modelCampground"><polygon fill="#181818" points="1381.2202,350.416,1371.2202,354.416,1381.2202,358.416,1377.2202,354.416" style="stroke:#181818;stroke-width:1;"/><line style="stroke:#181818;stroke-width:1;stroke-dasharray:2,2;" x1="1375.2202" x2="1582.0249" y1="354.416" y2="354.416"/><text fill="#000000" font-family="sans-serif" font-size="13" lengthAdjust="spacing" textLength="86.5122" x="1387.2202" y="349.6738">campgrounds</text></g><g class="message" data-participant-1="modelCampground" data-participant-2="controllersCampgrounds"><polygon fill="#181818" points="1025.2271,379.7266,1015.2271,383.7266,1025.2271,387.7266,1021.2271,383.7266" style="stroke:#181818;stroke-width:1;"/><line style="stroke:#181818;stroke-width:1;stroke-dasharray:2,2;" x1="1019.2271" x2="1364.2202" y1="383.7266" y2="383.7266"/><text fill="#000000" font-family="sans-serif" font-size="13" lengthAdjust="spacing" textLength="86.5122" x="1031.2271" y="378.9844">campgrounds</text></g><g class="message" data-participant-1="controllersCampgrounds" data-participant-2="controllersCampgrounds"><line style="stroke:#181818;stroke-width:1;" x1="1014.2271" x2="1061.2271" y1="408.0371" y2="408.0371"/><line style="stroke:#181818;stroke-width:1;" x1="1061.2271" x2="1061.2271" y1="408.0371" y2="421.0371"/><line style="stroke:#181818;stroke-width:1;" x1="1020.2271" x2="1061.2271" y1="421.0371" y2="421.0371"/><polygon fill="#181818" points="1030.2271,417.0371,1020.2271,421.0371,1030.2271,425.0371,1026.2271,421.0371" style="stroke:#181818;stroke-width:1;"/><text fill="#000000" font-family="sans-serif" font-size="13" lengthAdjust="spacing" textLength="189.5601" x="1026.2271" y="403.2949">calculate pagination metadata</text></g><g class="message" data-participant-1="controllersCampgrounds" data-participant-2="client"><polygon fill="#181818" points="42.7524,451.3477,32.7524,455.3477,42.7524,459.3477,38.7524,455.3477" style="stroke:#181818;stroke-width:1;"/><line style="stroke:#181818;stroke-width:1;" x1="36.7524" x2="1003.2271" y1="455.3477" y2="455.3477"/><text fill="#000000" font-family="sans-serif" font-size="13" lengthAdjust="spacing" textLength="438.6992" x="48.7524" y="450.6055">response 200 { success: true, count, data: campgrounds, pagination }</text></g><path d="M903,468.3477 L903,493.3477 L1104,493.3477 L1104,478.3477 L1094,468.3477 L903,468.3477" fill="#FEFFDD" style="stroke:#181818;stroke-width:0.5;"/><path d="M1094,468.3477 L1094,478.3477 L1104,478.3477 L1094,468.3477" fill="#FEFFDD" style="stroke:#181818;stroke-width:0.5;"/><text fill="#000000" font-family="sans-serif" font-size="13" lengthAdjust="spacing" textLength="180.1655" x="909" y="485.916">on error -&gt; 500 Server Error</text><text fill="#888888" font-family="sans-serif" font-size="10" lengthAdjust="spacing" textLength="142.9004" x="1495.9229" y="14.668">GoCamply Sequence Diagram</text><text fill="#888888" font-family="sans-serif" font-size="10" lengthAdjust="spacing" textLength="54.8145" x="792.0044" y="597.3027">Page 1 of 1</text><!--SRC=[dLHDRzim3BthLn01yeNQJZTWbo3DW3L5JWCsPCTTE9d9DCYIAia1Yc7_VPJSBcxgvB2B88byxv6FidyIrkHXQ- -nSVe9TlJOaf446uK7ZutOMnivuGiU2CQErp7OFOmrXfXF8gge2KPRYf0u3jwsfWumspvycu-4SEYZaigXYJ2wrufC7046a7dxEhnQ_S8ZxgHNBgxNtyqoa3-Ip_dTzZoVnRYwd2jFuXdGXNebdMEbDT5RhSc7GO9U_0fBOslI6NzAol0SEDs96YF-m409zDcQWzry6fJjQMsU8K9qRfNhpWMukLc2fyVgG74sNQ1JY-ExHO_eOo1DCjvDWlMyfa7TJRHg51_sIhCleQggwLnqVENwZLbP0fshsa234jC2UgUvUCjGhYzOcBcvzDxLZBkPYmlfrubu7cmglrh_bFROyDlhsYyWjLz0Qh-0t7u1p-rV4pkRN5RPArFFibJzDKdDAsTTgp6oEsoJLIOsFA70dfx3cN5WflzOOG8lLD1d4aEWSg2yibpsHt6fiLLP_Y_q-W0aQjcLpqOhWr5P0mr5J2_-6cL-qxa6Jy5Pm_szlxs5tn1QAIc49KJVykGaGtXoYUvLkKLVy8yGXlzKODFtCIow1CuZxwrFyXzOQjTzJW_fJlm5]--></g></svg>