<svg xmlns="http://www.w3.org/2000/svg" xmlns:xlink="http://www.w3.org/1999/xlink" contentStyleType="text/css" data-diagram-type="SEQUENCE" height="688px" preserveAspectRatio="none" style="width:490px;height:688px;background:#FFFFFF;" version="1.1" viewBox="0 0 490 688" width="490px" zoomAndPan="magnify"><title>Manage Appointments Flow</title><defs/><g><text fill="#000000" font-family="sans-serif" font-size="14" font-weight="bold" lengthAdjust="spacing" textLength="200.4297" x="144.011" y="28.5352">Manage Appointments Flow</text><g><title>User</title><rect fill="#000000" fill-opacity="0.00000" height="488.9688" width="8" x="19.1826" y="118.9766"/><line style="stroke:#181818;stroke-width:0.5;stroke-dasharray:5,5;" x1="23" x2="23" y1="118.9766" y2="607.9453"/></g><g><title>Web App</title><rect fill="#000000" fill-opacity="0.00000" height="488.9688" width="8" x="202.8643" y="118.9766"/><line style="stroke:#181818;stroke-width:0.5;stroke-dasharray:5,5;" x1="206.7144" x2="206.7144" y1="118.9766" y2="607.9453"/></g><g><title>Appointment Service</title><rect fill="#000000" fill-opacity="0.00000" height="488.9688" width="8" x="403.2466" y="118.9766"/><line style="stroke:#181818;stroke-width:0.5;stroke-dasharray:5,5;" x1="407.0415" x2="407.0415" y1="118.9766" y2="607.9453"/></g><g class="participant participant-head" data-participant="User"><text fill="#000000" font-family="sans-serif" font-size="14" lengthAdjust="spacing" textLength="30.3652" x="5" y="116.0234">User</text><ellipse cx="23.1826" cy="50.9883" fill="#E2E2F0" rx="8" ry="8" style="stroke:#181818;stroke-width:0.5;"/><path d="M23.1826,58.9883 L23.1826,85.9883 M10.1826,66.9883 L36.1826,66.9883 M23.1826,85.9883 L10.1826,100.9883 M23.1826,85.9883 L36.1826,100.9883" fill="none" style="stroke:#181818;stroke-width:0.5;"/></g><g class="participant participant-tail" data-participant="User"><text fill="#000000" font-family="sans-serif" font-size="14" lengthAdjust="spacing" textLength="30.3652" x="5" y="620.4805">User</text><ellipse cx="23.1826" cy="631.9336" fill="#E2E2F0" rx="8" ry="8" style="stroke:#181818;stroke-width:0.5;"/><path d="M23.1826,639.9336 L23.1826,666.9336 M10.1826,647.9336 L36.1826,647.9336 M23.1826,666.9336 L10.1826,681.9336 M23.1826,666.9336 L36.1826,681.9336" fill="none" style="stroke:#181818;stroke-width:0.5;"/></g><g class="participant participant-head" data-participant="App"><rect fill="#E2E2F0" height="30.4883" rx="2.5" ry="2.5" style="stroke:#181818;stroke-width:0.5;" width="74.2998" x="169.7144" y="87.4883"/><text fill="#000000" font-family="sans-serif" font-size="14" lengthAdjust="spacing" textLength="60.2998" x="176.7144" y="108.0234">Web App</text></g><g class="participant participant-tail" data-participant="App"><rect fill="#E2E2F0" height="30.4883" rx="2.5" ry="2.5" style="stroke:#181818;stroke-width:0.5;" width="74.2998" x="169.7144" y="606.9453"/><text fill="#000000" font-family="sans-serif" font-size="14" lengthAdjust="spacing" textLength="60.2998" x="176.7144" y="627.4805">Web App</text></g><g class="participant participant-head" data-participant="Appt"><rect fill="#E2E2F0" height="30.4883" rx="2.5" ry="2.5" style="stroke:#181818;stroke-width:0.5;" width="154.4102" x="330.0415" y="87.4883"/><text fill="#000000" font-family="sans-serif" font-size="14" lengthAdjust="spacing" textLength="140.4102" x="337.0415" y="108.0234">Appointment Service</text></g><g class="participant participant-tail" data-participant="Appt"><rect fill="#E2E2F0" height="30.4883" rx="2.5" ry="2.5" style="stroke:#181818;stroke-width:0.5;" width="154.4102" x="330.0415" y="606.9453"/><text fill="#000000" font-family="sans-serif" font-size="14" lengthAdjust="spacing" textLength="140.4102" x="337.0415" y="627.4805">Appointment Service</text></g><g class="message" data-participant-1="User" data-participant-2="App"><polygon fill="#181818" points="194.8643,146.2871,204.8643,150.2871,194.8643,154.2871,198.8643,150.2871" style="stroke:#181818;stroke-width:1;"/><line style="stroke:#181818;stroke-width:1;" x1="23.1826" x2="200.8643" y1="150.2871" y2="150.2871"/><text fill="#000000" font-family="sans-serif" font-size="13" lengthAdjust="spacing" textLength="159.6816" x="30.1826" y="145.5449">Open appointments page</text></g><g class="message" data-participant-1="App" data-participant-2="Appt"><polygon fill="#181818" points="395.2466,175.5977,405.2466,179.5977,395.2466,183.5977,399.2466,179.5977" style="stroke:#181818;stroke-width:1;"/><line style="stroke:#181818;stroke-width:1;" x1="206.8643" x2="401.2466" y1="179.5977" y2="179.5977"/><text fill="#000000" font-family="sans-serif" font-size="13" lengthAdjust="spacing" textLength="156.438" x="213.8643" y="174.8555">Fetch user appointments</text></g><g class="message" data-participant-1="Appt" data-participant-2="App"><polygon fill="#181818" points="217.8643,204.9082,207.8643,208.9082,217.8643,212.9082,213.8643,208.9082" style="stroke:#181818;stroke-width:1;"/><line style="stroke:#181818;stroke-width:1;stroke-dasharray:2,2;" x1="211.8643" x2="406.2466" y1="208.9082" y2="208.9082"/><text fill="#000000" font-family="sans-serif" font-size="13" lengthAdjust="spacing" textLength="133.0469" x="223.8643" y="204.166">Return appointments</text></g><g class="message" data-participant-1="App" data-participant-2="User"><polygon fill="#181818" points="34.1826,234.2188,24.1826,238.2188,34.1826,242.2188,30.1826,238.2188" style="stroke:#181818;stroke-width:1;"/><line style="stroke:#181818;stroke-width:1;stroke-dasharray:2,2;" x1="28.1826" x2="205.8643" y1="238.2188" y2="238.2188"/><text fill="#000000" font-family="sans-serif" font-size="13" lengthAdjust="spacing" textLength="137.2998" x="40.1826" y="233.4766">Display appointments</text></g><g class="message" data-participant-1="User" data-participant-2="App"><polygon fill="#181818" points="194.8643,263.5293,204.8643,267.5293,194.8643,271.5293,198.8643,267.5293" style="stroke:#181818;stroke-width:1;"/><line style="stroke:#181818;stroke-width:1;" x1="23.1826" x2="200.8643" y1="267.5293" y2="267.5293"/><text fill="#000000" font-family="sans-serif" font-size="13" lengthAdjust="spacing" textLength="125.4805" x="30.1826" y="262.7871">Create appointment</text></g><g class="message" data-participant-1="App" data-participant-2="Appt"><polygon fill="#181818" points="395.2466,292.8398,405.2466,296.8398,395.2466,300.8398,399.2466,296.8398" style="stroke:#181818;stroke-width:1;"/><line style="stroke:#181818;stroke-width:1;" x1="206.8643" x2="401.2466" y1="296.8398" y2="296.8398"/><text fill="#000000" font-family="sans-serif" font-size="13" lengthAdjust="spacing" textLength="154.9209" x="213.8643" y="292.0977">Create new appointment</text></g><g class="message" data-participant-1="Appt" data-participant-2="App"><polygon fill="#181818" points="217.8643,322.1504,207.8643,326.1504,217.8643,330.1504,213.8643,326.1504" style="stroke:#181818;stroke-width:1;"/><line style="stroke:#181818;stroke-width:1;stroke-dasharray:2,2;" x1="211.8643" x2="406.2466" y1="326.1504" y2="326.1504"/><text fill="#000000" font-family="sans-serif" font-size="13" lengthAdjust="spacing" textLength="133.1167" x="223.8643" y="321.4082">Appointment created</text></g><g class="message" data-participant-1="App" data-participant-2="User"><polygon fill="#181818" points="34.1826,351.4609,24.1826,355.4609,34.1826,359.4609,30.1826,355.4609" style="stroke:#181818;stroke-width:1;"/><line style="stroke:#181818;stroke-width:1;stroke-dasharray:2,2;" x1="28.1826" x2="205.8643" y1="355.4609" y2="355.4609"/><text fill="#000000" font-family="sans-serif" font-size="13" lengthAdjust="spacing" textLength="138.0806" x="40.1826" y="350.7188">Creation confirmation</text></g><g class="message" data-participant-1="User" data-participant-2="App"><polygon fill="#181818" points="194.8643,380.7715,204.8643,384.7715,194.8643,388.7715,198.8643,384.7715" style="stroke:#181818;stroke-width:1;"/><line style="stroke:#181818;stroke-width:1;" x1="23.1826" x2="200.8643" y1="384.7715" y2="384.7715"/><text fill="#000000" font-family="sans-serif" font-size="13" lengthAdjust="spacing" textLength="129.2954" x="30.1826" y="380.0293">Update appointment</text></g><g class="message" data-participant-1="App" data-participant-2="Appt"><polygon fill="#181818" points="395.2466,410.082,405.2466,414.082,395.2466,418.082,399.2466,414.082" style="stroke:#181818;stroke-width:1;"/><line style="stroke:#181818;stroke-width:1;" x1="206.8643" x2="401.2466" y1="414.082" y2="414.082"/><text fill="#000000" font-family="sans-serif" font-size="13" lengthAdjust="spacing" textLength="175.0176" x="213.8643" y="409.3398">Update appointment details</text></g><g class="message" data-participant-1="Appt" data-participant-2="App"><polygon fill="#181818" points="217.8643,439.3926,207.8643,443.3926,217.8643,447.3926,213.8643,443.3926" style="stroke:#181818;stroke-width:1;"/><line style="stroke:#181818;stroke-width:1;stroke-dasharray:2,2;" x1="211.8643" x2="406.2466" y1="443.3926" y2="443.3926"/><text fill="#000000" font-family="sans-serif" font-size="13" lengthAdjust="spacing" textLength="138.3281" x="223.8643" y="438.6504">Appointment updated</text></g><g class="message" data-participant-1="App" data-participant-2="User"><polygon fill="#181818" points="34.1826,468.7031,24.1826,472.7031,34.1826,476.7031,30.1826,472.7031" style="stroke:#181818;stroke-width:1;"/><line style="stroke:#181818;stroke-width:1;stroke-dasharray:2,2;" x1="28.1826" x2="205.8643" y1="472.7031" y2="472.7031"/><text fill="#000000" font-family="sans-serif" font-size="13" lengthAdjust="spacing" textLength="129.3271" x="40.1826" y="467.9609">Update confirmation</text></g><g class="message" data-participant-1="User" data-participant-2="App"><polygon fill="#181818" points="194.8643,498.0137,204.8643,502.0137,194.8643,506.0137,198.8643,502.0137" style="stroke:#181818;stroke-width:1;"/><line style="stroke:#181818;stroke-width:1;" x1="23.1826" x2="200.8643" y1="502.0137" y2="502.0137"/><text fill="#000000" font-family="sans-serif" font-size="13" lengthAdjust="spacing" textLength="124.7251" x="30.1826" y="497.2715">Delete appointment</text></g><g class="message" data-participant-1="App" data-participant-2="Appt"><polygon fill="#181818" points="395.2466,527.3242,405.2466,531.3242,395.2466,535.3242,399.2466,531.3242" style="stroke:#181818;stroke-width:1;"/><line style="stroke:#181818;stroke-width:1;" x1="206.8643" x2="401.2466" y1="531.3242" y2="531.3242"/><text fill="#000000" font-family="sans-serif" font-size="13" lengthAdjust="spacing" textLength="176.3823" x="213.8643" y="526.582">Delete appointment request</text></g><g class="message" data-participant-1="Appt" data-participant-2="App"><polygon fill="#181818" points="217.8643,556.6348,207.8643,560.6348,217.8643,564.6348,213.8643,560.6348" style="stroke:#181818;stroke-width:1;"/><line style="stroke:#181818;stroke-width:1;stroke-dasharray:2,2;" x1="211.8643" x2="406.2466" y1="560.6348" y2="560.6348"/><text fill="#000000" font-family="sans-serif" font-size="13" lengthAdjust="spacing" textLength="133.1421" x="223.8643" y="555.8926">Appointment deleted</text></g><g class="message" data-participant-1="App" data-participant-2="User"><polygon fill="#181818" points="34.1826,585.9453,24.1826,589.9453,34.1826,593.9453,30.1826,589.9453" style="stroke:#181818;stroke-width:1;"/><line style="stroke:#181818;stroke-width:1;stroke-dasharray:2,2;" x1="28.1826" x2="205.8643" y1="589.9453" y2="589.9453"/><text fill="#000000" font-family="sans-serif" font-size="13" lengthAdjust="spacing" textLength="137.3252" x="40.1826" y="585.2031">Deletion confirmation</text></g><!--SRC=[VP31QWCX48RlFiMGUrvW3u7Ia5ieD8IUf-wq6J2ZrTc6l7sYRC1rmPCC_pU_dogh8pYYu2_1MmYUHQyack3W_CqOjEeZd1D54p0gMmue2fil-ixu1Z3bSnbMFN2Y-C-MNg0QayjWkylJ01-11B2-DpnDp3ER4HtWG6elCEMrcioGmlRLz4awHLaH1SXN3h3d51pUbyXIvpqIAjN4KcNEXMujKvdKpxTbOMnCIWrx0UlbX-Er38tAEOnTbNKE8ocoInsTgIorEdDLHsPFZdeownmY_KsKUdypbgLMfbIj_kO1]--></g></svg>