<svg xmlns="http://www.w3.org/2000/svg" xmlns:xlink="http://www.w3.org/1999/xlink" contentStyleType="text/css" data-diagram-type="SEQUENCE" height="565px" preserveAspectRatio="none" style="width:1376px;height:565px;background:#FFFFFF;" version="1.1" viewBox="0 0 1376 565" width="1376px" zoomAndPan="magnify"><title>Register User (POST)</title><defs/><g><text fill="#000000" font-family="sans-serif" font-size="14" font-weight="bold" lengthAdjust="spacing" textLength="149.9736" x="609.125" y="41.3125">Register User (POST)</text><g><title>..javaScript..</title><rect fill="#FFFFFF" height="291.7949" style="stroke:#181818;stroke-width:1;" width="10" x="492.6128" y="165.5527"/></g><g><title>..router..</title><rect fill="#FFFFFF" height="262.4844" style="stroke:#181818;stroke-width:1;" width="10" x="704.7173" y="194.8633"/></g><g><title>..controllers..</title><rect fill="#FFFFFF" height="233.1738" style="stroke:#181818;stroke-width:1;" width="10" x="811.3936" y="224.1738"/></g><g><title>..controllers..</title><rect fill="#FFFFFF" height="34.3105" style="stroke:#181818;stroke-width:1;" width="10" x="816.3936" y="378.7266"/></g><g><title>..model..</title><rect fill="#FFFFFF" height="87.9316" style="stroke:#181818;stroke-width:1;" width="10" x="1152.7173" y="253.4844"/></g><g><title>..MongoDB..</title><rect fill="#FFFFFF" height="29.3105" style="stroke:#181818;stroke-width:1;" width="10" x="1316.2813" y="282.7949"/></g><g><title>Client</title><rect fill="#000000" fill-opacity="0.00000" height="332.1055" width="8" x="27.7524" y="134.2422"/><line style="stroke:#181818;stroke-width:0.5;stroke-dasharray:5,5;" x1="31" x2="31" y1="134.2422" y2="466.3477"/></g><g><title>..javaScript..</title><rect fill="#000000" fill-opacity="0.00000" height="332.1055" width="8" x="493.6128" y="134.2422"/><line style="stroke:#181818;stroke-width:0.5;stroke-dasharray:5,5;" x1="497.5269" x2="497.5269" y1="134.2422" y2="466.3477"/></g><g><title>..router..</title><rect fill="#000000" fill-opacity="0.00000" height="332.1055" width="8" x="705.7173" y="134.2422"/><line style="stroke:#181818;stroke-width:0.5;stroke-dasharray:5,5;" x1="709.4917" x2="709.4917" y1="134.2422" y2="466.3477"/></g><g><title>..controllers..</title><rect fill="#000000" fill-opacity="0.00000" height="332.1055" width="8" x="812.3936" y="134.2422"/><line style="stroke:#181818;stroke-width:0.5;stroke-dasharray:5,5;" x1="815.6675" x2="815.6675" y1="134.2422" y2="466.3477"/></g><g><title>..model..</title><rect fill="#000000" fill-opacity="0.00000" height="332.1055" width="8" x="1153.7173" y="134.2422"/><line style="stroke:#181818;stroke-width:0.5;stroke-dasharray:5,5;" x1="1157.2183" x2="1157.2183" y1="134.2422" y2="466.3477"/></g><g><title>..MongoDB..</title><rect fill="#000000" fill-opacity="0.00000" height="332.1055" width="8" x="1317.2813" y="134.2422"/><line style="stroke:#181818;stroke-width:0.5;stroke-dasharray:5,5;" x1="1320.3389" x2="1320.3389" y1="134.2422" y2="466.3477"/></g><g class="participant participant-head" data-participant="client"><rect fill="#E2E2F0" height="30.4883" rx="2.5" ry="2.5" style="stroke:#181818;stroke-width:0.5;" width="53.5049" x="5" y="102.7539"/><text fill="#000000" font-family="sans-serif" font-size="14" lengthAdjust="spacing" textLength="39.5049" x="12" y="123.2891">Client</text></g><g class="participant participant-tail" data-participant="client"><rect fill="#E2E2F0" height="30.4883" rx="2.5" ry="2.5" style="stroke:#181818;stroke-width:0.5;" width="53.5049" x="5" y="465.3477"/><text fill="#000000" font-family="sans-serif" font-size="14" lengthAdjust="spacing" textLength="39.5049" x="12" y="485.8828">Client</text></g><g class="participant participant-head" data-participant="server"><rect fill="#E2E2F0" height="46.9766" rx="2.5" ry="2.5" style="stroke:#181818;stroke-width:0.5;" width="94.1719" x="450.5269" y="86.2656"/><text fill="#000000" font-family="sans-serif" font-size="14" lengthAdjust="spacing" textLength="80.1719" x="457.5269" y="106.8008">&#171;javaScript&#187;</text><text fill="#000000" font-family="sans-serif" font-size="14" lengthAdjust="spacing" textLength="45.8691" x="474.6782" y="123.2891">:server</text></g><g class="participant participant-tail" data-participant="server"><rect fill="#E2E2F0" height="46.9766" rx="2.5" ry="2.5" style="stroke:#181818;stroke-width:0.5;" width="94.1719" x="450.5269" y="465.3477"/><text fill="#000000" font-family="sans-serif" font-size="14" lengthAdjust="spacing" textLength="80.1719" x="457.5269" y="485.8828">&#171;javaScript&#187;</text><text fill="#000000" font-family="sans-serif" font-size="14" lengthAdjust="spacing" textLength="45.8691" x="474.6782" y="502.3711">:server</text></g><g class="participant participant-head" data-participant="routerAuth"><rect fill="#E2E2F0" height="46.9766" rx="2.5" ry="2.5" style="stroke:#181818;stroke-width:0.5;" width="70.4512" x="674.4917" y="86.2656"/><text fill="#000000" font-family="sans-serif" font-size="14" lengthAdjust="spacing" textLength="56.4512" x="681.4917" y="106.8008">&#171;router&#187;</text><text fill="#000000" font-family="sans-serif" font-size="14" lengthAdjust="spacing" textLength="34.7744" x="692.3301" y="123.2891">:auth</text></g><g class="participant participant-tail" data-participant="routerAuth"><rect fill="#E2E2F0" height="46.9766" rx="2.5" ry="2.5" style="stroke:#181818;stroke-width:0.5;" width="70.4512" x="674.4917" y="465.3477"/><text fill="#000000" font-family="sans-serif" font-size="14" lengthAdjust="spacing" textLength="56.4512" x="681.4917" y="485.8828">&#171;router&#187;</text><text fill="#000000" font-family="sans-serif" font-size="14" lengthAdjust="spacing" textLength="34.7744" x="692.3301" y="502.3711">:auth</text></g><g class="participant participant-head" data-participant="controllersAuth"><rect fill="#E2E2F0" height="46.9766" rx="2.5" ry="2.5" style="stroke:#181818;stroke-width:0.5;" width="101.4521" x="765.6675" y="86.2656"/><text fill="#000000" font-family="sans-serif" font-size="14" lengthAdjust="spacing" textLength="87.4521" x="772.6675" y="106.8008">&#171;controllers&#187;</text><text fill="#000000" font-family="sans-serif" font-size="14" lengthAdjust="spacing" textLength="34.7744" x="799.0063" y="123.2891">:auth</text></g><g class="participant participant-tail" data-participant="controllersAuth"><rect fill="#E2E2F0" height="46.9766" rx="2.5" ry="2.5" style="stroke:#181818;stroke-width:0.5;" width="101.4521" x="765.6675" y="465.3477"/><text fill="#000000" font-family="sans-serif" font-size="14" lengthAdjust="spacing" textLength="87.4521" x="772.6675" y="485.8828">&#171;controllers&#187;</text><text fill="#000000" font-family="sans-serif" font-size="14" lengthAdjust="spacing" textLength="34.7744" x="799.0063" y="502.3711">:auth</text></g><g class="participant participant-head" data-participant="modelUser"><rect fill="#E2E2F0" height="46.9766" rx="2.5" ry="2.5" style="stroke:#181818;stroke-width:0.5;" width="70.998" x="1122.2183" y="86.2656"/><text fill="#000000" font-family="sans-serif" font-size="14" lengthAdjust="spacing" textLength="56.998" x="1129.2183" y="106.8008">&#171;model&#187;</text><text fill="#000000" font-family="sans-serif" font-size="14" lengthAdjust="spacing" textLength="34.7949" x="1140.3198" y="123.2891">:User</text></g><g class="participant participant-tail" data-participant="modelUser"><rect fill="#E2E2F0" height="46.9766" rx="2.5" ry="2.5" style="stroke:#181818;stroke-width:0.5;" width="70.998" x="1122.2183" y="465.3477"/><text fill="#000000" font-family="sans-serif" font-size="14" lengthAdjust="spacing" textLength="56.998" x="1129.2183" y="485.8828">&#171;model&#187;</text><text fill="#000000" font-family="sans-serif" font-size="14" lengthAdjust="spacing" textLength="34.7949" x="1140.3198" y="502.3711">:User</text></g><g class="participant participant-head" data-participant="UsersDatabase"><text fill="#000000" font-family="sans-serif" font-size="14" lengthAdjust="spacing" textLength="79.8848" x="1278.3389" y="114.8008">&#171;MongoDB&#187;</text><text fill="#000000" font-family="sans-serif" font-size="14" lengthAdjust="spacing" textLength="40.9199" x="1297.8213" y="131.2891">:users</text><path d="M1303.2813,65.2656 C1303.2813,55.2656 1321.2813,55.2656 1321.2813,55.2656 C1321.2813,55.2656 1339.2813,55.2656 1339.2813,65.2656 L1339.2813,91.2656 C1339.2813,101.2656 1321.2813,101.2656 1321.2813,101.2656 C1321.2813,101.2656 1303.2813,101.2656 1303.2813,91.2656 L1303.2813,65.2656" fill="#E2E2F0" style="stroke:#181818;stroke-width:0.5;"/><path d="M1303.2813,65.2656 C1303.2813,75.2656 1321.2813,75.2656 1321.2813,75.2656 C1321.2813,75.2656 1339.2813,75.2656 1339.2813,65.2656" fill="none" style="stroke:#181818;stroke-width:0.5;"/></g><g class="participant participant-tail" data-participant="UsersDatabase"><text fill="#000000" font-family="sans-serif" font-size="14" lengthAdjust="spacing" textLength="79.8848" x="1278.3389" y="478.8828">&#171;MongoDB&#187;</text><text fill="#000000" font-family="sans-serif" font-size="14" lengthAdjust="spacing" textLength="40.9199" x="1297.8213" y="495.3711">:users</text><path d="M1303.2813,508.3242 C1303.2813,498.3242 1321.2813,498.3242 1321.2813,498.3242 C1321.2813,498.3242 1339.2813,498.3242 1339.2813,508.3242 L1339.2813,534.3242 C1339.2813,544.3242 1321.2813,544.3242 1321.2813,544.3242 C1321.2813,544.3242 1303.2813,544.3242 1303.2813,534.3242 L1303.2813,508.3242" fill="#E2E2F0" style="stroke:#181818;stroke-width:0.5;"/><path d="M1303.2813,508.3242 C1303.2813,518.3242 1321.2813,518.3242 1321.2813,518.3242 C1321.2813,518.3242 1339.2813,518.3242 1339.2813,508.3242" fill="none" style="stroke:#181818;stroke-width:0.5;"/></g><g><title>..javaScript..</title><rect fill="#FFFFFF" height="291.7949" style="stroke:#181818;stroke-width:1;" width="10" x="492.6128" y="165.5527"/></g><g><title>..router..</title><rect fill="#FFFFFF" height="262.4844" style="stroke:#181818;stroke-width:1;" width="10" x="704.7173" y="194.8633"/></g><g><title>..controllers..</title><rect fill="#FFFFFF" height="233.1738" style="stroke:#181818;stroke-width:1;" width="10" x="811.3936" y="224.1738"/></g><g><title>..controllers..</title><rect fill="#FFFFFF" height="34.3105" style="stroke:#181818;stroke-width:1;" width="10" x="816.3936" y="378.7266"/></g><g><title>..model..</title><rect fill="#FFFFFF" height="87.9316" style="stroke:#181818;stroke-width:1;" width="10" x="1152.7173" y="253.4844"/></g><g><title>..MongoDB..</title><rect fill="#FFFFFF" height="29.3105" style="stroke:#181818;stroke-width:1;" width="10" x="1316.2813" y="282.7949"/></g><g class="message" data-participant-1="client" data-participant-2="server"><polygon fill="#181818" points="480.6128,161.5527,490.6128,165.5527,480.6128,169.5527,484.6128,165.5527" style="stroke:#181818;stroke-width:1;"/><line style="stroke:#181818;stroke-width:1;" x1="31.7524" x2="486.6128" y1="165.5527" y2="165.5527"/><text fill="#000000" font-family="sans-serif" font-size="13" lengthAdjust="spacing" textLength="441.8604" x="38.7524" y="160.8105">req.post('/api/v1/auth/register') { name, telephone, email, password }</text></g><g class="message" data-participant-1="server" data-participant-2="routerAuth"><polygon fill="#181818" points="692.7173,190.8633,702.7173,194.8633,692.7173,198.8633,696.7173,194.8633" style="stroke:#181818;stroke-width:1;"/><line style="stroke:#181818;stroke-width:1;" x1="502.6128" x2="698.7173" y1="194.8633" y2="194.8633"/><text fill="#000000" font-family="sans-serif" font-size="13" lengthAdjust="spacing" textLength="183.1045" x="509.6128" y="190.1211">app.use('/api/v1/auth', auth)</text></g><g class="message" data-participant-1="routerAuth" data-participant-2="controllersAuth"><polygon fill="#181818" points="799.3936,220.1738,809.3936,224.1738,799.3936,228.1738,803.3936,224.1738" style="stroke:#181818;stroke-width:1;"/><line style="stroke:#181818;stroke-width:1;" x1="714.7173" x2="805.3936" y1="224.1738" y2="224.1738"/><text fill="#000000" font-family="sans-serif" font-size="13" lengthAdjust="spacing" textLength="77.6763" x="721.7173" y="219.4316">register(req)</text></g><g class="message" data-participant-1="controllersAuth" data-participant-2="modelUser"><polygon fill="#181818" points="1140.7173,249.4844,1150.7173,253.4844,1140.7173,257.4844,1144.7173,253.4844" style="stroke:#181818;stroke-width:1;"/><line style="stroke:#181818;stroke-width:1;" x1="821.3936" x2="1146.7173" y1="253.4844" y2="253.4844"/><text fill="#000000" font-family="sans-serif" font-size="13" lengthAdjust="spacing" textLength="312.3237" x="828.3936" y="248.7422">create({ name, telephone, email, password, role })</text></g><g class="message" data-participant-1="modelUser" data-participant-2="UsersDatabase"><polygon fill="#181818" points="1304.2813,278.7949,1314.2813,282.7949,1304.2813,286.7949,1308.2813,282.7949" style="stroke:#181818;stroke-width:1;"/><line style="stroke:#181818;stroke-width:1;" x1="1162.7173" x2="1310.2813" y1="282.7949" y2="282.7949"/><text fill="#000000" font-family="sans-serif" font-size="13" lengthAdjust="spacing" textLength="134.564" x="1169.7173" y="278.0527">insert user document</text></g><g class="message" data-participant-1="UsersDatabase" data-participant-2="modelUser"><polygon fill="#181818" points="1173.7173,308.1055,1163.7173,312.1055,1173.7173,316.1055,1169.7173,312.1055" style="stroke:#181818;stroke-width:1;"/><line style="stroke:#181818;stroke-width:1;stroke-dasharray:2,2;" x1="1167.7173" x2="1320.2813" y1="312.1055" y2="312.1055"/><text fill="#000000" font-family="sans-serif" font-size="13" lengthAdjust="spacing" textLength="27.2568" x="1179.7173" y="307.3633">user</text></g><g class="message" data-participant-1="modelUser" data-participant-2="controllersAuth"><polygon fill="#181818" points="832.3936,337.416,822.3936,341.416,832.3936,345.416,828.3936,341.416" style="stroke:#181818;stroke-width:1;"/><line style="stroke:#181818;stroke-width:1;stroke-dasharray:2,2;" x1="826.3936" x2="1156.7173" y1="341.416" y2="341.416"/><text fill="#000000" font-family="sans-serif" font-size="13" lengthAdjust="spacing" textLength="27.2568" x="838.3936" y="336.6738">user</text></g><g class="message" data-participant-1="controllersAuth" data-participant-2="controllersAuth"><line style="stroke:#181818;stroke-width:1;" x1="821.3936" x2="868.3936" y1="365.7266" y2="365.7266"/><line style="stroke:#181818;stroke-width:1;" x1="868.3936" x2="868.3936" y1="365.7266" y2="378.7266"/><line style="stroke:#181818;stroke-width:1;" x1="827.3936" x2="868.3936" y1="378.7266" y2="378.7266"/><polygon fill="#181818" points="837.3936,374.7266,827.3936,378.7266,837.3936,382.7266,833.3936,378.7266" style="stroke:#181818;stroke-width:1;"/><text fill="#000000" font-family="sans-serif" font-size="13" lengthAdjust="spacing" textLength="165.1406" x="833.3936" y="360.9844">sendTokenResponse(user)</text></g><g class="message" data-participant-1="controllersAuth" data-participant-2="client"><polygon fill="#181818" points="42.7524,409.0371,32.7524,413.0371,42.7524,417.0371,38.7524,413.0371" style="stroke:#181818;stroke-width:1;"/><line style="stroke:#181818;stroke-width:1;" x1="36.7524" x2="810.3936" y1="413.0371" y2="413.0371"/><text fill="#000000" font-family="sans-serif" font-size="13" lengthAdjust="spacing" textLength="415.7715" x="48.7524" y="408.2949">response 200 { success: true, _id, name, telephone, email, token }</text></g><path d="M754,426.0371 L754,451.0371 L877,451.0371 L877,436.0371 L867,426.0371 L754,426.0371" fill="#FEFFDD" style="stroke:#181818;stroke-width:0.5;"/><path d="M867,426.0371 L867,436.0371 L877,436.0371 L867,426.0371" fill="#FEFFDD" style="stroke:#181818;stroke-width:0.5;"/><text fill="#000000" font-family="sans-serif" font-size="13" lengthAdjust="spacing" textLength="102.0957" x="760" y="443.6055">on error -&gt; 400</text><text fill="#888888" font-family="sans-serif" font-size="10" lengthAdjust="spacing" textLength="142.9004" x="1225.3232" y="14.668">GoCamply Sequence Diagram</text><text fill="#888888" font-family="sans-serif" font-size="10" lengthAdjust="spacing" textLength="54.8145" x="656.7046" y="554.9922">Page 1 of 1</text><!--SRC=[ZPFVQzim4CVVzLSSWH2RnaqszcI2OMsWJsMbwTu6usPV4wssJfNaZ37wl-yaXxNsMhONMJy-T_VLz-G3OKCEhlWIEzl-X1qzzcHgWgt6lSDEtJC70MvmJp2tCiw1xs7UeWzffO8EBS7iblRQH_Apbo6x-RIxosTAMNH1rzgY2J2xR3MPC0FqKAVf-7Yp-Ov7tDLEsr1LNqmfcOxa4ZzCfxpZNaec5ljmIEImzr6MKxfc4notBJa_3dbny5fSnmsrAIBUBKMahRXI3GRyXfuYUCrcpzkBXFPow1CRCRyzOKeDDo-guKPmTbQ2eyTpopvaYnLQlJg-MqLfAtUoT973Bp3OqH82jMGFR6HA7Ufs2HQz_y6kWISrP2ogPmTIThJsNDICao-M43-vUW4NrTI9axf1HYOoSpKb9EYF6Gcl7M6WxD-Abz8gUJbFkNfE8Db6TgMCsiXMWEWeD5ptNNmvOwmOoIYACj5_YTqKnVzWRnZXoJHt_43cbhnb4PN5w5Sj6PgSAhWJ3E_NQ-cZx-kQl2yXk5uy-Qh5XxUS2h6OD5OP-GU1utEPr2g13P1pdApxi5whtm00]--></g></svg>