<svg xmlns="http://www.w3.org/2000/svg" xmlns:xlink="http://www.w3.org/1999/xlink" contentStyleType="text/css" data-diagram-type="CLASS" height="712px" preserveAspectRatio="none" style="width:1277px;height:712px;background:#FFFFFF;" version="1.1" viewBox="0 0 1277 712" width="1277px" zoomAndPan="magnify"><title>Domain classes - aligned with models</title><defs/><g><g class="title" data-source-line="1"><text fill="#000000" font-family="sans-serif" font-size="14" font-weight="bold" lengthAdjust="spacing" textLength="277.0059" x="493.1599" y="23.5352">Domain classes - aligned with models</text></g><!--class User--><g class="entity" data-entity="User" data-source-line="7" data-uid="ent0002" id="entity_User"><rect fill="#F1F1F1" height="229.3711" rx="2.5" ry="2.5" style="stroke:#181818;stroke-width:0.5;" width="214.3232" x="575.78" y="268.4183"/><ellipse cx="663.509" cy="284.4183" fill="#ADD1B2" rx="11" ry="11" style="stroke:#181818;stroke-width:1;"/><path d="M665.9821,290.5613 Q665.4011,290.8602 664.7619,291.0096 Q664.1228,291.159 663.4172,291.159 Q660.9104,291.159 659.5905,289.5071 Q658.2707,287.8553 658.2707,284.7342 Q658.2707,281.6048 659.5905,279.9529 Q660.9104,278.3011 663.4172,278.3011 Q664.1228,278.3011 664.7702,278.4505 Q665.4177,278.5999 665.9821,278.8988 L665.9821,281.6214 Q665.3513,281.0404 664.7578,280.7706 Q664.1643,280.5008 663.5334,280.5008 Q662.1887,280.5008 661.5039,281.5675 Q660.8191,282.6341 660.8191,284.7342 Q660.8191,286.826 661.5039,287.8926 Q662.1887,288.9593 663.5334,288.9593 Q664.1643,288.9593 664.7578,288.6895 Q665.3513,288.4197 665.9821,287.8387 Z " fill="#000000"/><text fill="#000000" font-family="sans-serif" font-size="14" lengthAdjust="spacing" textLength="30.3652" x="684.009" y="289.7093">User</text><line style="stroke:#181818;stroke-width:0.5;" x1="576.78" x2="789.1032" y1="300.4183" y2="300.4183"/><rect fill="none" height="6" style="stroke:#C82930;stroke-width:1;" width="6" x="583.78" y="311.1624"/><text fill="#000000" font-family="sans-serif" font-size="14" lengthAdjust="spacing" textLength="78.7158" x="595.78" y="317.9534">id: ObjectId</text><rect fill="none" height="6" style="stroke:#C82930;stroke-width:1;" width="6" x="583.78" y="327.6507"/><text fill="#000000" font-family="sans-serif" font-size="14" lengthAdjust="spacing" textLength="86.1191" x="595.78" y="334.4417">name: String</text><rect fill="none" height="6" style="stroke:#C82930;stroke-width:1;" width="6" x="583.78" y="344.139"/><text fill="#000000" font-family="sans-serif" font-size="14" lengthAdjust="spacing" textLength="116.2998" x="595.78" y="350.93">telephone: String</text><rect fill="none" height="6" style="stroke:#C82930;stroke-width:1;" width="6" x="583.78" y="360.6273"/><text fill="#000000" font-family="sans-serif" font-size="14" lengthAdjust="spacing" textLength="85.5244" x="595.78" y="367.4183">email: String</text><rect fill="none" height="6" style="stroke:#C82930;stroke-width:1;" width="6" x="583.78" y="377.1155"/><text fill="#000000" font-family="sans-serif" font-size="14" lengthAdjust="spacing" textLength="134.8047" x="595.78" y="383.9066">role: String = "user"</text><rect fill="none" height="6" style="stroke:#C82930;stroke-width:1;" width="6" x="583.78" y="393.6038"/><text fill="#000000" font-family="sans-serif" font-size="14" lengthAdjust="spacing" textLength="179.2725" x="595.78" y="400.3948">password: String &#171;private&#187;</text><rect fill="none" height="6" style="stroke:#C82930;stroke-width:1;" width="6" x="583.78" y="410.0921"/><text fill="#000000" font-family="sans-serif" font-size="14" lengthAdjust="spacing" textLength="188.3232" x="595.78" y="416.8831">resetPasswordToken: String</text><rect fill="none" height="6" style="stroke:#C82930;stroke-width:1;" width="6" x="583.78" y="426.5804"/><text fill="#000000" font-family="sans-serif" font-size="14" lengthAdjust="spacing" textLength="180.0449" x="595.78" y="433.3714">resetPasswordExpire: Date</text><rect fill="none" height="6" style="stroke:#C82930;stroke-width:1;" width="6" x="583.78" y="443.0687"/><text fill="#000000" font-family="sans-serif" font-size="14" lengthAdjust="spacing" textLength="105.2871" x="595.78" y="449.8597">createdAt: Date</text><line style="stroke:#181818;stroke-width:0.5;" x1="576.78" x2="789.1032" y1="456.8128" y2="456.8128"/><ellipse cx="586.78" cy="470.557" fill="#84BE84" rx="3" ry="3" style="stroke:#038048;stroke-width:1;"/><text fill="#000000" font-family="sans-serif" font-size="14" lengthAdjust="spacing" textLength="138.9883" x="595.78" y="474.348">getSignedJwtToken()</text><ellipse cx="586.78" cy="487.0452" fill="#84BE84" rx="3" ry="3" style="stroke:#038048;stroke-width:1;"/><text fill="#000000" font-family="sans-serif" font-size="14" lengthAdjust="spacing" textLength="114.6729" x="595.78" y="490.8363">matchPassword()</text></g><!--class Campground--><g class="entity" data-entity="Campground" data-source-line="21" data-uid="ent0003" id="entity_Campground"><rect fill="#F1F1F1" height="130.4414" rx="2.5" ry="2.5" style="stroke:#181818;stroke-width:0.5;" width="178.9814" x="358.45" y="317.8783"/><ellipse cx="399.746" cy="333.8783" fill="#ADD1B2" rx="11" ry="11" style="stroke:#181818;stroke-width:1;"/><path d="M402.2191,340.0213 Q401.6381,340.3202 400.9989,340.4696 Q400.3598,340.619 399.6542,340.619 Q397.1474,340.619 395.8275,338.9671 Q394.5077,337.3153 394.5077,334.1942 Q394.5077,331.0648 395.8275,329.4129 Q397.1474,327.7611 399.6542,327.7611 Q400.3598,327.7611 401.0072,327.9105 Q401.6547,328.0599 402.2191,328.3588 L402.2191,331.0814 Q401.5883,330.5004 400.9948,330.2306 Q400.4013,329.9608 399.7704,329.9608 Q398.4257,329.9608 397.7409,331.0275 Q397.0561,332.0941 397.0561,334.1942 Q397.0561,336.286 397.7409,337.3526 Q398.4257,338.4193 399.7704,338.4193 Q400.4013,338.4193 400.9948,338.1495 Q401.5883,337.8797 402.2191,337.2987 Z " fill="#000000"/><text fill="#000000" font-family="sans-serif" font-size="14" lengthAdjust="spacing" textLength="88.5459" x="419.5896" y="339.1693">Campground</text><line style="stroke:#181818;stroke-width:0.5;" x1="359.45" x2="536.4314" y1="349.8783" y2="349.8783"/><rect fill="none" height="6" style="stroke:#C82930;stroke-width:1;" width="6" x="366.45" y="360.6224"/><text fill="#000000" font-family="sans-serif" font-size="14" lengthAdjust="spacing" textLength="85.7158" x="378.45" y="367.4134">_id: ObjectId</text><rect fill="none" height="6" style="stroke:#C82930;stroke-width:1;" width="6" x="366.45" y="377.1107"/><text fill="#000000" font-family="sans-serif" font-size="14" lengthAdjust="spacing" textLength="86.1191" x="378.45" y="383.9017">name: String</text><rect fill="none" height="6" style="stroke:#C82930;stroke-width:1;" width="6" x="366.45" y="393.599"/><text fill="#000000" font-family="sans-serif" font-size="14" lengthAdjust="spacing" textLength="101.9854" x="378.45" y="400.39">address: String</text><rect fill="none" height="6" style="stroke:#C82930;stroke-width:1;" width="6" x="366.45" y="410.0873"/><text fill="#000000" font-family="sans-serif" font-size="14" lengthAdjust="spacing" textLength="116.2998" x="378.45" y="416.8783">telephone: String</text><rect fill="none" height="6" style="stroke:#C82930;stroke-width:1;" width="6" x="366.45" y="426.5755"/><text fill="#000000" font-family="sans-serif" font-size="14" lengthAdjust="spacing" textLength="152.9814" x="378.45" y="433.3666">dailyCapacity: Number</text><line style="stroke:#181818;stroke-width:0.5;" x1="359.45" x2="536.4314" y1="440.3197" y2="440.3197"/></g><!--class Appointment--><g class="entity" data-entity="Appointment" data-source-line="29" data-uid="ent0004" id="entity_Appointment"><rect fill="#F1F1F1" height="130.4414" rx="2.5" ry="2.5" style="stroke:#181818;stroke-width:0.5;" width="177.8877" x="7" y="574.7883"/><ellipse cx="47.7577" cy="590.7883" fill="#ADD1B2" rx="11" ry="11" style="stroke:#181818;stroke-width:1;"/><path d="M50.2308,596.9313 Q49.6498,597.2302 49.0106,597.3796 Q48.3714,597.529 47.6659,597.529 Q45.159,597.529 43.8392,595.8771 Q42.5194,594.2253 42.5194,591.1042 Q42.5194,587.9748 43.8392,586.3229 Q45.159,584.6711 47.6659,584.6711 Q48.3714,584.6711 49.0189,584.8205 Q49.6664,584.9699 50.2308,585.2688 L50.2308,587.9914 Q49.6,587.4104 49.0064,587.1406 Q48.4129,586.8708 47.7821,586.8708 Q46.4374,586.8708 45.7525,587.9375 Q45.0677,589.0041 45.0677,591.1042 Q45.0677,593.196 45.7525,594.2626 Q46.4374,595.3293 47.7821,595.3293 Q48.4129,595.3293 49.0064,595.0595 Q49.6,594.7897 50.2308,594.2087 Z " fill="#000000"/><text fill="#000000" font-family="sans-serif" font-size="14" lengthAdjust="spacing" textLength="88.6484" x="67.4816" y="596.0793">Appointment</text><line style="stroke:#181818;stroke-width:0.5;" x1="8" x2="183.8877" y1="606.7883" y2="606.7883"/><rect fill="none" height="6" style="stroke:#C82930;stroke-width:1;" width="6" x="15" y="617.5324"/><text fill="#000000" font-family="sans-serif" font-size="14" lengthAdjust="spacing" textLength="78.7158" x="27" y="624.3234">id: ObjectId</text><rect fill="none" height="6" style="stroke:#C82930;stroke-width:1;" width="6" x="15" y="634.0207"/><text fill="#000000" font-family="sans-serif" font-size="14" lengthAdjust="spacing" textLength="101.958" x="27" y="640.8117">apptDate: Date</text><rect fill="none" height="6" style="stroke:#C82930;stroke-width:1;" width="6" x="15" y="650.509"/><text fill="#000000" font-family="sans-serif" font-size="14" lengthAdjust="spacing" textLength="95.2109" x="27" y="657.3">user: ObjectId</text><rect fill="none" height="6" style="stroke:#C82930;stroke-width:1;" width="6" x="15" y="666.9973"/><text fill="#000000" font-family="sans-serif" font-size="14" lengthAdjust="spacing" textLength="151.8877" x="27" y="673.7883">campground: ObjectId</text><rect fill="none" height="6" style="stroke:#C82930;stroke-width:1;" width="6" x="15" y="683.4855"/><text fill="#000000" font-family="sans-serif" font-size="14" lengthAdjust="spacing" textLength="105.2871" x="27" y="690.2766">createdAt: Date</text><line style="stroke:#181818;stroke-width:0.5;" x1="8" x2="183.8877" y1="697.2297" y2="697.2297"/></g><!--class Favorite--><g class="entity" data-entity="Favorite" data-source-line="37" data-uid="ent0005" id="entity_Favorite"><rect fill="#F1F1F1" height="113.9531" rx="2.5" ry="2.5" style="stroke:#181818;stroke-width:0.5;" width="177.8877" x="805" y="583.0283"/><ellipse cx="862.7466" cy="599.0283" fill="#ADD1B2" rx="11" ry="11" style="stroke:#181818;stroke-width:1;"/><path d="M865.2197,605.1713 Q864.6387,605.4702 863.9995,605.6196 Q863.3604,605.769 862.6548,605.769 Q860.1479,605.769 858.8281,604.1171 Q857.5083,602.4653 857.5083,599.3442 Q857.5083,596.2148 858.8281,594.5629 Q860.1479,592.9111 862.6548,592.9111 Q863.3604,592.9111 864.0078,593.0605 Q864.6553,593.2099 865.2197,593.5088 L865.2197,596.2314 Q864.5889,595.6504 863.9954,595.3806 Q863.4019,595.1108 862.771,595.1108 Q861.4263,595.1108 860.7415,596.1775 Q860.0566,597.2441 860.0566,599.3442 Q860.0566,601.436 860.7415,602.5026 Q861.4263,603.5693 862.771,603.5693 Q863.4019,603.5693 863.9954,603.2995 Q864.5889,603.0297 865.2197,602.4487 Z " fill="#000000"/><text fill="#000000" font-family="sans-serif" font-size="14" lengthAdjust="spacing" textLength="53.8945" x="883.2466" y="604.3193">Favorite</text><line style="stroke:#181818;stroke-width:0.5;" x1="806" x2="981.8877" y1="615.0283" y2="615.0283"/><rect fill="none" height="6" style="stroke:#C82930;stroke-width:1;" width="6" x="813" y="625.7724"/><text fill="#000000" font-family="sans-serif" font-size="14" lengthAdjust="spacing" textLength="78.7158" x="825" y="632.5634">id: ObjectId</text><rect fill="none" height="6" style="stroke:#C82930;stroke-width:1;" width="6" x="813" y="642.2607"/><text fill="#000000" font-family="sans-serif" font-size="14" lengthAdjust="spacing" textLength="95.2109" x="825" y="649.0517">user: ObjectId</text><rect fill="none" height="6" style="stroke:#C82930;stroke-width:1;" width="6" x="813" y="658.749"/><text fill="#000000" font-family="sans-serif" font-size="14" lengthAdjust="spacing" textLength="151.8877" x="825" y="665.54">campground: ObjectId</text><rect fill="none" height="6" style="stroke:#C82930;stroke-width:1;" width="6" x="813" y="675.2373"/><text fill="#000000" font-family="sans-serif" font-size="14" lengthAdjust="spacing" textLength="105.2871" x="825" y="682.0283">createdAt: Date</text><line style="stroke:#181818;stroke-width:0.5;" x1="806" x2="981.8877" y1="688.9814" y2="688.9814"/></g><g class="entity" data-entity="GMN6" data-source-line="45" data-uid="ent0007" id="entity_GMN6"><path d="M1017.56,627.3483 L1017.56,636.0083 L983.3,640.0083 L1017.56,644.0083 L1017.56,652.6588 A0,0 0 0 0 1017.56,652.6588 L1270.3256,652.6588 A0,0 0 0 0 1270.3256,652.6588 L1270.3256,637.3483 L1260.3256,627.3483 L1017.56,627.3483 A0,0 0 0 0 1017.56,627.3483" fill="#FEFFDD" style="stroke:#181818;stroke-width:0.5;"/><path d="M1260.3256,627.3483 L1260.3256,637.3483 L1270.3256,637.3483 L1260.3256,627.3483" fill="#FEFFDD" style="stroke:#181818;stroke-width:0.5;"/><text fill="#000000" font-family="sans-serif" font-size="13" lengthAdjust="spacing" textLength="231.7656" x="1023.56" y="644.9166">Unique index on (user, campground)</text></g><!--class CampgroundController--><g class="entity" data-entity="CampgroundController" data-source-line="50" data-uid="ent0009" id="entity_CampgroundController"><rect fill="#F1F1F1" height="146.9297" rx="2.5" ry="2.5" style="stroke:#181818;stroke-width:0.5;" width="222.5947" x="336.65" y="44.4883"/><ellipse cx="366.8995" cy="60.4883" fill="#ADD1B2" rx="11" ry="11" style="stroke:#181818;stroke-width:1;"/><path d="M369.3726,66.6313 Q368.7916,66.9302 368.1524,67.0796 Q367.5132,67.229 366.8077,67.229 Q364.3008,67.229 362.981,65.5771 Q361.6612,63.9253 361.6612,60.8042 Q361.6612,57.6748 362.981,56.0229 Q364.3008,54.3711 366.8077,54.3711 Q367.5132,54.3711 368.1607,54.5205 Q368.8082,54.6699 369.3726,54.9688 L369.3726,57.6914 Q368.7417,57.1104 368.1482,56.8406 Q367.5547,56.5708 366.9239,56.5708 Q365.5792,56.5708 364.8943,57.6375 Q364.2095,58.7041 364.2095,60.8042 Q364.2095,62.896 364.8943,63.9626 Q365.5792,65.0293 366.9239,65.0293 Q367.5547,65.0293 368.1482,64.7595 Q368.7417,64.4897 369.3726,63.9087 Z " fill="#000000"/><text fill="#000000" font-family="sans-serif" font-size="14" lengthAdjust="spacing" textLength="156.707" x="384.2882" y="65.7793">CampgroundController</text><line style="stroke:#181818;stroke-width:0.5;" x1="337.65" x2="558.2447" y1="76.4883" y2="76.4883"/><line style="stroke:#181818;stroke-width:0.5;" x1="337.65" x2="558.2447" y1="84.4883" y2="84.4883"/><ellipse cx="347.65" cy="98.2324" fill="#84BE84" rx="3" ry="3" style="stroke:#038048;stroke-width:1;"/><text fill="#000000" font-family="sans-serif" font-size="14" lengthAdjust="spacing" textLength="178.418" x="356.65" y="102.0234">getCampgrounds(req, res)</text><ellipse cx="347.65" cy="114.7207" fill="#84BE84" rx="3" ry="3" style="stroke:#038048;stroke-width:1;"/><text fill="#000000" font-family="sans-serif" font-size="14" lengthAdjust="spacing" textLength="171.2813" x="356.65" y="118.5117">getCampground(req, res)</text><ellipse cx="347.65" cy="131.209" fill="#84BE84" rx="3" ry="3" style="stroke:#038048;stroke-width:1;"/><text fill="#000000" font-family="sans-serif" font-size="14" lengthAdjust="spacing" textLength="190.9824" x="356.65" y="135">createCampground(req, res)</text><ellipse cx="347.65" cy="147.6973" fill="#84BE84" rx="3" ry="3" style="stroke:#038048;stroke-width:1;"/><text fill="#000000" font-family="sans-serif" font-size="14" lengthAdjust="spacing" textLength="196.5947" x="356.65" y="151.4883">updateCampground(req, res)</text><ellipse cx="347.65" cy="164.1855" fill="#84BE84" rx="3" ry="3" style="stroke:#038048;stroke-width:1;"/><text fill="#000000" font-family="sans-serif" font-size="14" lengthAdjust="spacing" textLength="191.0098" x="356.65" y="167.9766">deleteCampground(req, res)</text><ellipse cx="347.65" cy="180.6738" fill="#84BE84" rx="3" ry="3" style="stroke:#038048;stroke-width:1;"/><text fill="#000000" font-family="sans-serif" font-size="14" lengthAdjust="spacing" textLength="156.7002" x="356.65" y="184.4648">getAvailability(req, res)</text></g><!--class AppointmentController--><g class="entity" data-entity="AppointmentController" data-source-line="59" data-uid="ent0010" id="entity_AppointmentController"><rect fill="#F1F1F1" height="130.4414" rx="2.5" ry="2.5" style="stroke:#181818;stroke-width:0.5;" width="222.6973" x="65.6" y="52.7283"/><ellipse cx="95.8495" cy="68.7283" fill="#ADD1B2" rx="11" ry="11" style="stroke:#181818;stroke-width:1;"/><path d="M98.3226,74.8713 Q97.7416,75.1702 97.1024,75.3196 Q96.4632,75.469 95.7577,75.469 Q93.2508,75.469 91.931,73.8171 Q90.6112,72.1653 90.6112,69.0442 Q90.6112,65.9148 91.931,64.2629 Q93.2508,62.6111 95.7577,62.6111 Q96.4632,62.6111 97.1107,62.7605 Q97.7582,62.9099 98.3226,63.2088 L98.3226,65.9314 Q97.6917,65.3504 97.0982,65.0806 Q96.5047,64.8108 95.8739,64.8108 Q94.5292,64.8108 93.8443,65.8775 Q93.1595,66.9441 93.1595,69.0442 Q93.1595,71.136 93.8443,72.2026 Q94.5292,73.2693 95.8739,73.2693 Q96.5047,73.2693 97.0982,72.9995 Q97.6917,72.7297 98.3226,72.1487 Z " fill="#000000"/><text fill="#000000" font-family="sans-serif" font-size="14" lengthAdjust="spacing" textLength="156.8096" x="113.2382" y="74.0193">AppointmentController</text><line style="stroke:#181818;stroke-width:0.5;" x1="66.6" x2="287.2973" y1="84.7283" y2="84.7283"/><line style="stroke:#181818;stroke-width:0.5;" x1="66.6" x2="287.2973" y1="92.7283" y2="92.7283"/><ellipse cx="76.6" cy="106.4724" fill="#84BE84" rx="3" ry="3" style="stroke:#038048;stroke-width:1;"/><text fill="#000000" font-family="sans-serif" font-size="14" lengthAdjust="spacing" textLength="178.5205" x="85.6" y="110.2634">getAppointments(req, res)</text><ellipse cx="76.6" cy="122.9607" fill="#84BE84" rx="3" ry="3" style="stroke:#038048;stroke-width:1;"/><text fill="#000000" font-family="sans-serif" font-size="14" lengthAdjust="spacing" textLength="171.3838" x="85.6" y="126.7517">getAppointment(req, res)</text><ellipse cx="76.6" cy="139.449" fill="#84BE84" rx="3" ry="3" style="stroke:#038048;stroke-width:1;"/><text fill="#000000" font-family="sans-serif" font-size="14" lengthAdjust="spacing" textLength="174.9727" x="85.6" y="143.24">addAppointment(req, res)</text><ellipse cx="76.6" cy="155.9373" fill="#84BE84" rx="3" ry="3" style="stroke:#038048;stroke-width:1;"/><text fill="#000000" font-family="sans-serif" font-size="14" lengthAdjust="spacing" textLength="196.6973" x="85.6" y="159.7283">updateAppointment(req, res)</text><ellipse cx="76.6" cy="172.4255" fill="#84BE84" rx="3" ry="3" style="stroke:#038048;stroke-width:1;"/><text fill="#000000" font-family="sans-serif" font-size="14" lengthAdjust="spacing" textLength="191.1123" x="85.6" y="176.2166">deleteAppointment(req, res)</text></g><!--class FavoriteController--><g class="entity" data-entity="FavoriteController" data-source-line="67" data-uid="ent0011" id="entity_FavoriteController"><rect fill="#F1F1F1" height="97.4648" rx="2.5" ry="2.5" style="stroke:#181818;stroke-width:0.5;" width="191.1084" x="794.39" y="69.2183"/><ellipse cx="826.0637" cy="85.2183" fill="#ADD1B2" rx="11" ry="11" style="stroke:#181818;stroke-width:1;"/><path d="M828.5369,91.3613 Q827.9558,91.6602 827.3167,91.8096 Q826.6775,91.959 825.9719,91.959 Q823.4651,91.959 822.1453,90.3071 Q820.8254,88.6553 820.8254,85.5342 Q820.8254,82.4048 822.1453,80.7529 Q823.4651,79.1011 825.9719,79.1011 Q826.6775,79.1011 827.325,79.2505 Q827.9724,79.3999 828.5369,79.6988 L828.5369,82.4214 Q827.906,81.8404 827.3125,81.5706 Q826.719,81.3008 826.0881,81.3008 Q824.7434,81.3008 824.0586,82.3675 Q823.3738,83.4341 823.3738,85.5342 Q823.3738,87.626 824.0586,88.6926 Q824.7434,89.7593 826.0881,89.7593 Q826.719,89.7593 827.3125,89.4895 Q827.906,89.2197 828.5369,88.6387 Z " fill="#000000"/><text fill="#000000" font-family="sans-serif" font-size="14" lengthAdjust="spacing" textLength="122.0557" x="843.769" y="90.5093">FavoriteController</text><line style="stroke:#181818;stroke-width:0.5;" x1="795.39" x2="984.4984" y1="101.2183" y2="101.2183"/><line style="stroke:#181818;stroke-width:0.5;" x1="795.39" x2="984.4984" y1="109.2183" y2="109.2183"/><ellipse cx="805.39" cy="122.9624" fill="#84BE84" rx="3" ry="3" style="stroke:#038048;stroke-width:1;"/><text fill="#000000" font-family="sans-serif" font-size="14" lengthAdjust="spacing" textLength="140.2188" x="814.39" y="126.7534">addFavorite(req, res)</text><ellipse cx="805.39" cy="139.4507" fill="#84BE84" rx="3" ry="3" style="stroke:#038048;stroke-width:1;"/><text fill="#000000" font-family="sans-serif" font-size="14" lengthAdjust="spacing" textLength="165.1084" x="814.39" y="143.2417">removeFavorite(req, res)</text><ellipse cx="805.39" cy="155.939" fill="#84BE84" rx="3" ry="3" style="stroke:#038048;stroke-width:1;"/><text fill="#000000" font-family="sans-serif" font-size="14" lengthAdjust="spacing" textLength="163.1396" x="814.39" y="159.73">getMyFavorites(req, res)</text></g><!--class AuthController--><g class="entity" data-entity="AuthController" data-source-line="73" data-uid="ent0012" id="entity_AuthController"><rect fill="#F1F1F1" height="113.9531" rx="2.5" ry="2.5" style="stroke:#181818;stroke-width:0.5;" width="139.1758" x="613.36" y="60.9783"/><ellipse cx="631.394" cy="76.9783" fill="#ADD1B2" rx="11" ry="11" style="stroke:#181818;stroke-width:1;"/><path d="M633.8671,83.1213 Q633.2861,83.4202 632.6469,83.5696 Q632.0078,83.719 631.3022,83.719 Q628.7954,83.719 627.4755,82.0671 Q626.1557,80.4153 626.1557,77.2942 Q626.1557,74.1648 627.4755,72.5129 Q628.7954,70.8611 631.3022,70.8611 Q632.0078,70.8611 632.6552,71.0105 Q633.3027,71.1599 633.8671,71.4588 L633.8671,74.1814 Q633.2363,73.6004 632.6428,73.3306 Q632.0493,73.0608 631.4184,73.0608 Q630.0737,73.0608 629.3889,74.1275 Q628.704,75.1941 628.704,77.2942 Q628.704,79.386 629.3889,80.4526 Q630.0737,81.5193 631.4184,81.5193 Q632.0493,81.5193 632.6428,81.2495 Q633.2363,80.9797 633.8671,80.3987 Z " fill="#000000"/><text fill="#000000" font-family="sans-serif" font-size="14" lengthAdjust="spacing" textLength="100.4336" x="646.0682" y="82.2693">AuthController</text><line style="stroke:#181818;stroke-width:0.5;" x1="614.36" x2="751.5358" y1="92.9783" y2="92.9783"/><line style="stroke:#181818;stroke-width:0.5;" x1="614.36" x2="751.5358" y1="100.9783" y2="100.9783"/><ellipse cx="624.36" cy="114.7224" fill="#84BE84" rx="3" ry="3" style="stroke:#038048;stroke-width:1;"/><text fill="#000000" font-family="sans-serif" font-size="14" lengthAdjust="spacing" textLength="113.1758" x="633.36" y="118.5134">register(req, res)</text><ellipse cx="624.36" cy="131.2107" fill="#84BE84" rx="3" ry="3" style="stroke:#038048;stroke-width:1;"/><text fill="#000000" font-family="sans-serif" font-size="14" lengthAdjust="spacing" textLength="95.0811" x="633.36" y="135.0017">login(req, res)</text><ellipse cx="624.36" cy="147.699" fill="#84BE84" rx="3" ry="3" style="stroke:#038048;stroke-width:1;"/><text fill="#000000" font-family="sans-serif" font-size="14" lengthAdjust="spacing" textLength="104.8701" x="633.36" y="151.49">logout(req, res)</text><ellipse cx="624.36" cy="164.1873" fill="#84BE84" rx="3" ry="3" style="stroke:#038048;stroke-width:1;"/><text fill="#000000" font-family="sans-serif" font-size="14" lengthAdjust="spacing" textLength="102.5938" x="633.36" y="167.9783">getMe(req, res)</text></g><g class="entity" data-entity="GMN23" data-source-line="95" data-uid="ent0024" id="entity_GMN23"><path d="M219.51,627.3483 L219.51,636.0083 L185.17,640.0083 L219.51,644.0083 L219.51,652.6588 A0,0 0 0 0 219.51,652.6588 L770.3679,652.6588 A0,0 0 0 0 770.3679,652.6588 L770.3679,637.3483 L760.3679,627.3483 L219.51,627.3483 A0,0 0 0 0 219.51,627.3483" fill="#FEFFDD" style="stroke:#181818;stroke-width:0.5;"/><path d="M760.3679,627.3483 L760.3679,637.3483 L770.3679,637.3483 L760.3679,627.3483" fill="#FEFFDD" style="stroke:#181818;stroke-width:0.5;"/><text fill="#000000" font-family="sans-serif" font-size="13" lengthAdjust="spacing" textLength="529.8579" x="225.51" y="644.9166">Max 3 appointments per user (enforced in AppointmentController.addAppointment)</text></g><!--link CampgroundController to Campground--><g class="link" data-entity-1="CampgroundController" data-entity-2="Campground" data-source-line="81" data-uid="lnk13" id="link_CampgroundController_Campground"><path codeLine="81" d="M447.94,191.9083 C447.94,231.2983 447.94,273.5083 447.94,311.5283" fill="none" id="CampgroundController-to-Campground" style="stroke:#181818;stroke-width:1;stroke-dasharray:7,7;"/><polygon fill="#181818" points="447.94,317.5283,451.94,308.5283,447.94,312.5283,443.94,308.5283,447.94,317.5283" style="stroke:#181818;stroke-width:1;"/><text fill="#000000" font-family="sans-serif" font-size="13" lengthAdjust="spacing" textLength="28.5645" x="448.94" y="234.9866">uses</text></g><!--link AppointmentController to Appointment--><g class="link" data-entity-1="AppointmentController" data-entity-2="Appointment" data-source-line="82" data-uid="lnk14" id="link_AppointmentController_Appointment"><path codeLine="82" d="M166.89,183.4983 C151.32,283.4683 122.4732,468.6797 106.9132,568.5997" fill="none" id="AppointmentController-to-Appointment" style="stroke:#181818;stroke-width:1;stroke-dasharray:7,7;"/><polygon fill="#181818" points="105.99,574.5283,111.3272,566.2509,106.7594,569.5878,103.4225,565.02,105.99,574.5283" style="stroke:#181818;stroke-width:1;"/><text fill="#000000" font-family="sans-serif" font-size="13" lengthAdjust="spacing" textLength="28.5645" x="154.51" y="388.1666">uses</text></g><!--link AppointmentController to Campground--><g class="link" data-entity-1="AppointmentController" data-entity-2="Campground" data-source-line="83" data-uid="lnk15" id="link_AppointmentController_Campground"><path codeLine="83" d="M243.58,183.6583 C285.59,224.4483 335.3052,272.7287 377.2552,313.4587" fill="none" id="AppointmentController-to-Campground" style="stroke:#181818;stroke-width:1;stroke-dasharray:7,7;"/><polygon fill="#181818" points="381.56,317.6383,377.8892,308.4991,377.9727,314.1553,372.3164,314.2388,381.56,317.6383" style="stroke:#181818;stroke-width:1;"/><text fill="#000000" font-family="sans-serif" font-size="13" lengthAdjust="spacing" textLength="28.5645" x="297.22" y="234.9866">uses</text></g><!--link FavoriteController to Favorite--><g class="link" data-entity-1="FavoriteController" data-entity-2="Favorite" data-source-line="84" data-uid="lnk16" id="link_FavoriteController_Favorite"><path codeLine="84" d="M890.31,166.9483 C891.05,263.2483 892.6739,473.6285 893.4639,576.5485" fill="none" id="FavoriteController-to-Favorite" style="stroke:#181818;stroke-width:1;stroke-dasharray:7,7;"/><polygon fill="#181818" points="893.51,582.5483,897.4408,573.5178,893.4716,577.5484,889.441,573.5792,893.51,582.5483" style="stroke:#181818;stroke-width:1;"/><text fill="#000000" font-family="sans-serif" font-size="13" lengthAdjust="spacing" textLength="28.5645" x="893.85" y="388.1666">uses</text></g><!--link FavoriteController to Campground--><g class="link" data-entity-1="FavoriteController" data-entity-2="Campground" data-source-line="85" data-uid="lnk17" id="link_FavoriteController_Campground"><path codeLine="85" d="M818.2,167.1383 C802.74,176.1183 786.15,184.7683 769.94,191.4183 C717.09,213.1083 698.3,200.9983 644.94,221.4183 C603.9,237.1183 592.97,241.8683 557.94,268.4183 C539.01,282.7683 524.4747,296.0791 508.0247,313.1391" fill="none" id="FavoriteController-to-Campground" style="stroke:#181818;stroke-width:1;stroke-dasharray:7,7;"/><polygon fill="#181818" points="503.86,317.4583,512.9865,313.756,507.3306,313.859,507.2276,308.2031,503.86,317.4583" style="stroke:#181818;stroke-width:1;"/><text fill="#000000" font-family="sans-serif" font-size="13" lengthAdjust="spacing" textLength="28.5645" x="645.94" y="234.9866">uses</text></g><!--link AuthController to User--><g class="link" data-entity-1="AuthController" data-entity-2="User" data-source-line="86" data-uid="lnk18" id="link_AuthController_User"><path codeLine="86" d="M682.94,175.4083 C682.94,202.5083 682.94,230.0183 682.94,262.1083" fill="none" id="AuthController-to-User" style="stroke:#181818;stroke-width:1;stroke-dasharray:7,7;"/><polygon fill="#181818" points="682.94,268.1083,686.94,259.1083,682.94,263.1083,678.94,259.1083,682.94,268.1083" style="stroke:#181818;stroke-width:1;"/><text fill="#000000" font-family="sans-serif" font-size="13" lengthAdjust="spacing" textLength="28.5645" x="683.94" y="234.9866">uses</text></g><!--reverse link User to Appointment--><g class="link" data-entity-1="User" data-entity-2="Appointment" data-source-line="89" data-uid="lnk19" id="link_User_Appointment"><path codeLine="89" d="M565.2229,492.5128 C558.5429,496.8028 561.83,494.2883 554.94,497.7883 C411.81,570.5783 351.08,515.2683 201.94,574.7883 C196.35,577.0183 190.71,579.5283 185.1,582.2383" fill="none" id="User-backto-Appointment" style="stroke:#181818;stroke-width:1;"/><polygon fill="none" points="575.32,486.0283,568.11,485.9048,565.2229,492.5128,572.433,492.6362,575.32,486.0283" style="stroke:#181818;stroke-width:1;"/><text fill="#000000" font-family="sans-serif" font-size="13" lengthAdjust="spacing" textLength="40.7837" x="478.59" y="541.3566">makes</text><text fill="#000000" font-family="sans-serif" font-size="13" lengthAdjust="spacing" textLength="8.2202" x="559.4793" y="490.3171">1</text><text fill="#000000" font-family="sans-serif" font-size="13" lengthAdjust="spacing" textLength="24.667" x="192.8703" y="590.9697">0..3</text></g><!--reverse link User to Favorite--><g class="link" data-entity-1="User" data-entity-2="Favorite" data-source-line="90" data-uid="lnk20" id="link_User_Favorite"><path codeLine="90" d="M764.1305,507.5568 C775.9405,523.7168 781.35,530.1283 793.94,544.7883 C804.98,557.6283 817.59,570.5983 830.05,582.6383" fill="none" id="User-backto-Favorite" style="stroke:#181818;stroke-width:1;"/><polygon fill="none" points="757.05,497.8683,757.3608,505.0727,764.1305,507.5568,763.8197,500.3524,757.05,497.8683" style="stroke:#181818;stroke-width:1;"/><text fill="#000000" font-family="sans-serif" font-size="13" lengthAdjust="spacing" textLength="70.6113" x="794.94" y="541.3566">bookmarks</text><text fill="#000000" font-family="sans-serif" font-size="13" lengthAdjust="spacing" textLength="8.2202" x="753.5484" y="518.2792">1</text><text fill="#000000" font-family="sans-serif" font-size="13" lengthAdjust="spacing" textLength="6.2651" x="815.9135" y="572.32">*</text></g><!--reverse link Campground to Appointment--><g class="link" data-entity-1="Campground" data-entity-2="Appointment" data-source-line="91" data-uid="lnk21" id="link_Campground_Appointment"><path codeLine="91" d="M348.9402,455.7958 C295.7802,494.2858 238.27,535.9383 185.13,574.4283" fill="none" id="Campground-backto-Appointment" style="stroke:#181818;stroke-width:1;"/><polygon fill="none" points="358.66,448.7583,351.4543,449.0371,348.9402,455.7958,356.146,455.5169,358.66,448.7583" style="stroke:#181818;stroke-width:1;"/><text fill="#000000" font-family="sans-serif" font-size="13" lengthAdjust="spacing" textLength="34.1694" x="241.42" y="541.3566">hosts</text><text fill="#000000" font-family="sans-serif" font-size="13" lengthAdjust="spacing" textLength="8.2202" x="342.362" y="451.5203">1</text><text fill="#000000" font-family="sans-serif" font-size="13" lengthAdjust="spacing" textLength="6.2651" x="188.5711" y="564.0204">*</text></g><!--reverse link Campground to Favorite--><g class="link" data-entity-1="Campground" data-entity-2="Favorite" data-source-line="92" data-uid="lnk22" id="link_Campground_Favorite"><path codeLine="92" d="M509.7229,457.3417 C526.5029,474.8917 537.68,484.1183 557.94,497.7883 C604.06,528.8883 621.16,527.2283 673.94,544.7883 C723.66,561.3283 739.71,554.3383 787.94,574.7883 C793.59,577.1783 799.29,579.8383 804.97,582.6683" fill="none" id="Campground-backto-Favorite" style="stroke:#181818;stroke-width:1;"/><polygon fill="none" points="501.43,448.6683,502.6853,455.7693,509.7229,457.3417,508.4676,450.2407,501.43,448.6683" style="stroke:#181818;stroke-width:1;"/><text fill="#000000" font-family="sans-serif" font-size="13" lengthAdjust="spacing" textLength="96.2939" x="674.94" y="541.3566">is_bookmarked</text><text fill="#000000" font-family="sans-serif" font-size="13" lengthAdjust="spacing" textLength="8.2202" x="498.5449" y="468.7879">1</text><text fill="#000000" font-family="sans-serif" font-size="13" lengthAdjust="spacing" textLength="6.2651" x="790.7904" y="574.476">*</text></g><!--SRC=[fLPDRzim3BtxLn2-D5cJR4DlGHSWQ3UW0xeLQtik58knjTYIAibfYcB_VRGJE_9NEc0tWu_Yn-CZ4oTSYd2jCYOaH2cp5YrCWQKYbiZXHRW4CiKnjK5mTWOFYR301OiDoy3WEiN8MN09mgsIiL8M3zv0uVPV7-V5moayMZGJk6APZetA9P_0KcibfCjGkWbyOrjbXCEzyy_LRufyms4jCEMsI8K6POIWA9cfIoehBaF3Mm3qKF1v_RWqI9RX7EwT4J8k3GvJr8cIJIiI0Md3ObHQky0N27DA4fQ8ffmlol0QlRpKHcoPmyLY_nGjkhk3ruFQe6n6zk6lEoqC9RgcvoKQ6QHFldIrxHnYTFVbGBw_k3BUQ5pQC-QYf8f4jZyL8qUQ3xmylKyCuvmgi_z05YUkNg-OPf5mhtFuaMShDCVatbo7fiAqTaLtNjy5loslgEwY3RGugbDNAXhA-vz9fABGHiI90xK-IXRWKOhd74dq77UW98poKkt7sEC0QHR5-u0M2QwKT2Imb7HRBTq8TxhOd-NT3P1lIQ4TT-RflNohj754xSZWywHGsBWBjh1zVuDmhlafcFOFJy2KUBabcR2LI4aa7jedaxwcFBYdAmzjWIJZON3Vr32-xweVxuYiKpMbhh1MN8EPsk80IEtSlbQOxQKgTqadcy5OM8Uc5IrLiP1TcyfTJrfiPci8SxgWeqw442cQ14dNLw0DUfKucotyapClzim6_GCkVFqByQvpDt3F00h7UlbFk_KKsgItS2f_KWumqV8BK-Q4aZOHsWOb67uEGKsd47wQpIx2LaiPss3RxqFeLxXIQfCni_4PRVWs0oRAka5NBwomJrLavEs3vOKa1Too7LmKbxXUCz1KRt6vw1Z9jJ8H_GEWt_7UqSoQU-RTjxy0]--></g></svg>