<svg xmlns="http://www.w3.org/2000/svg" xmlns:xlink="http://www.w3.org/1999/xlink" contentStyleType="text/css" data-diagram-type="CLASS" height="1050px" preserveAspectRatio="none" style="width:760px;height:1050px;background:#FFFFFF;" version="1.1" viewBox="0 0 760 1050" width="760px" zoomAndPan="magnify"><defs/><g><!--class GoCamplyService--><g class="entity" data-entity="GoCamplyService" data-source-line="4" data-uid="ent0002" id="entity_GoCamplyService"><rect fill="#F1F1F1" height="58.9766" rx="2.5" ry="2.5" style="stroke:#181818;stroke-width:0.5;" width="148.71" x="388.52" y="7"/><ellipse cx="403.52" cy="28.4883" fill="#ADD1B2" rx="11" ry="11" style="stroke:#181818;stroke-width:1;"/><path d="M405.9931,34.6313 Q405.4121,34.9302 404.7729,35.0796 Q404.1338,35.229 403.4282,35.229 Q400.9214,35.229 399.6015,33.5771 Q398.2817,31.9253 398.2817,28.8042 Q398.2817,25.6748 399.6015,24.0229 Q400.9214,22.3711 403.4282,22.3711 Q404.1338,22.3711 404.7812,22.5205 Q405.4287,22.6699 405.9931,22.9688 L405.9931,25.6914 Q405.3623,25.1104 404.7688,24.8406 Q404.1753,24.5708 403.5444,24.5708 Q402.1997,24.5708 401.5149,25.6375 Q400.8301,26.7041 400.8301,28.8042 Q400.8301,30.896 401.5149,31.9626 Q402.1997,33.0293 403.5444,33.0293 Q404.1753,33.0293 404.7688,32.7595 Q405.3623,32.4897 405.9931,31.9087 Z " fill="#000000"/><text fill="#000000" font-family="sans-serif" font-size="14" lengthAdjust="spacing" textLength="91.5195" x="430.1152" y="25.5352">&#171;Application&#187;</text><text fill="#000000" font-family="sans-serif" font-size="14" lengthAdjust="spacing" textLength="116.71" x="417.52" y="42.0234">GoCamplyService</text><line style="stroke:#181818;stroke-width:0.5;" x1="389.52" x2="536.23" y1="49.9766" y2="49.9766"/><line style="stroke:#181818;stroke-width:0.5;" x1="389.52" x2="536.23" y1="57.9766" y2="57.9766"/></g><!--class ResourceCampgrounds--><g class="entity" data-entity="ResourceCampgrounds" data-source-line="7" data-uid="ent0003" id="entity_ResourceCampgrounds"><rect fill="#F1F1F1" height="91.9531" rx="2.5" ry="2.5" style="stroke:#181818;stroke-width:0.5;" width="313.7588" x="61" y="125.98"/><ellipse cx="165.7881" cy="147.4683" fill="#ADD1B2" rx="11" ry="11" style="stroke:#181818;stroke-width:1;"/><path d="M168.2612,153.6113 Q167.6802,153.9102 167.041,154.0596 Q166.4019,154.209 165.6963,154.209 Q163.1895,154.209 161.8696,152.5571 Q160.5498,150.9053 160.5498,147.7842 Q160.5498,144.6548 161.8696,143.0029 Q163.1895,141.3511 165.6963,141.3511 Q166.4019,141.3511 167.0493,141.5005 Q167.6968,141.6499 168.2612,141.9488 L168.2612,144.6714 Q167.6304,144.0904 167.0369,143.8206 Q166.4434,143.5508 165.8125,143.5508 Q164.4678,143.5508 163.783,144.6175 Q163.0981,145.6841 163.0981,147.7842 Q163.0981,149.876 163.783,150.9426 Q164.4678,152.0093 165.8125,152.0093 Q166.4434,152.0093 167.0369,151.7395 Q167.6304,151.4697 168.2612,150.8887 Z " fill="#000000"/><text fill="#000000" font-family="sans-serif" font-size="14" lengthAdjust="spacing" textLength="76.4463" x="195.9063" y="144.5152">&#171;Resource&#187;</text><text fill="#000000" font-family="sans-serif" font-size="14" lengthAdjust="spacing" textLength="95.6826" x="186.2881" y="161.0034">Campgrounds</text><line style="stroke:#181818;stroke-width:0.5;" x1="62" x2="373.7588" y1="168.9566" y2="168.9566"/><line style="stroke:#181818;stroke-width:0.5;" x1="62" x2="373.7588" y1="176.9566" y2="176.9566"/><text fill="#000000" font-family="sans-serif" font-size="14" lengthAdjust="spacing" textLength="289.8506" x="67" y="194.4917">&#171;GET&#187; +getCampgrounds(): Campground[]</text><text fill="#000000" font-family="sans-serif" font-size="14" lengthAdjust="spacing" textLength="301.7588" x="67" y="210.98">&#171;POST&#187; +createCampground(): Campground</text></g><!--class ResourceCampground--><g class="entity" data-entity="ResourceCampground" data-source-line="12" data-uid="ent0004" id="entity_ResourceCampground"><rect fill="#F1F1F1" height="124.9297" rx="2.5" ry="2.5" style="stroke:#181818;stroke-width:0.5;" width="310.6553" x="63.55" y="277.93"/><ellipse cx="170.3547" cy="299.4183" fill="#ADD1B2" rx="11" ry="11" style="stroke:#181818;stroke-width:1;"/><path d="M172.8278,305.5613 Q172.2468,305.8602 171.6076,306.0096 Q170.9685,306.159 170.2629,306.159 Q167.7561,306.159 166.4362,304.5071 Q165.1164,302.8553 165.1164,299.7342 Q165.1164,296.6048 166.4362,294.9529 Q167.7561,293.3011 170.2629,293.3011 Q170.9685,293.3011 171.6159,293.4505 Q172.2634,293.5999 172.8278,293.8988 L172.8278,296.6214 Q172.197,296.0404 171.6035,295.7706 Q171.01,295.5008 170.3791,295.5008 Q169.0344,295.5008 168.3496,296.5675 Q167.6647,297.6341 167.6647,299.7342 Q167.6647,301.826 168.3496,302.8926 Q169.0344,303.9593 170.3791,303.9593 Q171.01,303.9593 171.6035,303.6895 Q172.197,303.4197 172.8278,302.8387 Z " fill="#000000"/><text fill="#000000" font-family="sans-serif" font-size="14" lengthAdjust="spacing" textLength="76.4463" x="196.9045" y="296.4652">&#171;Resource&#187;</text><text fill="#000000" font-family="sans-serif" font-size="14" lengthAdjust="spacing" textLength="88.5459" x="190.8547" y="312.9534">Campground</text><line style="stroke:#181818;stroke-width:0.5;" x1="64.55" x2="373.2053" y1="320.9066" y2="320.9066"/><line style="stroke:#181818;stroke-width:0.5;" x1="64.55" x2="373.2053" y1="328.9066" y2="328.9066"/><text fill="#000000" font-family="sans-serif" font-size="14" lengthAdjust="spacing" textLength="273.6084" x="69.55" y="346.4417">&#171;GET&#187; +getCampground(): Campground</text><text fill="#000000" font-family="sans-serif" font-size="14" lengthAdjust="spacing" textLength="298.6553" x="69.55" y="362.93">&#171;PUT&#187; +updateCampground(): Campground</text><text fill="#000000" font-family="sans-serif" font-size="14" lengthAdjust="spacing" textLength="256.5049" x="69.55" y="379.4183">&#171;DELETE&#187; +deleteCampground(): void</text><text fill="#000000" font-family="sans-serif" font-size="14" lengthAdjust="spacing" textLength="253.5518" x="69.55" y="395.9066">&#171;GET&#187; +getAvailability(): Availability[]</text></g><!--class ResourceBookings--><g class="entity" data-entity="ResourceBookings" data-source-line="19" data-uid="ent0005" id="entity_ResourceBookings"><rect fill="#F1F1F1" height="91.9531" rx="2.5" ry="2.5" style="stroke:#181818;stroke-width:0.5;" width="234.5576" x="103.6" y="471.1"/><ellipse cx="178.4057" cy="492.5883" fill="#ADD1B2" rx="11" ry="11" style="stroke:#181818;stroke-width:1;"/><path d="M180.8788,498.7313 Q180.2978,499.0302 179.6586,499.1796 Q179.0194,499.329 178.3139,499.329 Q175.807,499.329 174.4872,497.6771 Q173.1674,496.0253 173.1674,492.9042 Q173.1674,489.7748 174.4872,488.1229 Q175.807,486.4711 178.3139,486.4711 Q179.0194,486.4711 179.6669,486.6205 Q180.3144,486.7699 180.8788,487.0688 L180.8788,489.7914 Q180.2479,489.2104 179.6544,488.9406 Q179.0609,488.6708 178.4301,488.6708 Q177.0854,488.6708 176.4005,489.7375 Q175.7157,490.8041 175.7157,492.9042 Q175.7157,494.996 176.4005,496.0626 Q177.0854,497.1293 178.4301,497.1293 Q179.0609,497.1293 179.6544,496.8595 Q180.2479,496.5897 180.8788,496.0087 Z " fill="#000000"/><text fill="#000000" font-family="sans-serif" font-size="14" lengthAdjust="spacing" textLength="76.4463" x="198.9057" y="489.6352">&#171;Resource&#187;</text><text fill="#000000" font-family="sans-serif" font-size="14" lengthAdjust="spacing" textLength="62.0361" x="206.1107" y="506.1234">Bookings</text><line style="stroke:#181818;stroke-width:0.5;" x1="104.6" x2="337.1576" y1="514.0766" y2="514.0766"/><line style="stroke:#181818;stroke-width:0.5;" x1="104.6" x2="337.1576" y1="522.0766" y2="522.0766"/><text fill="#000000" font-family="sans-serif" font-size="14" lengthAdjust="spacing" textLength="222.5576" x="109.6" y="539.6117">&#171;GET&#187; +getBookings(): Booking[]</text><text fill="#000000" font-family="sans-serif" font-size="14" lengthAdjust="spacing" textLength="218.3535" x="109.6" y="556.1">&#171;POST&#187; +addBooking(): Booking</text></g><!--class ResourceBooking--><g class="entity" data-entity="ResourceBooking" data-source-line="24" data-uid="ent0006" id="entity_ResourceBooking"><rect fill="#F1F1F1" height="108.4414" rx="2.5" ry="2.5" style="stroke:#181818;stroke-width:0.5;" width="243.3623" x="182.2" y="631.3"/><ellipse cx="261.408" cy="652.7883" fill="#ADD1B2" rx="11" ry="11" style="stroke:#181818;stroke-width:1;"/><path d="M263.8812,658.9313 Q263.3001,659.2302 262.6609,659.3796 Q262.0218,659.529 261.3162,659.529 Q258.8094,659.529 257.4896,657.8771 Q256.1697,656.2253 256.1697,653.1042 Q256.1697,649.9748 257.4896,648.3229 Q258.8094,646.6711 261.3162,646.6711 Q262.0218,646.6711 262.6692,646.8205 Q263.3167,646.9699 263.8812,647.2688 L263.8812,649.9914 Q263.2503,649.4104 262.6568,649.1406 Q262.0633,648.8708 261.4324,648.8708 Q260.0877,648.8708 259.4029,649.9375 Q258.7181,651.0041 258.7181,653.1042 Q258.7181,655.196 259.4029,656.2626 Q260.0877,657.3293 261.4324,657.3293 Q262.0633,657.3293 262.6568,657.0595 Q263.2503,656.7897 263.8812,656.2087 Z " fill="#000000"/><text fill="#000000" font-family="sans-serif" font-size="14" lengthAdjust="spacing" textLength="76.4463" x="281.908" y="649.8352">&#171;Resource&#187;</text><text fill="#000000" font-family="sans-serif" font-size="14" lengthAdjust="spacing" textLength="54.8994" x="292.6814" y="666.3234">Booking</text><line style="stroke:#181818;stroke-width:0.5;" x1="183.2" x2="424.5623" y1="674.2766" y2="674.2766"/><line style="stroke:#181818;stroke-width:0.5;" x1="183.2" x2="424.5623" y1="682.2766" y2="682.2766"/><text fill="#000000" font-family="sans-serif" font-size="14" lengthAdjust="spacing" textLength="206.3154" x="188.2" y="699.8117">&#171;GET&#187; +getBooking(): Booking</text><text fill="#000000" font-family="sans-serif" font-size="14" lengthAdjust="spacing" textLength="231.3623" x="188.2" y="716.3">&#171;PUT&#187; +updateBooking(): Booking</text><text fill="#000000" font-family="sans-serif" font-size="14" lengthAdjust="spacing" textLength="222.8584" x="188.2" y="732.7883">&#171;DELETE&#187; +deleteBooking(): void</text></g><!--class ResourceFavorites--><g class="entity" data-entity="ResourceFavorites" data-source-line="30" data-uid="ent0007" id="entity_ResourceFavorites"><rect fill="#F1F1F1" height="108.4414" rx="2.5" ry="2.5" style="stroke:#181818;stroke-width:0.5;" width="251.9209" x="372.92" y="462.86"/><ellipse cx="456.4073" cy="484.3483" fill="#ADD1B2" rx="11" ry="11" style="stroke:#181818;stroke-width:1;"/><path d="M458.8804,490.4913 Q458.2994,490.7902 457.6602,490.9396 Q457.0211,491.089 456.3155,491.089 Q453.8087,491.089 452.4888,489.4371 Q451.169,487.7853 451.169,484.6642 Q451.169,481.5348 452.4888,479.8829 Q453.8087,478.2311 456.3155,478.2311 Q457.0211,478.2311 457.6685,478.3805 Q458.316,478.5299 458.8804,478.8288 L458.8804,481.5514 Q458.2496,480.9704 457.6561,480.7006 Q457.0626,480.4308 456.4317,480.4308 Q455.087,480.4308 454.4022,481.4975 Q453.7174,482.5641 453.7174,484.6642 Q453.7174,486.756 454.4022,487.8226 Q455.087,488.8893 456.4317,488.8893 Q457.0626,488.8893 457.6561,488.6195 Q458.2496,488.3497 458.8804,487.7687 Z " fill="#000000"/><text fill="#000000" font-family="sans-serif" font-size="14" lengthAdjust="spacing" textLength="76.4463" x="476.9073" y="481.3952">&#171;Resource&#187;</text><text fill="#000000" font-family="sans-serif" font-size="14" lengthAdjust="spacing" textLength="61.0313" x="484.6148" y="497.8834">Favorites</text><line style="stroke:#181818;stroke-width:0.5;" x1="373.92" x2="623.8409" y1="505.8366" y2="505.8366"/><line style="stroke:#181818;stroke-width:0.5;" x1="373.92" x2="623.8409" y1="513.8366" y2="513.8366"/><text fill="#000000" font-family="sans-serif" font-size="14" lengthAdjust="spacing" textLength="216.3438" x="378.92" y="531.3717">&#171;POST&#187; +addFavorite(): Favorite</text><text fill="#000000" font-family="sans-serif" font-size="14" lengthAdjust="spacing" textLength="230.6035" x="378.92" y="547.86">&#171;DELETE&#187; +removeFavorite(): void</text><text fill="#000000" font-family="sans-serif" font-size="14" lengthAdjust="spacing" textLength="239.9209" x="378.92" y="564.3483">&#171;GET&#187; +getMyFavorites(): Favorite[]</text></g><!--class ResourceAuth--><g class="entity" data-entity="ResourceAuth" data-source-line="36" data-uid="ent0008" id="entity_ResourceAuth"><rect fill="#F1F1F1" height="124.9297" rx="2.5" ry="2.5" style="stroke:#181818;stroke-width:0.5;" width="185.7832" x="567.99" y="277.93"/><ellipse cx="618.4085" cy="299.4183" fill="#ADD1B2" rx="11" ry="11" style="stroke:#181818;stroke-width:1;"/><path d="M620.8816,305.5613 Q620.3005,305.8602 619.6614,306.0096 Q619.0222,306.159 618.3167,306.159 Q615.8098,306.159 614.49,304.5071 Q613.1702,302.8553 613.1702,299.7342 Q613.1702,296.6048 614.49,294.9529 Q615.8098,293.3011 618.3167,293.3011 Q619.0222,293.3011 619.6697,293.4505 Q620.3171,293.5999 620.8816,293.8988 L620.8816,296.6214 Q620.2507,296.0404 619.6572,295.7706 Q619.0637,295.5008 618.4329,295.5008 Q617.0881,295.5008 616.4033,296.5675 Q615.7185,297.6341 615.7185,299.7342 Q615.7185,301.826 616.4033,302.8926 Q617.0881,303.9593 618.4329,303.9593 Q619.0637,303.9593 619.6572,303.6895 Q620.2507,303.4197 620.8816,302.8387 Z " fill="#000000"/><text fill="#000000" font-family="sans-serif" font-size="14" lengthAdjust="spacing" textLength="76.4463" x="638.9085" y="296.4652">&#171;Resource&#187;</text><text fill="#000000" font-family="sans-serif" font-size="14" lengthAdjust="spacing" textLength="32.2725" x="660.9954" y="312.9534">Auth</text><line style="stroke:#181818;stroke-width:0.5;" x1="568.99" x2="752.7732" y1="320.9066" y2="320.9066"/><line style="stroke:#181818;stroke-width:0.5;" x1="568.99" x2="752.7732" y1="328.9066" y2="328.9066"/><text fill="#000000" font-family="sans-serif" font-size="14" lengthAdjust="spacing" textLength="165.7715" x="573.99" y="346.4417">&#171;POST&#187; +register(): User</text><text fill="#000000" font-family="sans-serif" font-size="14" lengthAdjust="spacing" textLength="173.7832" x="573.99" y="362.93">&#171;POST&#187; +login(): { token }</text><text fill="#000000" font-family="sans-serif" font-size="14" lengthAdjust="spacing" textLength="146.7402" x="573.99" y="379.4183">&#171;GET&#187; +getMe(): User</text><text fill="#000000" font-family="sans-serif" font-size="14" lengthAdjust="spacing" textLength="147.3555" x="573.99" y="395.9066">&#171;GET&#187; +logout(): void</text></g><!--class RepresentationUser--><g class="entity" data-entity="RepresentationUser" data-source-line="43" data-uid="ent0009" id="entity_RepresentationUser"><rect fill="#F1F1F1" height="108.4414" rx="2.5" ry="2.5" style="stroke:#181818;stroke-width:0.5;" width="148.8262" x="386.47" y="935.21"/><ellipse cx="401.47" cy="956.6983" fill="#ADD1B2" rx="11" ry="11" style="stroke:#181818;stroke-width:1;"/><path d="M403.9431,962.8413 Q403.3621,963.1402 402.7229,963.2896 Q402.0838,963.439 401.3782,963.439 Q398.8714,963.439 397.5515,961.7871 Q396.2317,960.1353 396.2317,957.0142 Q396.2317,953.8848 397.5515,952.2329 Q398.8714,950.5811 401.3782,950.5811 Q402.0838,950.5811 402.7312,950.7305 Q403.3787,950.8799 403.9431,951.1788 L403.9431,953.9014 Q403.3123,953.3204 402.7188,953.0506 Q402.1253,952.7808 401.4944,952.7808 Q400.1497,952.7808 399.4649,953.8475 Q398.7801,954.9141 398.7801,957.0142 Q398.7801,959.106 399.4649,960.1726 Q400.1497,961.2393 401.4944,961.2393 Q402.1253,961.2393 402.7188,960.9695 Q403.3123,960.6997 403.9431,960.1187 Z " fill="#000000"/><text fill="#000000" font-family="sans-serif" font-size="14" lengthAdjust="spacing" textLength="116.8262" x="415.47" y="953.7452">&#171;Representation&#187;</text><text fill="#000000" font-family="sans-serif" font-size="14" lengthAdjust="spacing" textLength="30.3652" x="458.7005" y="970.2334">User</text><line style="stroke:#181818;stroke-width:0.5;" x1="387.47" x2="534.2962" y1="978.1866" y2="978.1866"/><rect fill="none" height="6" style="stroke:#C82930;stroke-width:1;" width="6" x="394.47" y="988.9307"/><text fill="#000000" font-family="sans-serif" font-size="14" lengthAdjust="spacing" textLength="86.1191" x="406.47" y="995.7217">name: String</text><rect fill="none" height="6" style="stroke:#C82930;stroke-width:1;" width="6" x="394.47" y="1005.419"/><text fill="#000000" font-family="sans-serif" font-size="14" lengthAdjust="spacing" textLength="85.5244" x="406.47" y="1012.21">email: String</text><rect fill="none" height="6" style="stroke:#C82930;stroke-width:1;" width="6" x="394.47" y="1021.9073"/><text fill="#000000" font-family="sans-serif" font-size="14" lengthAdjust="spacing" textLength="75.0039" x="406.47" y="1028.6983">role: String</text><line style="stroke:#181818;stroke-width:0.5;" x1="387.47" x2="534.2962" y1="1035.6514" y2="1035.6514"/></g><!--class RepresentationCampground--><g class="entity" data-entity="RepresentationCampground" data-source-line="49" data-uid="ent0010" id="entity_RepresentationCampground"><rect fill="#F1F1F1" height="91.9531" rx="2.5" ry="2.5" style="stroke:#181818;stroke-width:0.5;" width="148.8262" x="134.47" y="943.45"/><ellipse cx="149.47" cy="964.9383" fill="#ADD1B2" rx="11" ry="11" style="stroke:#181818;stroke-width:1;"/><path d="M151.9431,971.0813 Q151.3621,971.3802 150.7229,971.5296 Q150.0838,971.679 149.3782,971.679 Q146.8714,971.679 145.5515,970.0271 Q144.2317,968.3753 144.2317,965.2542 Q144.2317,962.1248 145.5515,960.4729 Q146.8714,958.8211 149.3782,958.8211 Q150.0838,958.8211 150.7312,958.9705 Q151.3787,959.1199 151.9431,959.4188 L151.9431,962.1414 Q151.3123,961.5604 150.7188,961.2906 Q150.1253,961.0208 149.4944,961.0208 Q148.1497,961.0208 147.4649,962.0875 Q146.7801,963.1541 146.7801,965.2542 Q146.7801,967.346 147.4649,968.4126 Q148.1497,969.4793 149.4944,969.4793 Q150.1253,969.4793 150.7188,969.2095 Q151.3123,968.9397 151.9431,968.3587 Z " fill="#000000"/><text fill="#000000" font-family="sans-serif" font-size="14" lengthAdjust="spacing" textLength="116.8262" x="163.47" y="961.9852">&#171;Representation&#187;</text><text fill="#000000" font-family="sans-serif" font-size="14" lengthAdjust="spacing" textLength="88.5459" x="177.6101" y="978.4734">Campground</text><line style="stroke:#181818;stroke-width:0.5;" x1="135.47" x2="282.2962" y1="986.4266" y2="986.4266"/><rect fill="none" height="6" style="stroke:#C82930;stroke-width:1;" width="6" x="142.47" y="997.1707"/><text fill="#000000" font-family="sans-serif" font-size="14" lengthAdjust="spacing" textLength="86.1191" x="154.47" y="1003.9617">name: String</text><rect fill="none" height="6" style="stroke:#C82930;stroke-width:1;" width="6" x="142.47" y="1013.659"/><text fill="#000000" font-family="sans-serif" font-size="14" lengthAdjust="spacing" textLength="101.9854" x="154.47" y="1020.45">address: String</text><line style="stroke:#181818;stroke-width:0.5;" x1="135.47" x2="282.2962" y1="1027.4031" y2="1027.4031"/></g><!--class RepresentationBooking--><g class="entity" data-entity="RepresentationBooking" data-source-line="54" data-uid="ent0011" id="entity_RepresentationBooking"><rect fill="#F1F1F1" height="75.4648" rx="2.5" ry="2.5" style="stroke:#181818;stroke-width:0.5;" width="148.8262" x="134.47" y="799.74"/><ellipse cx="149.47" cy="821.2283" fill="#ADD1B2" rx="11" ry="11" style="stroke:#181818;stroke-width:1;"/><path d="M151.9431,827.3713 Q151.3621,827.6702 150.7229,827.8196 Q150.0838,827.969 149.3782,827.969 Q146.8714,827.969 145.5515,826.3171 Q144.2317,824.6653 144.2317,821.5442 Q144.2317,818.4148 145.5515,816.7629 Q146.8714,815.1111 149.3782,815.1111 Q150.0838,815.1111 150.7312,815.2605 Q151.3787,815.4099 151.9431,815.7088 L151.9431,818.4314 Q151.3123,817.8504 150.7188,817.5806 Q150.1253,817.3108 149.4944,817.3108 Q148.1497,817.3108 147.4649,818.3775 Q146.7801,819.4441 146.7801,821.5442 Q146.7801,823.636 147.4649,824.7026 Q148.1497,825.7693 149.4944,825.7693 Q150.1253,825.7693 150.7188,825.4995 Q151.3123,825.2297 151.9431,824.6487 Z " fill="#000000"/><text fill="#000000" font-family="sans-serif" font-size="14" lengthAdjust="spacing" textLength="116.8262" x="163.47" y="818.2752">&#171;Representation&#187;</text><text fill="#000000" font-family="sans-serif" font-size="14" lengthAdjust="spacing" textLength="54.8994" x="194.4334" y="834.7634">Booking</text><line style="stroke:#181818;stroke-width:0.5;" x1="135.47" x2="282.2962" y1="842.7166" y2="842.7166"/><rect fill="none" height="6" style="stroke:#C82930;stroke-width:1;" width="6" x="142.47" y="853.4607"/><text fill="#000000" font-family="sans-serif" font-size="14" lengthAdjust="spacing" textLength="101.958" x="154.47" y="860.2517">apptDate: Date</text><line style="stroke:#181818;stroke-width:0.5;" x1="135.47" x2="282.2962" y1="867.2048" y2="867.2048"/></g><!--class RepresentationFavorite--><g class="entity" data-entity="RepresentationFavorite" data-source-line="58" data-uid="ent0012" id="entity_RepresentationFavorite"><rect fill="#F1F1F1" height="75.4648" rx="2.5" ry="2.5" style="stroke:#181818;stroke-width:0.5;" width="148.8262" x="386.47" y="799.74"/><ellipse cx="401.47" cy="821.2283" fill="#ADD1B2" rx="11" ry="11" style="stroke:#181818;stroke-width:1;"/><path d="M403.9431,827.3713 Q403.3621,827.6702 402.7229,827.8196 Q402.0838,827.969 401.3782,827.969 Q398.8714,827.969 397.5515,826.3171 Q396.2317,824.6653 396.2317,821.5442 Q396.2317,818.4148 397.5515,816.7629 Q398.8714,815.1111 401.3782,815.1111 Q402.0838,815.1111 402.7312,815.2605 Q403.3787,815.4099 403.9431,815.7088 L403.9431,818.4314 Q403.3123,817.8504 402.7188,817.5806 Q402.1253,817.3108 401.4944,817.3108 Q400.1497,817.3108 399.4649,818.3775 Q398.7801,819.4441 398.7801,821.5442 Q398.7801,823.636 399.4649,824.7026 Q400.1497,825.7693 401.4944,825.7693 Q402.1253,825.7693 402.7188,825.4995 Q403.3123,825.2297 403.9431,824.6487 Z " fill="#000000"/><text fill="#000000" font-family="sans-serif" font-size="14" lengthAdjust="spacing" textLength="116.8262" x="415.47" y="818.2752">&#171;Representation&#187;</text><text fill="#000000" font-family="sans-serif" font-size="14" lengthAdjust="spacing" textLength="53.8945" x="446.9358" y="834.7634">Favorite</text><line style="stroke:#181818;stroke-width:0.5;" x1="387.47" x2="534.2962" y1="842.7166" y2="842.7166"/><rect fill="none" height="6" style="stroke:#C82930;stroke-width:1;" width="6" x="394.47" y="853.4607"/><text fill="#000000" font-family="sans-serif" font-size="14" lengthAdjust="spacing" textLength="95.2109" x="406.47" y="860.2517">user: ObjectId</text><line style="stroke:#181818;stroke-width:0.5;" x1="387.47" x2="534.2962" y1="867.2048" y2="867.2048"/></g><!--link GoCamplyService to ResourceCampgrounds--><g class="link" data-entity-1="GoCamplyService" data-entity-2="ResourceCampgrounds" data-source-line="65" data-uid="lnk13" id="link_GoCamplyService_ResourceCampgrounds"><path codeLine="65" d="M425.7,66.15 C425.7,105.94 425.7,171.65 425.7,171.65 C425.7,171.65 410.25,171.65 381.13,171.65" fill="none" id="GoCamplyService-to-ResourceCampgrounds" style="stroke:#181818;stroke-width:1;stroke-dasharray:7,7;"/><polygon fill="#181818" points="375.13,171.65,384.13,175.65,380.13,171.65,384.13,167.65,375.13,171.65" style="stroke:#181818;stroke-width:1;"/><text fill="#000000" font-family="sans-serif" font-size="13" lengthAdjust="spacing" textLength="141.0322" x="426.7" y="140.7584">/api/v1/campgrounds</text></g><!--link GoCamplyService to ResourceBookings--><g class="link" data-entity-1="GoCamplyService" data-entity-2="ResourceBookings" data-source-line="66" data-uid="lnk14" id="link_GoCamplyService_ResourceBookings"><path codeLine="66" d="M462.88,66.27 C462.88,158.4 462.88,432.65 462.88,432.65 C462.88,432.65 259.97,432.65 259.97,432.65 C259.97,432.65 259.97,445.2 259.97,464.91" fill="none" id="GoCamplyService-to-ResourceBookings" style="stroke:#181818;stroke-width:1;stroke-dasharray:7,7;"/><polygon fill="#181818" points="259.97,470.91,263.97,461.91,259.97,465.91,255.97,461.91,259.97,470.91" style="stroke:#181818;stroke-width:1;"/><text fill="#000000" font-family="sans-serif" font-size="13" lengthAdjust="spacing" textLength="112.8296" x="435.38" y="383.6084">/api/v1/bookings</text></g><!--link GoCamplyService to ResourceAuth--><g class="link" data-entity-1="GoCamplyService" data-entity-2="ResourceAuth" data-source-line="67" data-uid="lnk15" id="link_GoCamplyService_ResourceAuth"><path codeLine="67" d="M537.45,36.65 C593.58,36.65 660.88,36.65 660.88,36.65 C660.88,36.65 660.88,182.49 660.88,271.46" fill="none" id="GoCamplyService-to-ResourceAuth" style="stroke:#181818;stroke-width:1;stroke-dasharray:7,7;"/><polygon fill="#181818" points="660.88,277.46,664.88,268.46,660.88,272.46,656.88,268.46,660.88,277.46" style="stroke:#181818;stroke-width:1;"/><text fill="#000000" font-family="sans-serif" font-size="13" lengthAdjust="spacing" textLength="82.6973" x="577.88" y="91.9084">/api/v1/auth</text></g><!--link GoCamplyService to ResourceFavorites--><g class="link" data-entity-1="GoCamplyService" data-entity-2="ResourceFavorites" data-source-line="68" data-uid="lnk16" id="link_GoCamplyService_ResourceFavorites"><path codeLine="68" d="M500.06,66.19 C500.06,145.08 500.06,354.79 500.06,456.56" fill="none" id="GoCamplyService-to-ResourceFavorites" style="stroke:#181818;stroke-width:1;stroke-dasharray:7,7;"/><polygon fill="#181818" points="500.06,462.56,504.06,453.56,500.06,457.56,496.06,453.56,500.06,462.56" style="stroke:#181818;stroke-width:1;"/><text fill="#000000" font-family="sans-serif" font-size="13" lengthAdjust="spacing" textLength="109.002" x="390.06" y="260.9384">/api/v1/favorites</text></g><!--link ResourceCampgrounds to ResourceCampground--><g class="link" data-entity-1="ResourceCampgrounds" data-entity-2="ResourceCampground" data-source-line="71" data-uid="lnk17" id="link_ResourceCampgrounds_ResourceCampground"><path codeLine="71" d="M218.88,218.43 C218.88,236.73 218.88,252.04 218.88,271.68" fill="none" id="ResourceCampgrounds-to-ResourceCampground" style="stroke:#181818;stroke-width:1;stroke-dasharray:7,7;"/><polygon fill="#181818" points="218.88,277.68,222.88,268.68,218.88,272.68,214.88,268.68,218.88,277.68" style="stroke:#181818;stroke-width:1;"/><text fill="#000000" font-family="sans-serif" font-size="13" lengthAdjust="spacing" textLength="27.2124" x="190.88" y="244.6184">/{id}</text></g><!--link ResourceCampground to ResourceBookings--><g class="link" data-entity-1="ResourceCampground" data-entity-2="ResourceBookings" data-source-line="72" data-uid="lnk18" id="link_ResourceCampground_ResourceBookings"><path codeLine="72" d="M181.79,403.19 C181.79,425.5 181.79,444.2 181.79,464.88" fill="none" id="ResourceCampground-to-ResourceBookings" style="stroke:#181818;stroke-width:1;stroke-dasharray:7,7;"/><polygon fill="#181818" points="181.79,470.88,185.79,461.88,181.79,465.88,177.79,461.88,181.79,470.88" style="stroke:#181818;stroke-width:1;"/><text fill="#000000" font-family="sans-serif" font-size="13" lengthAdjust="spacing" textLength="126.2422" x="54.79" y="433.5984">/{campgroundId}/...</text></g><!--link ResourceCampground to ResourceFavorites--><g class="link" data-entity-1="ResourceCampground" data-entity-2="ResourceFavorites" data-source-line="73" data-uid="lnk19" id="link_ResourceCampground_ResourceFavorites"><path codeLine="73" d="M355.54,403.15 C355.54,434.84 355.54,466.65 355.54,466.65 C355.54,466.65 356.15,466.65 366.54,466.65" fill="none" id="ResourceCampground-to-ResourceFavorites" style="stroke:#181818;stroke-width:1;stroke-dasharray:7,7;"/><polygon fill="#181818" points="372.54,466.65,363.54,462.65,367.54,466.65,363.54,470.65,372.54,466.65" style="stroke:#181818;stroke-width:1;"/><text fill="#000000" font-family="sans-serif" font-size="13" lengthAdjust="spacing" textLength="126.2422" x="228.54" y="439.9684">/{campgroundId}/...</text></g><!--link ResourceBookings to ResourceBooking--><g class="link" data-entity-1="ResourceBookings" data-entity-2="ResourceBooking" data-source-line="74" data-uid="lnk20" id="link_ResourceBookings_ResourceBooking"><path codeLine="74" d="M260.18,563.55 C260.18,584.39 260.18,603.12 260.18,624.84" fill="none" id="ResourceBookings-to-ResourceBooking" style="stroke:#181818;stroke-width:1;stroke-dasharray:7,7;"/><polygon fill="#181818" points="260.18,630.84,264.18,621.84,260.18,625.84,256.18,621.84,260.18,630.84" style="stroke:#181818;stroke-width:1;"/><text fill="#000000" font-family="sans-serif" font-size="13" lengthAdjust="spacing" textLength="27.2124" x="232.18" y="593.7684">/{id}</text></g><!--link ResourceCampground to RepresentationCampground--><g class="link" data-entity-1="ResourceCampground" data-entity-2="RepresentationCampground" data-source-line="78" data-uid="lnk21" id="link_ResourceCampground_RepresentationCampground"><path codeLine="78" d="M83.58,403.14 C83.58,563.11 83.58,973.65 83.58,973.65 C83.58,973.65 101.35,973.65 128.18,973.65" fill="none" id="ResourceCampground-to-RepresentationCampground" style="stroke:#181818;stroke-width:1;stroke-dasharray:7,7;"/><polygon fill="#181818" points="134.18,973.65,125.18,969.65,129.18,973.65,125.18,977.65,134.18,973.65" style="stroke:#181818;stroke-width:1;"/><text fill="#000000" font-family="sans-serif" font-size="13" lengthAdjust="spacing" textLength="35.5596" x="47.58" y="710.2684">&#171;use&#187;</text></g><!--link ResourceCampgrounds to RepresentationCampground--><g class="link" data-entity-1="ResourceCampgrounds" data-entity-2="RepresentationCampground" data-source-line="79" data-uid="lnk22" id="link_ResourceCampgrounds_RepresentationCampground"><path codeLine="79" d="M60.73,171.65 C49.81,171.65 43,171.65 43,171.65 C43,171.65 43,1004.65 43,1004.65 C43,1004.65 84.16,1004.65 128.19,1004.65" fill="none" id="ResourceCampgrounds-to-RepresentationCampground" style="stroke:#181818;stroke-width:1;stroke-dasharray:7,7;"/><polygon fill="#181818" points="134.19,1004.65,125.19,1000.65,129.19,1004.65,125.19,1008.65,134.19,1004.65" style="stroke:#181818;stroke-width:1;"/><text fill="#000000" font-family="sans-serif" font-size="13" lengthAdjust="spacing" textLength="35.5596" x="7" y="621.4484">&#171;use&#187;</text></g><!--link ResourceBooking to RepresentationBooking--><g class="link" data-entity-1="ResourceBooking" data-entity-2="RepresentationBooking" data-source-line="80" data-uid="lnk23" id="link_ResourceBooking_RepresentationBooking"><path codeLine="80" d="M232.75,739.95 C232.75,759.71 232.75,775.59 232.75,793.6" fill="none" id="ResourceBooking-to-RepresentationBooking" style="stroke:#181818;stroke-width:1;stroke-dasharray:7,7;"/><polygon fill="#181818" points="232.75,799.6,236.75,790.6,232.75,794.6,228.75,790.6,232.75,799.6" style="stroke:#181818;stroke-width:1;"/><text fill="#000000" font-family="sans-serif" font-size="13" lengthAdjust="spacing" textLength="35.5596" x="196.75" y="766.3484">&#171;use&#187;</text></g><!--link ResourceBookings to RepresentationBooking--><g class="link" data-entity-1="ResourceBookings" data-entity-2="RepresentationBooking" data-source-line="81" data-uid="lnk24" id="link_ResourceBookings_RepresentationBooking"><path codeLine="81" d="M158.33,563.33 C158.33,626.93 158.33,734.21 158.33,793.27" fill="none" id="ResourceBookings-to-RepresentationBooking" style="stroke:#181818;stroke-width:1;stroke-dasharray:7,7;"/><polygon fill="#181818" points="158.33,799.27,162.33,790.27,158.33,794.27,154.33,790.27,158.33,799.27" style="stroke:#181818;stroke-width:1;"/><text fill="#000000" font-family="sans-serif" font-size="13" lengthAdjust="spacing" textLength="35.5596" x="122.33" y="677.8684">&#171;use&#187;</text></g><!--link ResourceFavorites to RepresentationFavorite--><g class="link" data-entity-1="ResourceFavorites" data-entity-2="RepresentationFavorite" data-source-line="82" data-uid="lnk25" id="link_ResourceFavorites_RepresentationFavorite"><path codeLine="82" d="M480.43,571.8 C480.43,636.67 480.43,737.1 480.43,793.55" fill="none" id="ResourceFavorites-to-RepresentationFavorite" style="stroke:#181818;stroke-width:1;stroke-dasharray:7,7;"/><polygon fill="#181818" points="480.43,799.55,484.43,790.55,480.43,794.55,476.43,790.55,480.43,799.55" style="stroke:#181818;stroke-width:1;"/><text fill="#000000" font-family="sans-serif" font-size="13" lengthAdjust="spacing" textLength="35.5596" x="444.43" y="682.2384">&#171;use&#187;</text></g><!--link ResourceAuth to RepresentationUser--><g class="link" data-entity-1="ResourceAuth" data-entity-2="RepresentationUser" data-source-line="83" data-uid="lnk26" id="link_ResourceAuth_RepresentationUser"><path codeLine="83" d="M689.31,403.24 C689.31,566.18 689.31,989.65 689.31,989.65 C689.31,989.65 608.29,989.65 541.67,989.65" fill="none" id="ResourceAuth-to-RepresentationUser" style="stroke:#181818;stroke-width:1;stroke-dasharray:7,7;"/><polygon fill="#181818" points="535.67,989.65,544.67,993.65,540.67,989.65,544.67,985.65,535.67,989.65" style="stroke:#181818;stroke-width:1;"/><text fill="#000000" font-family="sans-serif" font-size="13" lengthAdjust="spacing" textLength="35.5596" x="653.31" y="769.8284">&#171;use&#187;</text></g><!--link RepresentationBooking to RepresentationUser--><g class="link" data-entity-1="RepresentationBooking" data-entity-2="RepresentationUser" data-source-line="86" data-uid="lnk27" id="link_RepresentationBooking_RepresentationUser"><path codeLine="86" d="M246.09,875.52 C246.09,904.57 246.09,939.65 246.09,939.65 C246.09,939.65 318.07,939.65 380.06,939.65" fill="none" id="RepresentationBooking-to-RepresentationUser" style="stroke:#181818;stroke-width:1;stroke-dasharray:7,7;"/><polygon fill="#181818" points="386.06,939.65,377.06,935.65,381.06,939.65,377.06,943.65,386.06,939.65" style="stroke:#181818;stroke-width:1;"/></g><!--link RepresentationBooking to RepresentationCampground--><g class="link" data-entity-1="RepresentationBooking" data-entity-2="RepresentationCampground" data-source-line="87" data-uid="lnk28" id="link_RepresentationBooking_RepresentationCampground"><path codeLine="87" d="M171.67,875.43 C171.67,895.91 171.67,915.36 171.67,937.01" fill="none" id="RepresentationBooking-to-RepresentationCampground" style="stroke:#181818;stroke-width:1;stroke-dasharray:7,7;"/><polygon fill="#181818" points="171.67,943.01,175.67,934.01,171.67,938.01,167.67,934.01,171.67,943.01" style="stroke:#181818;stroke-width:1;"/></g><!--link RepresentationCampground to RepresentationBooking--><g class="link" data-entity-1="RepresentationCampground" data-entity-2="RepresentationBooking" data-source-line="90" data-uid="lnk31" id="link_RepresentationCampground_RepresentationBooking"><path codeLine="90" d="M208.88,943.01 C208.88,921.37 208.88,901.93 208.88,881.45" fill="none" id="RepresentationCampground-to-RepresentationBooking" style="stroke:#181818;stroke-width:1;stroke-dasharray:7,7;"/><polygon fill="#181818" points="208.88,875.45,204.88,884.45,208.88,880.45,212.88,884.45,208.88,875.45" style="stroke:#181818;stroke-width:1;"/></g><!--link RepresentationFavorite to RepresentationUser--><g class="link" data-entity-1="RepresentationFavorite" data-entity-2="RepresentationUser" data-source-line="88" data-uid="lnk29" id="link_RepresentationFavorite_RepresentationUser"><path codeLine="88" d="M460.88,875.43 C460.88,893.36 460.88,909.1 460.88,928.77" fill="none" id="RepresentationFavorite-to-RepresentationUser" style="stroke:#181818;stroke-width:1;stroke-dasharray:7,7;"/><polygon fill="#181818" points="460.88,934.77,464.88,925.77,460.88,929.77,456.88,925.77,460.88,934.77" style="stroke:#181818;stroke-width:1;"/></g><!--link RepresentationFavorite to RepresentationCampground--><g class="link" data-entity-1="RepresentationFavorite" data-entity-2="RepresentationCampground" data-source-line="89" data-uid="lnk30" id="link_RepresentationFavorite_RepresentationCampground"><path codeLine="89" d="M386.13,837.65 C359,837.65 334.88,837.65 334.88,837.65 C334.88,837.65 334.88,989.65 334.88,989.65 C334.88,989.65 316.76,989.65 289.63,989.65" fill="none" id="RepresentationFavorite-to-RepresentationCampground" style="stroke:#181818;stroke-width:1;stroke-dasharray:7,7;"/><polygon fill="#181818" points="283.63,989.65,292.63,993.65,288.63,989.65,292.63,985.65,283.63,989.65" style="stroke:#181818;stroke-width:1;"/></g><!--SRC=[bLRTRzem47_FNt7YfPisWhhj2I4ajj8EgLshqZvjUp395JoCdTaE5KByxxFJE3YVC1vGSdU_-vtlArPhoXCYoGOI4gt94kTwnn3KtvH835IXPPIZtYK8GkgL28A84QMWDnfDaeJHY6Wg-7ZyYz-8RsIJiDqSvPP6s0EYe2A3_I48Bk16YZIXV0bwXGfXXInHzXaOsObK0_AbuOGrOcB56uYOK7WaVaGbKXcXPRN-byOVZrN6w7IUV1-0-Or6DzEdyHW-B55xodVlXt1y_VaxjtsudsV6aKIYFMTby-0Gd8gg9IZe2gf2aaVqd1ccITmLq9ljrVHs-ZIrvZ4oh9fl1Orhx9CjeOmiAADwPutyTvELjeD-5S8qohASUoUidz5fB4F-N4ivYUDSvLcT2g29lvNUzzkGt5QhQbezmoodRJ5UawsGL6CvIuLqNq-0qrdNxhaMXCIDsA9lsbZPkrt1vBlhAEearQjIg5PGZLBYaYgDqlfyLYWhQYRC35lT7hHO8uT3FJ2iO7ELWPejq9BLH9gLmNMnTImyZzLNMN4-OtrEDZY4kPQkadtScEOkYwHWHwDkojfm-mQr4M-WDmKs27KcNRd3VMskSKGaIVILwTyXsFyJNbqRDBXrAkStDRaSmltY3qPwbjNZ0lhzFZnERoTFi_iVy- -pXxcLMCLb26xPn-ALc-8NNQI2wkSW3CTD2ti8lG59w61xEOYyzTu9Tvl5moxSRke4sjxsGCJsVYUWc2OFzL9CkCt1fx0mXXatCzAF1EScUoQvAcWuS4iYBC6UneTU0wRryFjZocRnOH26uKbuwKHTUCVJH7uCrcJWSmZNmXw_t5dAjeFzq2-4rc83gRBjkw9nR1Q4lMSee2_04MECFnetvYSaA6fB0MRZPbXET2e9CwwIVjPYBqoymehmsDnUg0xRJziyfqCx8AR7n-DUHstEnxgfhEEEcMe3gVz35OLhW3bT4yxsV0FaEHlqexcfm9SGxeJvse54zbR25Kri3pVjeMQFPnjxrvYMXNGMGOTrAqDdgxXBm3y0]--></g></svg>